<svg xmlns="http://www.w3.org/2000/svg" xmlns:xlink="http://www.w3.org/1999/xlink" width="506.474" height="208.88" viewBox="0 0 506.474 208.88">
  <defs>
    <clipPath id="clip-path">
      <rect id="Rectangle_757" data-name="Rectangle 757" width="506.474" height="208.88" fill="#262626"/>
    </clipPath>
    <clipPath id="clip-path-2">
      <rect id="Rectangle_722" data-name="Rectangle 722" width="123.675" height="78.866" fill="#262626"/>
    </clipPath>
  </defs>
  <g id="Final" transform="translate(-1295 -6824.036)">
    <g id="layer1" transform="translate(1295 6824.036)">
      <g id="Group_877" data-name="Group 877" clip-path="url(#clip-path)">
        <path id="Path_2779" data-name="Path 2779" d="M197.349,155.168a5.845,5.845,0,0,0-.768,1.582c-1.635.122-3.315.226-5.079.3-2.337.094-4.557.131-6.679.119-.136-.734-.245-1.418-.312-2.014,2.191.017,4.485-.016,6.91-.114,1.429-.058,2.8-.137,4.147-.228a4.788,4.788,0,0,0,1.781.357m222.527-16.591c.862-.165,1.06-.28.8-.362-.267.12-.533.242-.8.362M222.857,149.706c-.017-.056-.034-.111-.05-.166-.179.063-.364.123-.544.185h.306c.084,0,.185-.009.288-.018M75.833,143.063c.355-.076.674-.166,1.036-.24-.033-.15-.055-.339-.079-.519-.315.26-.636.516-.957.759M149.28,85.01c.446-.045,1.029-.082,1.711-.1a.97.97,0,0,1-.1-.493c.063-.329.494.041.733.477,1.076-.02,2.343-.005,3.719.071,2.214.121-1.112.41-3.571.461a.339.339,0,0,1-.117.26c-.078.06-.227-.061-.372-.253h-.058a.956.956,0,0,1,.084.246q.52.166,1.048.33c.314-.243.51-.3.365.115l.269.085c.075-.008.113-.016.222-.023.766-.05,1.387,0,1.379.1s-.479.123-.957.111c2.605.768,5.371,1.466,8.371,2.055-.1-.306-.206-.619-.32-.925-1.389.662-2.017-1.8-.631-1.173.061.028.126.056.19.084-.034-.079-.067-.152-.1-.224a98.966,98.966,0,0,1-12.6-3.578c-.4.524-.869,1.083-1.37,1.632.7.249,1.383.5,2.1.747M137.222,79.5a7.6,7.6,0,0,1,.6-.878l-.788-.294a4.009,4.009,0,0,1-1.38,1.124c-.908.364-.358-.765.419-1.475q-.447-.163-.9-.323c-.17.051-.355.109-.559.175.124.5-.038.783-.451.666a13.168,13.168,0,0,0-1.71-.034,6.078,6.078,0,0,1-.736.128q1.983.66,3.877,1.356a2.653,2.653,0,0,1,1.62-.445m-26.832-6.206-.622-.012a1.291,1.291,0,0,1,.074.243.929.929,0,0,1,.525.355c.141-.2.3-.392.451-.587-.152,0-.3,0-.428,0m313.841-2.636c-2.322,1.11-4.671,2.222-7.132,3.3a25.337,25.337,0,0,0-5.014-.1c4.211-1.648,7.986-3.444,11.709-5.225h0a1.38,1.38,0,0,0,.436,2.018m-6.771,1.307a1.251,1.251,0,0,1-.451.454c.824-.155.747-.286.451-.454M222.011,149.811c.229.012.529.026.889.041.182.6.381,1.2.513,1.612a91.476,91.476,0,0,1-9.648,2.78c-1.526-1.606-2.733-1.491-3.808-1.076a1.633,1.633,0,0,0-.3.121c-.461.2-.9.429-1.332.567,1.918-.651,3.207.28,4.663.561-2.9.645-6.028,1.206-9.463,1.646a2.475,2.475,0,0,0,1.03-1.137c.258-.917-1.9.593-1.377,1.177-1.519.19-3.105.353-4.74.5a12.06,12.06,0,0,0,1.331-1.71,2.313,2.313,0,0,0,.883-.518,97.168,97.168,0,0,0,21.356-4.562m-4.469,1.5c-.006.11.566.162,1.272.113,1.718-.117-1.256-.382-1.272-.113m66.808-85.24c.118-.119.246-.23.357-.355-.1-.344-.469-.079-.877.371-.5.016-.987.027-1.495.048-4.845.195-9.165.6-13.106,1.151-.076-.035-.121-.066-.207-.1-.991-.412-1.3-.3-.734.239-14.522,2.159-23.553,6.454-32.323,10.647q-1.465.7-2.949,1.4c-.046-.058-.086-.112-.141-.175-1.75-2-2.521-.54-.678.559-2.582,1.207-5.252,2.393-8.118,3.514-.431-.268-3.268.415-2.325.876-2.048.741-4.209,1.442-6.518,2.087l-.168.029.029.011A99.828,99.828,0,0,1,201.69,89.09a8.381,8.381,0,0,0-1.195-1.882,99.69,99.69,0,0,0,13.03-2.512c.194.025.381.051.637.073,1.179.1,1.394.017.478-.2-.137-.032-.254-.05-.382-.074.285-.079.582-.152.862-.232a5.431,5.431,0,0,0,1.969.139c1.094-.233,1.281-.607.637-.924a104.69,104.69,0,0,0,11.459-4.461c.057.029.106.059.169.088.179.082.3-.077.378-.338,1.827-.833,3.605-1.678,5.368-2.519,7.253-3.468,14.667-7.008,25.134-9.39.031.017.067.034.107.051.024-.03.048-.061.073-.091q2.558-.577,5.375-1.056c-.448.468-.582.809.339.62-.387.3.656-.271,1.418-.9a133.18,133.18,0,0,1,14.71-1.362c1.577-.064,3.085-.093,4.562-.108a5.49,5.49,0,0,0,.384.613c.235.308.164.032-.128-.616,2.443-.019,4.772.017,6.973.115-.81.092-1.272.176-.409.181,1.1.007,3.383.047,4.437.063,1.625.13,3.165.3,4.666.491-.719.038-1.395.081-2.022.126-.744-.374-3.2-.433-2.262.2-3.989.428-4.027.952,3.477.844-2.619-.247-1.658-.493.574-.761-.025.015.041.008.2-.023.495-.058,1.042-.117,1.625-.178A91.537,91.537,0,0,1,315.9,67.486a6.115,6.115,0,0,0,.123,1.927c.025.1.057.141.083.228l-.255-.07-1.53-.578c-.032.046-.06.091-.089.136-7.784-2.052-17.1-3.411-29.887-3.061m-73.026,20.6-1.849-.722c.3,1.75,1.054,1.439,1.849.722m2.586-.537c-.14.106-.355.179-.484.283.5.217.838.251.484-.283m77.2-21.6c-1.008-.32-1.174-.046-.369.611,1.958,1.6,2.814.167.369-.611m-269.076,96a.735.735,0,0,1-.169-.07c-.358.073-.7.152-1.063.221.2.633.413,1.365.5,1.759a.744.744,0,0,1,.017.189c.1-.018.188-.038.285-.057a4.065,4.065,0,0,1,.455-1.112,5.138,5.138,0,0,1,.066,1.007c1.489-.3,2.912-.622,4.284-.964a3.822,3.822,0,0,1-1.146-.787,5.661,5.661,0,0,1,1.465.7q.64-.162,1.271-.327l-1.351-1.723q-1.5.381-3.069.733a1.436,1.436,0,0,0,.167.3c.379.384-.392.441-1.712.127m52.565-19.279c-.286.064-.565.132-.85.2a1.868,1.868,0,0,1,.19.821,2.674,2.674,0,0,1,.66-1.018M177.1,89.508a2.662,2.662,0,0,1,.6.712c1.348.052,2.745.08,4.182.089a4.357,4.357,0,0,1,1.265-.857c.242-.04.21.319-.043.859.585,0,1.17,0,1.771-.011a16.649,16.649,0,0,1,1.737-1.78.684.684,0,0,1,.189-.216c-.007-.024-.012-.046-.017-.067-1,.028-1.979.043-2.94.05a1.187,1.187,0,0,1-.121.686c.017.05-.024.106-.168.166a.6.6,0,0,1-.24.078l-.022.007-.019-.008a2.181,2.181,0,0,1-.872-.192l.976-.733c-.717,0-1.425,0-2.12-.007.475,1.323.653,2.212-.155.823-.127-.219-.286-.512-.452-.831q-1.723-.027-3.359-.1c-.014.143-.031.295-.052.464-.045.35-.09.626-.135.866m161.745,10.16a10.381,10.381,0,0,1,2.555-1.277,91.637,91.637,0,0,0,16.728,3.721c-.419.271-.7.69-.027.663.47-.019.825-.262.869-.555,1.765.208,3.605.38,5.543.5q.015,1.062.078,2.022a94.9,94.9,0,0,1-25.746-5.079m20.441,3.765c-.021-.448-.483-.681-1.026-.516-1.322.4,1.076,1.61,1.026.516M4.145,164.1A18.851,18.851,0,0,1,2.7,162.657l.048,1.177a3.874,3.874,0,0,1,1.4.267m-1.368.561h.03l-.03-.01ZM217.394,130.8c.353-.1.714-.2,1.06-.3a3.487,3.487,0,0,0,.043-.575,3.977,3.977,0,0,0-1.319.632,2.62,2.62,0,0,0,.216.244m226.663-23.069c.526-.166,1.043-.336,1.585-.5-.457-.062-.879-.117-1.187-.152a.64.64,0,0,1-.341-.1l-4.085,1.649c-1.152-.8-1.113-1.476,2.34-1.747-.1-.144-.094-.192.132-.012.519-.038,1.111-.067,1.786-.087a11.569,11.569,0,0,1,2.04-.512c.5-.087-.577-.41-1.915-.785a102.7,102.7,0,0,0-12.627,4.825,1.6,1.6,0,0,1-.418,1.374c-.327.236-.312-.279-.3-1.045-.718.328-1.443.654-2.147.985,1.531,1.063,2.217,2.128-1.046,1.289-.372-.1-.732-.186-1.093-.277l-1.189.567c-.473.226-.964.45-1.439.677,1.716.19,2.752.347.663.174l-.873-.075c-.261.124-.537.244-.8.368a2.175,2.175,0,0,1-1.218.56c-.987.457-1.961.917-2.972,1.369,1.077.234,1.156.457-1.495.643-.986.426-1.937.864-2.968,1.275a1.941,1.941,0,0,1,.621.252,11.243,11.243,0,0,0,3.554.178c1.451-.633,2.859-1.279,4.25-1.929-.166-.2-.172-.272.034-.153.039.023.08.052.121.08q1.708-.8,3.387-1.6a135.378,135.378,0,0,1,16.329-6.892c-.231-.411.038-.649,1.269-.4M98.928,95.613c.041.106.082.212.125.318H99.3a2.276,2.276,0,0,1-.369-.317m119.5,32.764c.026.02.053.036.078.057.015-.057.042-.061.062-.1l-.14.041m163.985-1.387c.2-.012.414-.023.617-.036-.126-.027-.257-.06-.393-.1-.074.045-.148.091-.224.136m-141.7,15.662c-1.1.352-4.477,1.026-3.77,1.055.889.036,2.339.155,1.438.275s-3.109.475-3.067.46.16-.053.171-.053.02,0,.019,0,.131-.067.293-.137-.193-.031-.229-.034c-.007,0-.023-.026-.034-.032l-.114.054a.321.321,0,0,1,.053.026c.022.087.2.122-.347.112-3.56,1.683-7.25,3.342-11.4,4.841.008.1.02.223.031.341a37.169,37.169,0,0,0,6.649-2.242c.312-.29.432.23.267,1.155a.361.361,0,0,1-.109.184c2.811-1.216,5.47-2.478,8.1-3.734q1.623-.777,3.271-1.552a11.623,11.623,0,0,1-1.167-.6.139.139,0,0,1-.056-.116m23.71-7.185a10.526,10.526,0,0,1,2.38-1.7c.307-.167.073-.438-.42-.764a92.3,92.3,0,0,0-14.554,3.99c.088.32-.211.61-1.09.672-1.416.1-1.881.723-1.406,1.538a4.158,4.158,0,0,1,1.772.218c1.513-.577,3.084-1.134,4.732-1.662-.477.021-.688-.015-.249-.146a22.692,22.692,0,0,1,2.5-.537c.275-.08.535-.166.814-.244a10.154,10.154,0,0,1-1.81-.516c-1.867-.616,4.086-.82,5.08-.341.728-.176,1.486-.341,2.246-.5m117.646-8.8a2.8,2.8,0,0,0,.076.34c-.93.054-1.871.1-2.838.143-4.508.182-8.563.141-12.315-.046a.688.688,0,0,0-.107-.546c.851-.3,1.333-.556-.107-.47.322-.09-.059-.027-.643.108-.02,0-.03-.01-.051-.013,0,.008-.011.02-.014.028a8.984,8.984,0,0,0-2.189.716,97.642,97.642,0,0,1-10.458-1.355,16.8,16.8,0,0,1,3.893-.717c3.254.038,2.805-.09-1-.284a45.7,45.7,0,0,0-6.355.288c-.978-.221-1.939-.45-2.869-.693a22.416,22.416,0,0,0,2.9-.093c4.269-.46,1.227-1.1-3.226-.229a2.528,2.528,0,0,0-.448.118c-.4-.108-.795-.219-1.19-.33.134-.04.278-.081.4-.119,3.531-1.113,3.936-1.318.9-.456a13.682,13.682,0,0,1-2.079.355c-.486-.14-.969-.281-1.441-.427a5.359,5.359,0,0,0,2.5-.482,24.044,24.044,0,0,0-3.642.117q-2.023-.649-3.953-1.336c.947-.132,1.544-.2,1.607-.188.079.018,1.553-.2,2.83-.436a91.17,91.17,0,0,0,15.057,3.52c.013.03.024.049.037.082,0-.03,0-.049-.006-.078a118.129,118.129,0,0,0,21.879.956c1.016-.041,2-.093,2.973-.153a3.915,3.915,0,0,0-.164,1.529c-.183-.025-.357-.056-.545-.078.168.073.369.151.579.228m-19.328-1.037a1.912,1.912,0,0,1,.124-.228c-.492-.414-.818-.592-.152.228-.062,0-.125,0-.178,0-1.272.006.176.914,1.557.768a29.158,29.158,0,0,0,3.018-.427,29.782,29.782,0,0,0-4.369-.34M0,95.8c3.362-.136,6.473-.371,9.386-.685.095.134.19.267.291.4a4.009,4.009,0,0,0,.057-.436c2.5-.276,4.842-.611,7.053-1a8.649,8.649,0,0,0,1.941,1.093,12.225,12.225,0,0,0-1.542-1.166,91.344,91.344,0,0,0,15.508-4.168c.86-.01,1.745-.017,2.642-.021a10.287,10.287,0,0,0-.609,1.411,91.457,91.457,0,0,1-10.29,3.274,2.122,2.122,0,0,0-1.093.194.356.356,0,0,0-.143.109c-1.014.243-2.046.479-3.12.7a59.99,59.99,0,0,0-6.044.089,16.506,16.506,0,0,0,3.172.19c.493-.023,1.355-.078,2.118-.131A125.055,125.055,0,0,1,.082,97.809Zm30.794-4.967c-.208.385,1.644-.164,1.1-.449a1.585,1.585,0,0,0-1.1.449m1.291.264c.589-.278.263-.352-.724-.163-2.406.461-.7.838.724.163M24.6,93.453c.3-.185.134-.23-.376-.1-1.237.315-.354.549.376.1M18.763,118.2c0-.012,0-.024,0-.036a17,17,0,0,1-2.357-.021c.067.178.112.317.142.424.744-.12,1.5-.236,2.214-.367M130.1,98.13l1.384.26c-.634-.2-1.282-.394-1.935-.585a3.3,3.3,0,0,1,.1.691c.034-.1.2-.229.45-.366M242.226,141.01q-1.3.6-2.582,1.214c.483.077.89.144,1.146.192a8.03,8.03,0,0,1,1.437-1.406m-106-60.838.549.2c.045-.1.089-.2.137-.3a5.681,5.681,0,0,0-.686.095m253.5-.631c-.8.106-1.635.2-2.469.289.612.162,1.5.373,2.352.575a1.853,1.853,0,0,1,.117-.864M118.009,163.467c-.11.058-.227.115-.347.172,2.038.265,3.966.582,5.8.941a1.662,1.662,0,0,1-.4-.127c-.361-.169.184-.286.672-.353-.086-.1-.113-.174-.047-.216.119-.076.4.013.732.177.1.017.159.049.18.095a11.59,11.59,0,0,1,1.441.936c.023.018.034.028.054.045q1.977.448,3.829.953l.4.014c1.428.049,2.283.359,1.256.456,4.629,1.353,8.763,2.923,12.837,4.481,1.557.6,3.125,1.192,4.724,1.778l0-.009a2.059,2.059,0,0,1,1.158-.327c.384.152-.455.4-.91.428q1.4.513,2.847,1.01c.3-.233.412-.261.184.064,1.947.666,3.966,1.3,6.087,1.895.055-.222.194-.315.446-.1.131.111.279.221.41.338,1.009.272,2.034.537,3.1.784a8.575,8.575,0,0,0-1.078-1.514,2.763,2.763,0,0,1-.5-.942,126.021,126.021,0,0,1-13.651-4.477c-.757.129-2.867-.193-1.778-.678l-.328-.125-.554-.21c-.6.038-1.083-.011-1.078-.114,0-.074.227-.1.5-.106a125.111,125.111,0,0,0-17.15-5.489c-.308.569-.634.972-1.224.741a.891.891,0,0,1-.509-1.126q-2.4-.5-5.016-.9a5.73,5.73,0,0,1-2.089,1.51M91.8,73.5a.514.514,0,0,0-.184,0c-.007.036-.017.066-.026.1.159-.009.358-.059.21-.1m31.7,91.083c.457.089.91.181,1.355.276-.213-.117-.416-.237-.6-.354a1.423,1.423,0,0,1-.758.078m281.612-43.22a98.236,98.236,0,0,1-12.9,2.626c-.077.078-.162.156-.245.233.341.089.384.125-.066.063-1.031.941-2.407,1.761-1.889,1.32-1.453.307-.989-.44-.16-1.315-1.4.168-2.831.322-4.329.451a16.792,16.792,0,0,1-2.571,1.919c.324.061.645.124.942.2-.005.013-.022.018-.029.029a108.608,108.608,0,0,0,21.555-3.528c-.108-.564-.21-1.242-.308-2M277.077,110.126a5.707,5.707,0,0,0-.972,1.143c.634-.062,1.252-.129,1.906-.183a13.726,13.726,0,0,1,2.948-2.09,9.883,9.883,0,0,1-2.515,2.054c1.826-.144,3.7-.27,5.69-.35,2.522-.1,4.891-.127,7.165-.106,0-.027,0-.042,0-.069-.195-1.68.8-1.2,1.321.079a106.946,106.946,0,0,1,13.5,1.066,1.813,1.813,0,0,1-.253-.723c-.052-.509-.087-1-.1-1.357-2.2-.306-4.527-.55-7-.725-.144.122-.278.234-.388.324-.862.708-.552.3.093-.347a133.206,133.206,0,0,0-14.413-.151c-1.7.069-3.34.165-4.926.28-.567.159-1.112.313-1.629.462a1.5,1.5,0,0,1-.421.693m-155.264,7.856c-.623-.12-1.252-.236-1.9-.346-.053.16-.264.263-.558.245-.4-.023-.4-.211-.259-.378l-.452-.073c.02.427-.195.8-.825.951-.434.1-.822-.669-1.136-1.237-2.245-.3-4.626-.543-7.161-.708-.361,1.776-1.679,1.3-2.143-.12-2.387-.112-4.909-.157-7.583-.126a2.823,2.823,0,0,1,1.245,1.838l.3.163c3.159,0,6.095.109,8.843.309a3.237,3.237,0,0,1-.311-.282c-.764-.794,6.453-.109,6.2.095a8.706,8.706,0,0,1-1.564.592c2.562.295,4.957.671,7.211,1.112.012-.687.043-1.378.087-2.035m40.78-31.48a99.2,99.2,0,0,0,14.246,1.655,7.245,7.245,0,0,0-.184,1.062c-.611-.294-1.342-.209-1.931.844-.571-.036-1.138-.075-1.693-.119a.432.432,0,0,0-.325-.028q-1.986-.165-3.848-.389a3.053,3.053,0,0,0,.609-.537,1.554,1.554,0,0,1-.283-.131c-.252.364-.415.645-.352.665-2.155-.261-4.186-.58-6.122-.944a9.177,9.177,0,0,0-.118-2.078m9.315,1.456c-4.437,2.951,4.015-.273,0,0m-7.817.565c.3.016,2.729-.024,3.718-.058a20.329,20.329,0,0,0,3.24-.4c.795-.186-7.256.445-6.958.46M47.244,85.68c2.714-1.3,5.453-2.6,8.371-3.854a8.352,8.352,0,0,1-.045-1c0-.5.688-.969.6-.514a10.887,10.887,0,0,1-.448,1.466,97,97,0,0,1,9.784-3.6,1.921,1.921,0,0,1-.01-.341c-.491-.392-.25-1.386.468-1.91-2.314.68-4.479,1.414-6.532,2.186.274,1.131-.808,1.606-1.677.65-1.889.749-3.691,1.527-5.443,2.318,1.288.546,2.346,1.267,1.756.991.223.823-1.506.175-2.972-.434-1.6.738-3.164,1.485-4.721,2.228q-1.267.606-2.55,1.212A8.944,8.944,0,0,1,46.143,86.2c.367-.174.737-.348,1.1-.522m295.5-7.765q0-.54.031-1.106c-.63-.186-1.231-.384-1.844-.578a10.308,10.308,0,0,1,1.813,1.684M217.769,106.7a.2.2,0,0,1-.057-.038,2.454,2.454,0,0,1-.5-.451,98.287,98.287,0,0,1-16.684,3.4c.245.212.278.54-.1.974a4.863,4.863,0,0,1-1.191,1.016,41.168,41.168,0,0,0,5.9-2.165c.415-.38.574.3.353,1.506h0a97.644,97.644,0,0,0,10.6-2.316c-1.554.083-3.3.145-5.2.169,4.735-.52,10.24-.927,5.962-1.355.978-.013,1.8-.013,2.518-.005l.022-.01a6.5,6.5,0,0,1-1.617-.726M78.528,96.442a1.668,1.668,0,0,0-.364-.806q3-.5,6.335-.874a8.072,8.072,0,0,0,2.685.532,5.709,5.709,0,0,0-.829-.725c2.538-.245,5.223-.433,8.089-.549.609-.024,1.206-.044,1.8-.061-.563,1.119-1.224,1.737-2.661.487a5.762,5.762,0,0,0,.715,1.595c-4.768.2-9.031.6-12.919,1.145-.647-1.414-1.5-1.117-1.635.061a2.616,2.616,0,0,0-.615-.382c.75-.411,1.149-.762.508-.759-.594,0-.911.067-.7.142.076.029-.109.1-.4.194m5.769-.331c-1.58-1.222-.149.991,0,0M66.88,76.3c-.366.611-.532,1.464-.914,1.639l.07.085c.969-.29,1.96-.571,2.983-.84a1.71,1.71,0,0,1-.38-.3c-.62-.7-.239-.923.848-.495.364.142.8.263,1.194.379,1.013-.246,2.05-.482,3.122-.7a2.756,2.756,0,0,1,.071-.421.734.734,0,0,1,.1-.408c.1-.455.167-.97.256-1.323-2.563.507-4.949,1.083-7.191,1.712.088.109.048.335-.155.678M111.3,73.279a42.042,42.042,0,0,0,4.978-.506c2.077.312,4.04.677,5.911,1.084a1.852,1.852,0,0,0,.2,1.657,2.589,2.589,0,0,1,.458.558,92.644,92.644,0,0,0-12.462-1.979.249.249,0,0,0-.008-.213c.288-.169.618-.38.928-.6m4.812.146c-.062.022-.088.06-.149.083.447.08.377.017.149-.083m-21.6,66.819c0-.013,0-.022,0-.035-.043-.046-.088-.085-.131-.126q-.04.325-.078.614l.571-.028a4.147,4.147,0,0,0-.342-.437Zm-.381-.353c-.441-.272-.944-.233-1.59.349A3.86,3.86,0,0,1,93,138.757c-4.468.276-8.494.727-12.165,1.314-.351.9-1.108,1.538-1.558.932-.142-.191-.26-.366-.359-.525a6.486,6.486,0,0,1-.6.547c-.23.185-.553.46-.9.757l.718.8c2.52-.479,5.207-.894,8.111-1.224.076-.339.236-.528.491-.427.3-.233.806-.271,1.507.219l.008.007q1.23-.121,2.505-.223c.127-.31.459-.495.984-.077q1.176-.085,2.391-.153a4.546,4.546,0,0,0-.006-.814m15.15-23.471c-.279-.018-.558-.035-.843-.051a.709.709,0,0,0,.843.051m132.1-20.413c-.424.194-.85.388-1.268.583.679.05,1.34.118,1.993.2.13-.263-.059-.522-.725-.787M197.971,109.9c-2.61.259-5.385.454-8.349.574-1.469.059-2.882.091-4.265.108-.937.593-1.979,1.248-2.949,1.864l.073.025.33.128c2.191.013,4.476-.019,6.892-.117q1.068-.043,2.1-.1a1.725,1.725,0,0,1,.768-.465,11.153,11.153,0,0,1,1.794-.32,4.857,4.857,0,0,1-1.166.7q2.453-.154,4.734-.378c-.828-.165-1.03-1.187.036-2.022m-75.145,9.7c-.131-.51-.249-1.008-.349-1.484a114.824,114.824,0,0,1,19.093,5.813c-.254.433-.352.692-.155.438-.035,1.179.634.758,1.369.025l.547.209c1.871.715,3.757,1.432,5.693,2.132-2.524-.112-4.935-.262-6.659-.4a.1.1,0,0,0-.026-.1c-.387-.312-3.14-1.707-3.783-2.165-.222-.158-.54.116-.823.571-3.056-1.121-6.238-2.2-9.717-3.145-.619-1.173-2.15-1.68-3.013-.763-.655-.154-1.319-.3-2-.446-.046-.169-.089-.337-.133-.5.142-.008.294-.017.469-.029,1.894-.124,3.942-.057,3.46-.23a14.533,14.533,0,0,0-3.975.08m13.947,4.126c.67.241,1.209.341,1.2.222a4.1,4.1,0,0,0-1.609-1.029c-.863-.344-.259.566.411.807M95.6,139.442a4.792,4.792,0,0,1,.4,1.171l.236-.011c.018-.456.034-.915.049-1.374-.032-.068-.064-.138-.1-.213Zm15.213,22.007c.528-.154,1.03-.323,1.289-.376q2.339.169,4.507.422c-.441.522-1.009,1.154-1.654,1.836q-1.189-.12-2.429-.218c.4-.993.5-1.565-.276-.022-.843-.064-1.7-.121-2.582-.167.691-.546,1.182-1.125,1.146-1.475m3.155,1.247c2.219,2.053.181-1.686,0,0m-1.247-1.031c.165.439,1.153-.255.422-.3-.3-.018-.49.116-.422.3M79.782,75c.3-.045.619-.084.925-.126-.134-.335-.008-.789.582-1.285-.062-.1-.128-.183-.176-.163-.212.085-.109-.5.532-.087.753-.418,1.389.363,1.355,1.02q.715.012,1.307.072c1.906-.206,3.892-.379,5.989-.51a10.981,10.981,0,0,1-.545-1.983c-3.906.253-7.469.642-10.758,1.137.083.58.21,1.235.372,1.937-.092-.774-.031-1.247.418-.012M77.134,97.866c-.006-.033-.012-.059-.019-.092-.193.073-.377.14-.548.194.187-.035.38-.068.567-.1m40.645-2.7c.387.061.773.123,1.152.187-.129.092-.14.186.072.266a2.343,2.343,0,0,0,.9-.094c.54.1,1.075.2,1.6.3.124.609.285.468.415.083,1.594.325,3.115.684,4.59,1.064a3.211,3.211,0,0,0-.187.612,1.565,1.565,0,0,1,1.192-.345l.166.046c.718.255,1.228,1.219,1.9,2.107a3.53,3.53,0,0,0,.065-.813c.091.219.951.329,3.172.245,3.361,1.1,6.5,2.3,9.609,3.489q1.632.625,3.288,1.247c.012.053.024.1.038.151-1.011.411-1.928.788-2.538,1.054l-1.5-.573c-7.339-2.806-14.857-5.662-25.194-7.174a7.644,7.644,0,0,0,.918-.973c.013-.018.019-.028.032-.045a.624.624,0,0,0,.228.2c.357.172.113-.413.079-1.035m2.859,2.371a25.941,25.941,0,0,0,3.988-.836c-1.368.2-2.631.506-3.988.836m-91.01,15.934c.7.865,1.174,1.728.816,1.313a1.754,1.754,0,0,1-.013.539c1.17-.372,2.29-.762,3.391-1.158-.547-.406-1.233-.893-2-1.42-.717.247-1.445.49-2.191.726m299.8-39.21c-3.716-1.421-7.478-2.853-11.627-4.119a4.072,4.072,0,0,0-.013-1,7.174,7.174,0,0,0,1.461-.456c.082-.034.148-.077.226-.114,3.8,1.2,7.308,2.524,10.761,3.845,1.973.754,3.96,1.511,6.01,2.244-.558.555-3.49.721-3.786.236a3.115,3.115,0,0,0-3.03-.637m-1.169-1.366c-.127-.05-.326-.051-.462-.1-.256.524.037.408.462.1M66.672,165.98c-.645.213-1.3.423-1.921.644.068.409.076.835.1,1.26l.037-.008a2.391,2.391,0,0,1,1.225-.533,1.719,1.719,0,0,0,.555-1.363m42.16-69.791c2.47.17,4.774.42,6.965.723a5.589,5.589,0,0,1,1.528-1.278,1.689,1.689,0,0,1,0-.545q-1.75-.265-3.614-.478c-.133.083-.265.165-.4.25-2.093,1.314-2.247.668-1.652-.463q-1.584-.15-3.255-.256a1.437,1.437,0,0,0,.427,2.047m34.681-14.027c.4.357-1.311-1.741-1.66-.794.177,0,.272.019.243.052.136.006.119.03-.126.08.466.339,1.685,1.482,1.543.662M98.728,95.067a5.826,5.826,0,0,1-.286-1.157c3.431-.049,6.608.027,9.572.206-1.115.414-1.315,1.248-.93,1.978-.648-.035-1.3-.069-1.963-.094.062-.846-.163-1.235-.607-.881a13.378,13.378,0,0,1-2.032.812c-.094,0-.181-.006-.276-.007.294-1.531-.3-1.2-1.063-.212a.619.619,0,0,0-.144-.325c-.722-.817-2.089-.807-2.272-.32M103.2,95c.2.769,1.185-.489.422-.538A.4.4,0,0,0,103.2,95m214.314-27.05c.015.044.022.084.036.128.028-.03.051-.062.078-.092l-.114-.036M174.95,110.289c-.339-.025-.672-.052-1-.079.372.316.177.24-.25-.02-2.076-.174-4.043-.4-5.916-.673-.121.454-.244.895-.32,1.327a7.493,7.493,0,0,0,.123-1.355,90.019,90.019,0,0,1-10.422-2.163c.2.308-.79.886-2.265,1.148l-.655.117a92.834,92.834,0,0,0,18.106,3.5c-.04-.05-.047-.081-.006-.084a.974.974,0,0,1,.412.121q1.167.106,2.381.19a2.077,2.077,0,0,1-.184-2.029M97.017,95.96c.3-.006.609-.019.9-.023a8.308,8.308,0,0,1,.231-2.021l-.781.016a4.336,4.336,0,0,1-.354,2.028M76.12,74.014c-.088.338,1.275.481,2.358.772.033-.575.075-1.13.121-1.648-1.337.207-2.624.432-3.873.673a1.886,1.886,0,0,1,.158.56c.828-.635,1.356-.814,1.236-.357m348.669,64.165c-.059.01-.153.021-.219.031.173.059.348.116.512.18l.454-.216-.747.005M99.677,117.528a8.73,8.73,0,0,1-1.368-1.312l-.365.007c.4.334.983.789,1.563,1.238a.345.345,0,0,1,.17.067M385.728,79.991c-.268.026-.546.049-.818.074.1.089.222.2.361.341a3.651,3.651,0,0,1,.457-.415M27.988,113.969a95.234,95.234,0,0,1-12.213,2.707c.033.068.065.134.1.2,1.038-.188,2.332-.369,3.4-.528l.01,0c1.2-.178,2.095-.33,1.957-.434-.4-.3,1.447-.211,4.1.2a2.764,2.764,0,0,1,.354.08,1.041,1.041,0,0,1,.157-.152l.493.475c1.183-.316,2.321-.648,3.432-.992a9.54,9.54,0,0,1-1.787-1.562m384.195,5.117c-1.431.529-2.94,1.029-4.493,1.513-.017.776-.049,1.5-.107,2.137,2.983-.906,5.746-1.892,8.323-2.941a35.2,35.2,0,0,1-3.723-.708m-20.36-37.817c.7-.1,1.38-.213,2.053-.326a2.1,2.1,0,0,0-.362-1.414c-.685.391-1.1.248-1.179-.383-.72.113-1.431.23-2.18.332a1.927,1.927,0,0,1-.044,1.046c.879.21,1.632.394,1.848.478.095.037.027.134-.136.267m-9.276,1.019c.223-.017.432-.039.652-.056a2.712,2.712,0,0,1,1.6-1.2,3.564,3.564,0,0,1,.285-.4c-.175-.2-.327-.39-.434-.541-.6.053-1.18.113-1.793.16a2.59,2.59,0,0,0-.306,2.039M33.216,112.246a149.238,149.238,0,0,0,14.06-6.1l.394-.187a7.85,7.85,0,0,1-.12,1.008c.062-.351.155-.707.252-1.072A132.585,132.585,0,0,1,64.138,99.06c.344.2.646.277.837.128a.606.606,0,0,0,.246-.481c.717-.225,1.453-.445,2.2-.659a4.019,4.019,0,0,0-.123,2.136c-1.6.475-3.134.978-4.607,1.5a3.183,3.183,0,0,0-.4-.075,4.888,4.888,0,0,1-1.137.274c.563-.027.938-.053,1.193-.078-1.368.492-2.683,1-3.962,1.524.179-.713.116-.669-.134.056-1.772.726-3.473,1.474-5.132,2.234a8.062,8.062,0,0,0-1.772-1.185,5.972,5.972,0,0,0,1.537,1.294c-1.609.74-3.181,1.489-4.743,2.235-2.673,1.278-5.375,2.562-8.244,3.8-.08-.124-.168-.249-.269-.376l-.978.9q-1.236.516-2.519,1.015c-.879-.367-1.96-.758-2.916-1.052m27.707-10.874c.292.2,1.382-.5,1.818-.85,1.283-1.02-2.285.531-1.818.85m-1.708,1.356c.206-.338.924-1.3.463-1.325s-.836.175-.833.438-.073.893-.171.811c-.195-.164.028.922.541.076m-3.145,1c.047-.456-.215-.812-.582-.79-.894.053.468,1.9.582.79M42.747,85.992a.558.558,0,0,1-.1.03c-.007.032-.014.067-.021.1-.3,1.179-.385,1.314-.2.3a1.513,1.513,0,0,0,0-.39.328.328,0,0,1-.209-.2l-.411.189a1.828,1.828,0,0,1,.57.551c.01.091-.3.019-.695-.161a.936.936,0,0,1-.272-.206q-1.632.748-3.328,1.478A3.978,3.978,0,0,1,40.2,88.938l.057,0c1.449-.643,2.855-1.3,4.249-1.955-.008-.045-.012-.087-.017-.131-.221-.267-.45-.541-.693-.826a2.27,2.27,0,0,1-.465-.711l-.06.028c.372.351-.163.493-.525.653M4.911,164.557a1.946,1.946,0,0,0-.5-.344,4.229,4.229,0,0,0-.491-.7c-.183-.234-.445-.555-.716-.884a124.1,124.1,0,0,0,17.219-1.87c.017.241.038.492.065.751a1.93,1.93,0,0,0,.584,1.174,123.249,123.249,0,0,1-16.157,1.877m7.421-1.316a1.618,1.618,0,0,0-.982-.55c-.416.238,1.214.955.982.55m13.63-46.614.031-.008-.023-.006c0,.005,0,.009-.008.014m368.8-35.839c2.236-.395,4.34-.842,6.332-1.331a.783.783,0,0,1,.072-.325c-1.185-.024-2.623-.052-2.386-.425a2.241,2.241,0,0,1,1.143-.822c0-.018-.017-.031-.018-.05a.507.507,0,0,1,.022-.171c-1.733.408-3.542.787-5.453,1.127a5.427,5.427,0,0,1-.937.724c.367.409.872.816,1.226,1.273M427.47,69.119c.613-.288,1.237-.574,1.858-.861-.209-.233-.215-.487.13-.718l.043-.027c-.479-.206-.681-.4-.318-.555a4.153,4.153,0,0,1,1.782-.219c.122-.031.2-.026.228.018a7.694,7.694,0,0,1,1.091.167q2.611-1.14,5.456-2.2-.244-.7-.516-1.455c-.664.076-1.312.145-1.862.194-2.19.866-4.262,1.772-6.276,2.692-.071.963-.956,1.957-1.616,2.967m-23.263,8.62a1.954,1.954,0,0,1,.772.334l.524.18c2.447-.733,4.742-1.523,6.905-2.357l.1-.175c.046.03.084.059.126.089q1.231-.48,2.416-.975c-.035-.131-3.545-.141-4.668-.319-1.4.517-2.878,1-4.4,1.478.284.173.312.362-.261.55a3.323,3.323,0,0,1-.819.132c.37.049.384.106-.294.168.108.17-.084.5-.407.9M99.916,117.776l.063-.02c-.086-.06-.166-.123-.247-.186a.525.525,0,0,1,.066.115l.118.091m-23-20.939a5.781,5.781,0,0,0-.236-.883c-.011-.021,0-.032-.009-.052l-.093.017q-.013.531-.036,1.035a1.557,1.557,0,0,1,.276-.1l.1-.02m209.71-8.511a1.421,1.421,0,0,1,.248-.466,3.735,3.735,0,0,0,.247-1.558c-1.291.018-2.607.05-3.972.1a126.437,126.437,0,0,0-18.307,1.979c-.639.786-1.989,1.673-2.643,1.58-.719-.1-.94-.469-.648-.906q-3.511.783-6.609,1.721c1.565.717,2.74,1.61.514,1.026-.506-.133-1.221-.354-1.87-.6-1.131.361-2.234.732-3.3,1.116a19.213,19.213,0,0,1,2.081,1.4c7.859-2.693,17.429-4.77,30.863-5.312,1.167-.047,2.284-.07,3.4-.09m-250.006.5c-.4.051-.384-.168-.027-.524-.834.344-1.668.688-2.535,1.021.568-.039,1.144-.07,1.72-.108a.32.32,0,0,1,.473-.029l.856-.054c-.18-.2-.342-.324-.486-.306m201.82,9.823a16.82,16.82,0,0,0,2.768-.355c-1.471.682-2.912,1.371-4.347,2.057l-1.412.674a3.325,3.325,0,0,0-.7-.45c-.811-.4-.938-.1-.282.653.058.068.113.122.169.181q-1.209.573-2.438,1.142a2,2,0,0,0-.988-.868c-.533-.111-.091.738.4,1.138-1.058.484-2.131.965-3.229,1.437a1.33,1.33,0,0,0-.7-.583c-.373-.068-.044.512.3.748-1.609.685-3.268,1.353-5.013,1.993a7.049,7.049,0,0,0-.974.139,8.276,8.276,0,0,0-1.2-1.5c3.42-1.186,6.521-2.487,9.475-3.828.019,0,.037,0,.057-.009l-.015-.011c1.935-.879,3.81-1.774,5.674-2.664,1.331-.637,2.669-1.275,4.029-1.909.675.1,1.34.19,2.008.267-.425.541-2.088,1.1-3.591,1.754m-10.629,3.724c.148,0,.255.018.383.026.678-.166.978-.271-.383-.026m21.891-9.831c-2.944,1.086-5.666,2.248-8.277,3.441,2.456-.107,3.251.341,2.9.9,2.448-1.074,5.016-2.112,7.8-3.072-.122-.055-.263-.122-.442-.213-.493-.25-1.243-.65-1.974-1.059M111.912,72.8c.484-.116,1-.252,1.53-.4q-.535-.064-1.081-.124a1.856,1.856,0,0,1-.449.526m-14.69,90.085c.2-.008.382-.011.576-.018-.133-.195-.271-.386-.4-.589.206.166.442.369.668.58,3-.1,5.822-.117,8.472-.049a6.1,6.1,0,0,1,1.529-1.342c-1.777.187-3.778.108-2.664-.455.145-.073.29-.153.436-.232-.375-.007-.762-.009-1.152-.01.134.321.08.539-.346.291-.151-.088-.294-.188-.436-.291h-.494a3.778,3.778,0,0,1,.37.356c.441.547-1.414.666-3.348.61.251.2.053.149-.311-.012a21.235,21.235,0,0,1-3.322-.325,10.506,10.506,0,0,1,.23,1.495c.064,0,.126-.006.19-.009m-59.7-73.065-.964,0a4.569,4.569,0,0,1,.118.467,1.122,1.122,0,0,0-.149.236c.348-.141.688-.284,1.031-.427a.835.835,0,0,1-.036-.278M402.619,77.531c.306-.248.6-.468.833-.622-.192.006-.384.012-.586.016q-.924.252-1.885.49a1.9,1.9,0,0,1,.385.157,9.239,9.239,0,0,1,1.253-.041M111.794,72.209a10.182,10.182,0,0,0-.739.775,8.052,8.052,0,0,1-1.292.177H109.7a.227.227,0,0,0-.135-.106.842.842,0,0,0-.462.119c-.906.024-.934.056-.148.084a1.317,1.317,0,0,0-.554.644c-.007.009-.018.018-.026.028q-.793-.058-1.608-.106a.3.3,0,0,0,0-.169c.749.394-2.505-1.951-3.167-.849.3.071,1.391.664,2.212.967-2.793-.139-5.78-.184-8.986-.122.077-.1-.157-.259-.54-.413.471-.332,0-.5-.589-.2a3.737,3.737,0,0,0-2.045-.148c-.853.384-1.506.3-1.452-.181.028-.248-.174-.317-.4-.271.026-.191.049-.395.072-.613.56-.028,1.095-.067,1.669-.09a127.01,127.01,0,0,1,18.249.473m-17.907.5a5.873,5.873,0,0,0-.791-.835c-.343.042.35.557.791.835m-18.7,25.521c.616-1.5.777-1.622.338-.2a.9.9,0,0,0-.018.134c.069-.013.136-.028.2-.042-.037-.011-.062-.029-.064-.06a.953.953,0,0,1,.216-.607c-.06-.444-.127-.9-.207-1.376-1.244.24-2.435.5-3.6.769.981.536,2,1.087,2.671,1.475.153-.032.3-.063.458-.093m333.782.5c-.754-.006-1.464-.037-2.095-.1a3.427,3.427,0,0,1,1.209.538,1.7,1.7,0,0,1,.886-.435M261.145,156.671a92.149,92.149,0,0,0-9.344,2.945c1.667.047,3.6.088,5.6.118a21.7,21.7,0,0,1,2.286-.887c.394-.121.294.087,0,.3q.948-.264,1.925-.518a18.91,18.91,0,0,1-.421-1.964c-.018,0-.03.007-.049.011l.009-.008m-257-38.1a6.576,6.576,0,0,1,.85,1.3c.256-.017.518-.031.771-.05a1.429,1.429,0,0,1,1.564-.134c.35-.03.687-.063,1.031-.094-.019-.129-.026-.268-.04-.4-.014.071-.02.141-.041.214a10.938,10.938,0,0,0-1.64-1.673c-1.007.082-2.041.153-3.1.216.033.107.064.209.1.314a.773.773,0,0,1,.5.3m1.274,67.961c-.015-.006,0-.042.032-.088l-1.32-.053c.533-.075,1.045-.132,1.486-.148.477-.519,1.7-1.527,2.272-1.168a.479.479,0,0,1,.276.553c.056-.017.112-.035.169-.05-.171-.291-.341-.6-.5-.9-1.385.095-2.756.2-4.231.256l.082,2.008c.532-.021,1.044-.051,1.564-.078.145-.191.216-.317.174-.336m2.361-.428a1.183,1.183,0,0,1-.437.2c-.17.03-.293.227-.351.461.688-.044,1.374-.088,2.044-.139a4.35,4.35,0,0,1-.327-.442,6.053,6.053,0,0,0-.929-.084m249.888-26.365.161-.047c-.131.021-.235.036-.314.045l.153,0M83.538,164.107l.126-.018c.458-.379.988-.8,1.494-1.2-.088-.279-.171-.618-.239-.927l-.194-.043c-.126.017-.257.031-.382.049a3.617,3.617,0,0,1-.8,2.137m140.448-12.846c1.829-.652,3.564-1.337,5.243-2.04a27.961,27.961,0,0,1-5.44.641c.056.517.13,1.087.2,1.4m62.992,1.969c-.381.012-.74.014-1.128.03-.364.014-.691.044-1.049.061.584,1.037,1.246,1.3,2.176-.091m-17.5-18.707.588-.094a.732.732,0,0,0,0-.506c-.2-.335-.468.138-.591.6m-235.15,1.612c-.016.164-.035.327-.06.488q.882-.313,1.738-.636c-.063-.058-.027-.059.066-.025l.172-.064c-.188-.186-.376-.377-.557-.557a8.326,8.326,0,0,1-1.359.794m232-25.18c.116-.106.357-.291.67-.52a93.038,93.038,0,0,0-15.632,4.108,3.154,3.154,0,0,1-.391,2.3c2.27-.844,4.682-1.638,7.282-2.361-.052-.227-.1-.444-.131-.614-.264-1.333.6-.7.87.408a96.7,96.7,0,0,1,9.61-2.052c-1.373-.48-2.611-.967-2.277-1.273m17.379,44.435a114.435,114.435,0,0,0-20.124,2.74,18.465,18.465,0,0,0,.247-2.109c2.245-.513,4.609-.98,7.164-1.373-.008.018-.033.036-.032.055.009.209,2.514-.256,3.389-.4.695-.112.866-.181.826-.225,2.505-.293,5.216-.5,8.052-.668a11.143,11.143,0,0,0,.478,1.978m-7.622.239c-1.366.252-1.454.351-.01.037.595-.129.574-.141.01-.037M1.847,118.04c-.315.015-.626.032-.947.045l0,.071a11.465,11.465,0,0,1,1.032.9c-.039-.32-.068-.659-.088-1.013M79.778,163.45c.2-.13.84.454,1.448,1.018q1-.166,2.031-.32a.363.363,0,0,1-.062-.117c-.109-.323-.109-.494,0-.381.044.045.079-.072.107-.248-.042-.022-.082-.042-.131-.072a.439.439,0,0,0,.075-.081c.035.029.042.038.068.061a6.044,6.044,0,0,0,.045-.8.54.54,0,0,1,.23-.434,102.159,102.159,0,0,0-10.341,2,10.434,10.434,0,0,0-1.592,2.487l.181-.048c.1-.18.2-.36.31-.537.051.145.078.281.118.422,1.833-.49,3.761-.944,5.806-1.354.7-.678,1.474-1.444,1.71-1.6m83.462-32.607a.427.427,0,0,1,.1.115c.117.209.321.527.533.849.226-.182.532-.41.882-.661-.512-.1-1.014-.2-1.513-.3m310.413-7.48c-.736.029-1.458.064-2.171.1a7.07,7.07,0,0,1-4.029.276c-3.681.3-7.053.729-10.17,1.253-.394.68-.686.969-.594.106a93.318,93.318,0,0,0-19.237,5.459,1.547,1.547,0,0,1,0,.564c-.3-.076-.566-.156-.8-.238-3.594,1.476-6.9,3.047-10.159,4.607-1.449.693-2.905,1.389-4.391,2.077.107.018.241.047.365.072,2.213.031,3.4.166,3.043.358l.461-.031q.7-.33,1.389-.662l.142-.067c-1.231.125-.22-.34,1.127-.537q2.082-.993,4.234-1.974l-2.959-.409a32.3,32.3,0,0,1,3.951-.039c1.558-.7,3.147-1.384,4.816-2.045-.433-.212-.643-.4-.364-.5a3.078,3.078,0,0,1,1.433.09,92.136,92.136,0,0,1,19.2-5.051c-.215-.282-.111-.392.588-.088,1.475-.221,3-.423,4.592-.6h0c2.981-.326,6.155-.578,9.611-.717ZM29.837,158.5c-.154.045-.3.093-.456.138a2.575,2.575,0,0,1,.7,1.888c.425-.124.889-.233,1.3-.36-.33-.155-.228-.3.75-.424.108-.013.24-.017.36-.026a.761.761,0,0,1-.177-.386,2.949,2.949,0,0,1,.087-.765,5.063,5.063,0,0,1,.428,1.126l.033,0a1.632,1.632,0,0,1,1.274-1.322c.318-.095.625.17.915.581l.6-.216a5.459,5.459,0,0,1-.488-.646,2.5,2.5,0,0,1,1.356.324q1.335-.5,2.616-1.012c-.664-.3-1.633-.783-2.42-1.223-1.469.56-2.992,1.1-4.586,1.617-.042.057-.076.07-.1.032-.626.2-1.269.4-1.92.591a1.669,1.669,0,0,0,.092.315c.7,1.606.514,1.463-.37-.23M124.9,76.57c.31-.4,1.107-1.135,1.562-1.674,2.366.637,4.6,1.334,6.741,2.065a28.857,28.857,0,0,0-4.694.61c-1.169-.349-2.368-.684-3.609-1M129.688,76c-.073.051-.1.138-.174.193.549.156.459.018.174-.193m174.03,12.4c-1.156.057-2.368.628-2.113.1.4-.839,2.309-.693,2.875-.448a11.983,11.983,0,0,1,1.626-.574,113.015,113.015,0,0,0-17.718-1.19,1.863,1.863,0,0,0-.035.53,7.384,7.384,0,0,1-.255,1.48,114.846,114.846,0,0,1,14.659.771,6.711,6.711,0,0,1,1.019-.672l-.057,0m83.923,13.769c.726-.078,1.448-.158,2.147-.246a4.628,4.628,0,0,0,1.972,0c.008-.093-.6-.13-1.353-.087.542-.071,1.062-.151,1.593-.226a12.289,12.289,0,0,0,2.051,1.731c-.444.072-.885.144-1.339.212-.216-.409-.209-.295-.1.014-3.8.562-7.973.975-12.606,1.21.414-.456,3.736-1.162,3.905-.728s1.811-.421,3.727-1.883m3.231,1.035c1.882.825.292-.149-.677-.416-.4-.11-.094.077.677.416m-357.378,33.3c.02.12.04.241.057.364-2.273.788-4.69,1.525-7.3,2.189a1.284,1.284,0,0,0-.729-.749c-.336-.143-.524.524-.678,1.094l-.4.1.26-.46c-.726.032-.8.26-.643.551-3.051.7-6.373,1.3-10.017,1.772.081-.39-.134-.607-.964.124-3.428.416-7.138.721-11.206.885L1.8,140.369c.626-.025,1.231-.059,1.841-.09a.762.762,0,0,0,.122,1c.239.169.7-.491.8-1.051A102.941,102.941,0,0,0,32.5,135.108c-.327.362-.7.76-1.108,1.179-1.267,1.3.42.928,2.1.225M6.514,141c-.076-.414-.092-.4-.041-.01.123.947.226,1.019.041.01m240.154,22.9c-2.45,1.081-4.79,2.193-7.106,3.3q-2.41,1.152-4.886,2.3c-.178,0-.337,0-.526,0,.166.017.273.034.4.051l-.132.058c-.5.018-.894.035-1.021.046a6.752,6.752,0,0,0,.823.043c-.46.21-.936.415-1.4.624-1.235.14-2.721.287-4.148.446,1.184-.014,2.3-.045,3.341-.087q-1.257.552-2.558,1.089c-.195.017-.688.107-1.378.257-2.389.52-.312.244.887-.057-1.222.5-2.491.982-3.793,1.454-.189-.359-.382-.749-.593-1.127a6.076,6.076,0,0,0,0,1.341c-1.395.495-2.823.977-4.339,1.428-1.148-.3-1.22-.139-.733.208q-3.649,1.051-7.862,1.891a.986.986,0,0,0,.226-1.273c-.6-1.155-2.07-.413-2.473,1.262-.043.176-.043.288-.07.439-1.344.234-2.745.446-4.188.643.09-.129.159-.246.261-.381-.349.152-.628.309-.945.464-2.893.376-5.992.674-9.341.871a4.491,4.491,0,0,0-.586-.861c-.473-.577-1.293.1-1.613.975-.173.007-.336.019-.511.026l-.242.008c-.052-.017-.1-.034-.16-.052-.653-.2-.854-.167-.446.068l.009,0a132.067,132.067,0,0,1-13.688-.193,1.731,1.731,0,0,1-.16-.077c-.048-.035-.1-.068-.146-.1a.733.733,0,0,0,.209-.269c.048-.131-.024-.185-.15-.187.589-.434,2.3-.849,2.132-1.262,3.81.2,7.96.239,12.561.053a120.719,120.719,0,0,0,20.206-2.377c.65.192,1.153.207,1.225-.269,10.407-2.343,17.755-5.853,24.944-9.289,2.392-1.144,4.844-2.282,7.377-3.4,4.326-.381,4.733-.792,2.728-.986,1.421.035,3.255,0,5.337-.093-2.141.759-4.134,1.571-6.074,2.4-1.985-.025-5.349.293-3.4.473.711.065,1.38.1,2,.118m-60.309,15.068a1.576,1.576,0,0,0,.7.23c.295-.082-.856-.395-.7-.23m8.568-1.1c-.58.511.266.81.838,1.113,1.364.724.59-2.367-.838-1.113m15.544-45.383q1.6-.327,3.11-.687a4.986,4.986,0,0,1,1.17-1.679c.135-.3.268-.555.4-.793a97.2,97.2,0,0,1-9.6,2,3.272,3.272,0,0,1-.565.471c-.018.577-.043,1.136-.072,1.655,1.075-.161,2.128-.33,3.146-.512-1.371-.383,4.05-1.571,3.031-1.267,1.96-.121.662.376-.621.811M471.862,79.017a4.2,4.2,0,0,1-.388-.176c.009-.011.018-.019.027-.03-2.865.123-5.546.318-8.085.569.025.554.047,1.1.041,1.606.932-.128,1.861-.261,1.833-.252-.044.014-.171.05-.183.05s-.021,0-.02,0-.141.064-.314.129.206.027.244.031a.309.309,0,0,1,.18.143.463.463,0,0,0,.469.107c.146-.081-.538-.266-.547-.3-.041-.143-.6-.133,3.087-.042a10.03,10.03,0,0,1,1.117.085c.864-.05,1.714-.106,2.612-.142ZM446.7,61.577q-.178.213-.336.408c.159-.041.312-.085.472-.127-.042-.089-.093-.19-.136-.281M154.418,107.131a5.6,5.6,0,0,0,1.325.018,5.879,5.879,0,0,1,.671-.022c-.69-.192-1.359-.394-2.027-.6a3.669,3.669,0,0,1,.031.6m96.542,7.558c-5.18,1.887-9.652,4.022-14.064,6.131l-1.54.734c.495.042,2.489.472,2.01.828a1.618,1.618,0,0,1-1.651-.031c-.142-.179-1.706-.038-1.754.2-.039.192-.362.166-.785.029a110.114,110.114,0,0,1-14.348,5.682,2.149,2.149,0,0,1,.548.988c.246.249.488.5.726.733.931-.3,1.835-.6,2.721-.917l-.034-.011c-.673-.25-1.283-1.2-.415-.84a6.633,6.633,0,0,1,1.138.6c.693-.251,1.378-.5,2.048-.764.841-1.664,2.3-3.127,3.15-2.721.356.17.982.416,1.737.7q1.09-.48,2.154-.967c-.256-.028-.514-.057-.769-.09a16.7,16.7,0,0,1,1.828-.394c1.386-.645,2.747-1.295,4.1-1.942,3.184-1.523,6.4-3.058,9.9-4.5.01-.913.851-2.016,3.292-3.445m53.356,16.9a123.244,123.244,0,0,0-18.1-.646,1.81,1.81,0,0,1-1.73.059c-2.819.122-5.467.312-7.968.559.111.513-.438,1.4-1.349,2.176,3.05-.345,6.309-.608,9.868-.752,3.34-.135,6.437-.149,9.345-.072-.56-.865-.228-1.273.768-.9a1.8,1.8,0,0,1,.95.961c2.99.121,5.776.343,8.377.653a7.437,7.437,0,0,1-.156-2.034m47.311,35.745c-.046-.01-.089-.022-.135-.033l-.015.016c.05.006.1.012.15.017M308.3,112.021c.455.077.9.16,1.345.242.324-.191.7-.417,1.125-.686a17.4,17.4,0,0,0-2.469.444m50.926,36.219c-.177-.044-.058-.115.214-.2.467-.427.968-.866,1.367-1.24a90.792,90.792,0,0,1-15.5-3.191,10.376,10.376,0,0,1-1.765.495c-3.465.024-.023-.557,1.352-.617-4.277-1.293-8.143-2.764-11.959-4.224q-1.813-.693-3.654-1.384c-.8.057-1.752.119-2.283.144a16.211,16.211,0,0,1-3.143-.191,42.316,42.316,0,0,1,5.042-.1c-2.734-1.016-5.563-2-8.594-2.9-.729.065-1.3.071-.386-.115-2.349-.686-4.835-1.312-7.5-1.855-.01.031-.018.068-.028.1h0c-.157.456-.364.648-.512-.055a21.708,21.708,0,0,1-3.511-.557,33.444,33.444,0,0,1,3.5.518c-.007-.035-.013-.082-.02-.119-2.02-.4-4.145-.747-6.4-1.031a13.3,13.3,0,0,1-.393,1.974,90.222,90.222,0,0,1,12.272,2.389c1.226.092,2.03.137,2.1.113.134-.048,5.115.391,4.03.66a7.858,7.858,0,0,1-3.2-.076,2.822,2.822,0,0,0-.688-.067c3.255.959,6.27,2.023,9.188,3.115,1.8-.149,3.081-.267,3.3-.307.786-.143,1,.1.479.533a1.5,1.5,0,0,1-.513.129,9.21,9.21,0,0,1,2.121.414c.7.2.58.717.011,1.282q.531.2,1.067.4c.031-.029.061-.054.092-.083,1.486-1.352,1.612-.712,1.156.547a100.1,100.1,0,0,0,22.408,5.826c.111-.108.229-.22.352-.335m-7.985,19.313h0l0,0,0,0M.98,120.093c.15-.006.291-.015.439-.022-.141-.067-.292-.149-.449-.243Zm422.887,18.869a5.457,5.457,0,0,1-1.587-.428c-.036-.021-.057-.038-.091-.059-.711.063-1.543.126-2.511.191-9.55,4.248-20.779,8-39.556,8.76a129.2,129.2,0,0,1-15.134-.217,4.4,4.4,0,0,0,.55.533,1.748,1.748,0,0,1,.455,1.543c.9.061,1.809.117,2.751.157-1.085-.169-1.273-.452-.046-.634,1.718-.255,2.3.206,3.668.443.765.133.808.236.292.292,1.5.016,3.063,0,4.671-.032-.315-.872-.507-2.514.414-.589l1.643.191a3.372,3.372,0,0,1-1.566.1c-.006.116-.017.194-.027.281.8-.02,1.582-.031,2.409-.064a129.179,129.179,0,0,0,16.76-1.7c-.184-.962.26-.822.917-.156a94.129,94.129,0,0,0,9.865-2.329c-1.763-.222,1.711-2.563,1.138-2.044,1.564-.338-.741,1.58-1.031,2.013,2.223-.657,4.317-1.363,6.3-2.107a13.641,13.641,0,0,1-3.053.295c-.008-.182.56-.36,1.262-.4a21.375,21.375,0,0,0,2.181-.182c-.158-.021.153-.043.476-.045,3.143-1.213,6.046-2.507,8.851-3.823M65.7,123.247c-3.2,1.048-6.111,2.2-8.867,3.4-.093-.054-.181-.1-.243-.13-.157-.072-.142.078-.046.255-.568.249-1.127.5-1.683.751-.051-.148-.2-.25-.486-.23-.8.056-.975-.624-.461-1.55L54,125.7a1.207,1.207,0,0,1,.3.143.276.276,0,0,0-.134-.22,108.466,108.466,0,0,1,10.162-4.053,7.768,7.768,0,0,0,1.366,1.677m-7.506.975c-.082.029-.117.081-.2.113.6.108.5.022.2-.113m372.791,31.855a5.181,5.181,0,0,0,1.092,1.709q-1.929.9-3.816,1.8c-11.486,5.492-23.363,11.169-47.156,12.129-14.422.582-24.608-.922-33.053-3.205.68-.164.156-.288-1.268-.348-4.961-1.415-9.344-3.084-13.666-4.737l-1.514-.578a6.408,6.408,0,0,0-.02-1.47c-.178-1.064-.7-.216-1.026,1.074-10.819-4.09-22.65-7.95-43.809-7.208a14.407,14.407,0,0,0,.326-2.02c3.154-.1,6.1-.1,8.871-.018a11.841,11.841,0,0,0-1.145.751c-2.546,1.824.409.26,1.258-.665a.216.216,0,0,0,.049-.081,106.386,106.386,0,0,1,12.833,1.145c-1.355.039-2.808.1-4.438.212,3.526.106,7.5.107,6.874.481-1.121.119-2.224.246-2.073.247s.764-.024,1.491-.059c-.2.048-.429.1-.731.154,1.31-.089,2.34-.18,3.157-.27.428.087.864.171,1.282.262.665,1.011,1.5,1.985,1.885,1.47a1.323,1.323,0,0,0,.214-.983c3.527.857,6.737,1.858,9.787,2.921-.379.008-.723.018-.976.027a21.448,21.448,0,0,0-3.4.42,45.133,45.133,0,0,0,4.9-.27c2.232.789,4.385,1.607,6.52,2.422-.1.195-.21.39-.3.589.162-.176.317-.348.474-.521l.235.089a133.827,133.827,0,0,0,17.273,5.654c-.022.025-.042.049-.064.073-1.055-.092-3.1-.285-3.094-.1.009.21.559.366,1.224.349.413-.012,1.186-.018,1.667-.01-.355.426-.562.718-.44.69a2.643,2.643,0,0,0,.822-.634,2.977,2.977,0,0,0,.978-.11c.487.11.977.218,1.476.322-2.375.6-6.288,1.314,2.133,1.655.772-.633-3.51-.875-1.985-1.626a103.645,103.645,0,0,0,21.064,2c.52.919,1.068,1.608,1.337,1.114a1.965,1.965,0,0,0,.173-1.11c1.495-.015,3.029-.048,4.626-.113l.047,0a6.648,6.648,0,0,0-1.209.45c-.148.126,4.137.591,3.682.091a2.443,2.443,0,0,0-.943-.613c22.33-1.127,33.749-6.58,44.793-11.86q1.779-.85,3.591-1.7m-65.52,14.955c-.612.337-.458.43.343.207,1.945-.541,1.147-1.028-.343-.207m19.435-.469c-.131-.005-.226-.017-.34-.026-.6.155-.869.253.34.026m20.651-3.178c-.976-.068.632.712,1.242.455.176-.074-.65-.413-1.242-.455m3.411-.494a4.6,4.6,0,0,0-2.682-.181c-3.289.728,4.339.619,2.682.181m8.912-2.845a7.289,7.289,0,0,0-3.22-.128c-3.947.688,5.206.5,3.22.128M8.227,117.6l-.125.011a2.141,2.141,0,0,1,.136.318c0-.111-.011-.215-.011-.329m77.482,44.466a2.636,2.636,0,0,1,.033.371c.3-.232.578-.443.8-.608.091-.069.15-.109.226-.164-.336.039-.657.083-.987.124.168.177.125.263-.073.277m-32.778-34.28c-.08-.2-.19.119-.192.317a1.116,1.116,0,0,1-.056.395c-.014.01-.164-.045-.111.077l.206-.1c.072-.195.215-.54.153-.693m104.822,1.742c-1.583-.433-3.1-.892-4.58-1.372a1.685,1.685,0,0,1-1.26-.13c-.175-.112-.321-.214-.453-.311-1.6.118-3.262.218-4.828.279,2.984,1.111,6.094,2.18,9.447,3.143.6-.585,1.218-1.187,1.674-1.61m173.778,10.938c-.066-.1-.044-.175.045-.221-.378.042-.848.083-1.4.123l1.047.4c.228-.123.355-.227.308-.3m-127.143-8.421c.095.523.171,1.009.225,1.451-.316.047-.635.092-.957.137l.019-.021a1.557,1.557,0,0,1-.294-.155c-.051.081-.1.158-.14.231-1.241.167-2.517.32-3.838.455-1.462-.3-2.716-.991-4.237-.882a7.411,7.411,0,0,0,1.335,1.146c-1.884.152-3.84.275-5.9.358-1.917.078-3.741.111-5.5.113a.926.926,0,0,0-.261-.569c-.551-.719-2.138-1.082-2.681-.617s.994.7,1.949,1.135c.045.021.081.033.123.05-1.392-.007-2.736-.036-4.048-.082-.109-.052-.229-.1-.353-.15a8.257,8.257,0,0,0-2.062-1.152,8.575,8.575,0,0,0,.906.795,1.048,1.048,0,0,0-.391-.053,20.4,20.4,0,0,1-3.814-.837c-1.643-.448-1.155.357-.322,1.04-1.471-.126-2.9-.273-4.27-.448-.231-.313-.469-.641-.725-.961a4.28,4.28,0,0,0-.094.846c-.116-.015-.231-.031-.346-.048.34-.178.488-.462-.183-.5-.492-.028-.8.135-.765.367-.185-.027-.368-.057-.552-.086a7.613,7.613,0,0,0-1.878-1.133c-.919-.383-.594.339.026.827-.328-.058-.644-.121-.966-.182.1-.388-.037-.267-.347-.27-.081,0-.147,0-.219,0a.606.606,0,0,0,.062-.071c.015-.022-.089-.255.137-.138s.433.211.442.211a.012.012,0,0,1,.013.013,1.349,1.349,0,0,0,.166.118c.026.017-.288-.444-.627-.953a10.984,10.984,0,0,0,1.308-.772q2.254.411,4.71.728l-.468.4c.9,0,.893-.173.627-.383.43.055.868.106,1.309.156.524.3,1.269.774,1.251.747a1.074,1.074,0,0,0-.092-.118.009.009,0,0,1-.01-.009c0-.006-.075-.156-.165-.316s.088-.088.1-.1a.248.248,0,0,0,.024-.081l.09.008a.951.951,0,0,0-.059.185c.006.352-.218.391,1.237-.074,2.168.195,4.447.336,6.868.407-.109,1.395.207,1.776.808.772a5.378,5.378,0,0,1,.553-.74q1.758.033,3.61.019a.991.991,0,0,0,.335.533c.2.156.479-.117.723-.544,1.215-.018,2.455-.047,3.74-.1,4.775-.193,9.041-.588,12.937-1.127.252.133.462.25.607.339a.534.534,0,0,0,.322.076m-10.133.873c-.72,0-.766.113,0,.049.313-.027.3-.048,0-.049M56.1,170.135c2.583-1.167,5.285-2.3,8.206-3.354.034.42.05.831.058,1.226-.831.195-1.111.7-.991,1.28-.493.188-.96.385-1.441.576-.206-.024-.342.019-.381.152-3.7,1.489-7.1,3.077-10.421,4.665a7.486,7.486,0,0,0-2.172-.372.935.935,0,0,0-.206-.143,3.16,3.16,0,0,0-.083-.4,1.12,1.12,0,0,0,.614-.437l.692-.327c1.136-.543,2.3-1.084,3.456-1.625,2.818-.195,5.9-.671,3.731-.653-.7.006-1.66.064-2.641.141.288-.133.564-.268.854-.4.379-.039.811-.153.724-.33M53.981,172.8c-.67-.525-.769-.392-.663-.168-.011-.008-.017-.015-.029-.023-1.082-.786-2.206-.552-.479.1a1.537,1.537,0,0,0,.681.165c.186.195.435.3.49-.075m-2.7-44.68c.24.123.661.377,1.007.589q-1.255.589-2.491,1.182c-.179-.243-.363-.491-.557-.734a4.205,4.205,0,0,0-.091,1.043l-.107.051c-2.926,1.4-5.9,2.8-9.065,4.144.3-.318.57-.583.737-.722.315-.261-.417-.8-1.376-1.2.54-.23,1.1-.454,1.628-.688a10.258,10.258,0,0,0-.854.9c-.278-.087-.359-.081.141.164a.834.834,0,0,1,.13-.073c-.1-.034-.182-.062-.257-.086a8.378,8.378,0,0,0,1.48-1.013c.289,1.138,1.354,1.736,2.426-.358a1.607,1.607,0,0,0,.175-1.015c.5-.234,1-.466,1.5-.7a1.825,1.825,0,0,0,.272.137c.9.338,1.625.478,1.609.311a3.1,3.1,0,0,0-1.025-.855c.537-.256,1.078-.511,1.612-.766,1.143-.547,2.29-1.095,3.452-1.64.271.292.426.508.3.551-.425.149-1.107.539-.65.772m-2.665,1.335c-.536-.03-.879.163-.762.43.283.647,2.066-.356.762-.43m1.572-1.39-.529.456c1.008,0,.882-.214.529-.456m-13.2,52.8a98.386,98.386,0,0,1-24.964,5.508,4.254,4.254,0,0,0-2.131-.943c-.091-.135-.16-.215-.18-.2a.524.524,0,0,0-.091.184c-.025,0-.049,0-.074,0-.076-.221-.181-.5-.308-.814a99.938,99.938,0,0,0,25.192-4.983c.463.809.937.535,1.113-.39,1.642-.586,3.237-1.189,4.752-1.818a11.172,11.172,0,0,0,2.284,1.221c-.237.1-.478.2-.717.3-.468-.188-.964-.373-1.393-.522.331.228.687.449,1.049.668q-1.327.559-2.715,1.1c.009-.191-.22-.329-.785-.268-.779.086-2.515.332-1.744.718a2.561,2.561,0,0,0,.711.237M24.847,182.8c-.336-.11-.561-.162-.1.047a.573.573,0,0,1,.1-.047M412.883,98.344c2.151-.821,4.177-1.685,6.145-2.564a.818.818,0,0,1-.12-.7c.191.025.35.053.518.081-.17-.519-.331-1.069-.476-1.552-3.1,1.4-6.331,2.77-9.946,4,1.1.256,2.5.477,3.879.738m-18.61,4.97c2.125-.348,4.146-.737,6.052-1.169-.4-.552-.573-1.016-.165-1.139.26.315.493.664.729,1.009q2.888-.673,5.491-1.453a8.349,8.349,0,0,0-.995-1.082,1.526,1.526,0,0,1-.492-.593c-.216.063-.433.124-.651.185.115,0,.221,0,.337,0-.328.063-.659.124-.99.184-2.077.563-4.275,1.08-6.628,1.538a.326.326,0,0,0-.134.209c.041.021.043.043.006.065.043.234.5.486,1.585.769a28.927,28.927,0,0,1-5.061-.413c-.237.037-.491.068-.732.1a11.278,11.278,0,0,1,1.649,1.784M122.142,140.165q-1.62-.3-3.338-.554a8.815,8.815,0,0,0,3.338.554m188.831-28.716c.36-.227.748-.478,1.155-.745-1.944-.411-3.979-.778-6.144-1.085.21.6.5,1.553.631,2.086,1.422-.152,2.764-.244,3.626-.251.271,0,.511,0,.732-.005M66.42,143.472c-.337.108-.685.213-1.016.323.682-.113,1.231-.212,1.619-.292-.206-.009-.407-.018-.6-.031M312.729,112.9q2.221.495,4.284,1.063c1.669-.239,3.412-.441,5.009-.59-2.44-.792-5-1.535-7.751-2.187a2.849,2.849,0,0,1-.822.93l-.087.1c-.217.247-.427.47-.633.681m149.153,35.859a95.613,95.613,0,0,0-29.1,8.706,5.147,5.147,0,0,0-.806-1.848,101.215,101.215,0,0,1,18.866-6.811c.219.359.238.281.132-.034.2-.048.381-.1.58-.148a3.58,3.58,0,0,0,.816-.2,107.329,107.329,0,0,1,11.59-1.96c-.056.033-.111.064-.17.1-1.227.745,3.018,1.77,3.819.116.154-.318-.872-.376-1.649-.434,2.686-.268,5.532-.475,8.587-.6l.081,2.009c-2.426.1-4.7.257-6.887.449-4.317-.9-7.551.03-5.863.65m-17.707,2.57c-.368.008-.6.384-.517.835.2,1.1,1.411-.854.517-.835m-37.705-30.352c-.347.1-.681.21-1.035.31.466.778.787.536,1.035-.31m3.3-21.5c.854-.291,1.7-.587,2.51-.892-.839.087-1.626.13-2.378.15.03.021.068.039.075.072a1.207,1.207,0,0,1-.207.67M306.281,89.452c-.042.031-.077.062-.117.093,2.913.457,5.606,1.018,8.129,1.656l1.007-.72a1.826,1.826,0,0,1-.221.916,143.555,143.555,0,0,1,15.337,5.179q1.557.6,3.133,1.19c.836-.411.908-.18.648.242q.768.286,1.545.571a26.548,26.548,0,0,1,3.211-1c-2.7-.928-5.272-1.906-7.819-2.879A149.466,149.466,0,0,0,316,89.558a.793.793,0,0,1-.295.23c-.609.3-1.225-.336-1.457-.624-.023-.029,0-.043-.011-.067q-2.1-.517-4.36-.96c-.536.568-1.651,1.023-3.6,1.315m37.43-10.282q2.368.66,4.938,1.232c.218-.27.222-.191.129.027A94.863,94.863,0,0,0,360.266,82.2a1.7,1.7,0,0,1,.348-.379,4.722,4.722,0,0,0,1.365-1.5,91.678,91.678,0,0,1-18.962-3.433c.243.794.469,1.587.695,2.291M175.347,156.127c-.058.29.359.4.994.315,0-.087.135-.145.483-.13.029,0,.052.009.08.011l.106-.027a2.634,2.634,0,0,1,.786-.06c.042-.129.083-.259.125-.377-1.385-.151-2.2-.409-1.211-.608.621-.125,1.132-.21,1.561-.272,0-.012.011-.018.016-.03-2.689-.156-5.2-.4-7.567-.712a7.67,7.67,0,0,1-3.016.422c-1.69-.08-1.106-.464.822-.735-2.057-.322-4-.7-5.849-1.117l-.432.213a1.824,1.824,0,0,1,.062-.3q-1.56-.357-3.037-.751c-.092.485-.183.839-.215.793a5.067,5.067,0,0,1-.274-.924c-1.459-.4-2.864-.816-4.231-1.253-.032.1-.072.21-.122.347a.768.768,0,0,0-.038.252c.417-.068.6-.086.3-.02,2.043-.112,1.076.206-.224.539a6.643,6.643,0,0,0,.411,1.1c1.7.526,3.461,1.022,5.309,1.482a1.849,1.849,0,0,1,.839-.158l-.212.307c.516.125,1.026.251,1.556.369-.052-.087.076-.257.563-.461s.65-.14.367.14a1.294,1.294,0,0,1-.682.373c.246.054.5.1.752.156.816-.653,1.789-1.263,1-.54-.168.154-.424.378-.692.6q1.477.307,3.035.576c3.351-1.637,5.733-.683,3.892.6q1.522.2,3.124.359c0-.082,0-.145,0-.236.023-.795.046-.77.052-.018,0,.1,0,.171,0,.259l.153.014c.064-.092.163-.223.308-.423.239-.329,1.18-.465,1.1-.081m-24.864-4.795c-1.075-.378-2.147-.758-3.191-1.147a14.048,14.048,0,0,1,1.4-.492.858.858,0,0,0-.341-.258c.1-.163-.574-.971-.669-.325a3.666,3.666,0,0,0,.318.225,3.766,3.766,0,0,0-1.813.431l-1.644-.622a.376.376,0,0,0,.017-.055c0-.038-.049-.023-.119.016-.306-.116-.617-.232-.922-.349q-1.635-.624-3.293-1.247c.062-.106-.055-.209-.255-.289.192-.3-1.959-1.034-3.077-.923q-1.446-.511-2.943-1c.1-.361-.033-.612-.615-.2a92.187,92.187,0,0,0-13.171-3.228c-.008-.379-.027-.746-.056-1.057a6.982,6.982,0,0,0,2.251-.6c8.649,1.624,15.328,4.17,21.874,6.673,3.281,1.255,6.6,2.518,10.189,3.669-.089.166-.2.395-.345.69v0c-.69.12-1.7.318-2.411.513-.027-.01-.053-.02-.081-.029-.329-.472-.658-1.012-1.027-1.533a5.14,5.14,0,0,0-.071,1.139M124.071,141.1c-1.192-.222-1.1-.078.013.058.462.057.476.034-.013-.058m19.945,6.713a39.312,39.312,0,0,0-4.69-1.18c1.529.73,4.375,1.851,4.69,1.18m316.16-90.457a.709.709,0,0,1-.6.068c-.378.046-.733.1-1.1.151-.214.32-.072.642.669.986-1.612.053-2.468-.169-2.752-.506-.143.675-.823,1.564-.964,1.371-.277-.378.082-1.08.443-1.482-2.683.418-5.179.909-7.524,1.456a2.761,2.761,0,0,1-.274.476c.138.137.285.27.409.411.194.219.364.428.526.635a11.542,11.542,0,0,1,1.29.116,109.736,109.736,0,0,1,13.6-2.046c.131-.233.3-.512.537-.876,1.5-2.289.619-.3-.237.851,2.174-.191,4.432-.349,6.842-.446l-.081-2.009c-3.906.158-7.463.453-10.778.844M97.346,160.867l-.2.006c-.16.006-.31.017-.472.024.029.1.054.195.08.295.138-.088.349-.2.6-.325m269.1-58.023c-.387,1.086-.742,1.9-.916,1.61-.043-.073-.107-.2-.179-.351.049.209.1.4.146.594,1.537-1.092,3.565-1.559,4.5.261q1.668.03,3.422.018a7.46,7.46,0,0,1,2.734-.785c.658.006.613.329.195.735l.6-.017a18.207,18.207,0,0,1,3.842-2,2.109,2.109,0,0,0,.7-.215c-1.031.063-2.083.118-3.164.162-4.323.174-8.256.156-11.876-.014m-187.3,74.387c-1.849-.109-3.6-.265-5.283-.452-.09.248-.315.128-.481-.056-1.118-.13-2.213-.27-3.273-.428-.512.667-.98,1.289-1.349,1.823.335.054.682.1,1.023.152.791-1.762,1.308-1.266,1.075.16,1.6.22,3.241.419,4.971.576a.566.566,0,0,1-.081-.181c-1.712-.365-2.381-.814,3.4-1.594M423.036,92.416c-.22-.09-.416.829-.652,1.829.745-.349,1.479-.7,2.215-1.051-.347-.282-.837-.652-1.354-1.037.022.219-.033.332-.209.259m-235.3-2.528c-.052.112-.106.23-.156.341.414-.014.8-.016,1.225-.033,1.876-.076,3.662-.187,5.393-.319a3.177,3.177,0,0,1,2.537-.22c1.317-.126,2.607-.262,3.846-.418a4.888,4.888,0,0,1-.5-1.981c-3.064.38-6.35.674-9.928.852.208.125.408.258.611.375,1.1.639-1.107.887-2.716.721l-.079.172c.126.424.027.687-.232.51m254.982-28.98q-2.122.64-4.091,1.336c.071.1.137.194.2.293,1.242.006,2.714.042,2.958.086a22.865,22.865,0,0,1-2.638.408c.211.337.406.665.577.976q1.746-.607,3.617-1.171c.25-.414.044-1.123-.628-1.928M162.276,131.814c.137-.383.43-.915.709-1.022-1-.209-1.959-.433-2.906-.665,1.008.919,2.084,2,2.2,1.687m290.1-27.582c-1.408.734-1.7,1.291-.995,1.511a105.342,105.342,0,0,1,10.762-1.82,11.837,11.837,0,0,1,.934-.74,2.447,2.447,0,0,1,.082.623c.8-.088,1.611-.169,2.438-.244,1.111-.561,1.758-1.077.56-1.686,2.623-.062,2.88.776,1.778,1.495,1.579-.116,3.2-.216,4.9-.285l-.081-2.008c-.7.028-1.386.065-2.069.1-.046.1-.089.2-.131.3a1.988,1.988,0,0,1-.257-.281,120.666,120.666,0,0,0-17.384,2.154.861.861,0,0,1-.534.878M95.345,116.3a114.626,114.626,0,0,0-25.835,3.69.1.1,0,0,1,0,.089,3.828,3.828,0,0,1-.711,1.088,2.264,2.264,0,0,1-.029-.753.414.414,0,0,1,.183-.27q-.679.189-1.342.386a1.264,1.264,0,0,0-.3.7c.867.3,1.685.567,2.423.8,2.133-.589,4.395-1.129,6.819-1.606a.479.479,0,0,1,.019-.591c-.389.1-.784.2-1.193.284.466-.172.916-.332,1.366-.486a.964.964,0,0,1,1.055-.314c.3-.086.6-.185.916-.251q-.388.18-.781.331a1.465,1.465,0,0,1,.515.674q1.8-.318,3.721-.59c.03-.183.373-.231.936-.131,1.349-.178,2.75-.337,4.2-.478a6.268,6.268,0,0,0-4.365-.295c1.816-.578,3.723-2.428,6.455.108q1.374-.111,2.807-.2a1.286,1.286,0,0,1-.646-.154l.989-.894c.1.724-.052,1.01-.342,1.048.867-.053,1.743-.1,2.644-.142a4.145,4.145,0,0,1-.408-.417c-.306-.373.075-.174.825.395.055,0,.106-.007.162-.009.29-.012.572-.019.858-.029a6.163,6.163,0,0,1,.7-2.035c-.542.016-1.085.033-1.639.055M182.8,155.131c.027.031.056.065.084.095.579.052.97.119.818.221a1.848,1.848,0,0,1-.413.195c.084.081.169.162.251.231-.1-.088-.195-.149-.292-.22a10.721,10.721,0,0,1-3.148.331c-.214.168-.427.334-.641.489.8.181,1.406.414,1.125.511-.053.018-.127.048-.2.077,1.2.048,2.429.081,3.7.095.027-.708.063-1.383.1-2.007-.465,0-.932-.009-1.387-.018m36.76-25.19c.014.068.03.131.044.2l.257-.082a3.154,3.154,0,0,0-.3-.117m-147.8,14.066c.609-.161,1.288-.295,1.92-.446a3.737,3.737,0,0,1,.223-1.2l-.689-.78c-.189.045-.384.087-.571.132a.937.937,0,0,1,.165,1.454c.147.022.295.044.441.068-.178.021-.344.033-.519.052a2.99,2.99,0,0,1-.97.725M331.317,118.86c-3.374-1.29-6.787-2.59-10.491-3.768.031-.084-.031-.111-.206-.066l-.712-.223c1.29-.338,2.56-.651,3.719-.907,1.075.365,2.123.74,3.162,1.118-.846.983-1.142,1.729.543,1.372-.476.41.273-.006,1.226-.72q1.753.655,3.476,1.317c2.907,1.112,5.84,2.232,8.962,3.275a3.26,3.26,0,0,0-.677.178,16.4,16.4,0,0,1-3.89.209.9.9,0,0,0-.45-.024q-1.251-.46-2.481-.928a.8.8,0,0,0-.345-.132q-.921-.351-1.837-.7m5.961,1.543c1-.021,2-.056,2.2-.077s-2.381-.152-3.3-.17.095.267,1.1.247m-326.4-2.877c.658.171,2.742.572,4.279.879a.655.655,0,0,0-.171-.308,1.166,1.166,0,0,1-.244-.3,2.8,2.8,0,0,1-.6-.269c-.147-.1-.008-.213.3-.32a3.223,3.223,0,0,1-.129-.322c-1.566.224-3.178.43-4.879.6l.127.3a2.255,2.255,0,0,1,1.315-.269M460.6,81.716c-.012-.082-.026-.156-.037-.247.049.1.09.154.136.236.518-.064,1.051-.122,1.583-.181.016-.056.034-.1.05-.164-.57-.047-.913-.112-.328-.182l.387-.049c.115-.483.219-1.066.322-1.682a96.518,96.518,0,0,0-30.361,7.927c.3.06.595.124.888.188.733-.489,1.47-.879,1.765-.8s-.21.525-.909,1c.2.048.4.094.588.144-.112.2-.509.227-1.052.159-.443.279-.9.545-1.245.73-1.811.976-.881.013.366-.894-.32-.074-.659-.164-1-.264-1.8.8-3.535,1.614-5.256,2.429a7.263,7.263,0,0,1-.577,2.5c9.2-4.395,18.743-8.872,34.681-10.848M70.669,142.209c-.158.042-.308.087-.462.131a1.791,1.791,0,0,1,.154.274c.1-.138.207-.278.308-.4M370.323,82.678q1.453.007,2.954-.009c-.6-.286-1.2-.576-1.728-.86-.4.247-.848.516-1.318.8a.947.947,0,0,1,.091.07M49.052,175.652c-.334.083-.66.166-.954.246-.037.081-.075.164-.111.25.354-.166.714-.33,1.065-.5m-9.769-18.385c-.512-.3-1.4-.8-2.2-1.231,3.062-1.181,5.9-2.439,8.63-3.722a2.184,2.184,0,0,0-.12,1.11c.155,1.43.713-.216.6-.976a2.158,2.158,0,0,0,1.11.634.829.829,0,0,1,.524.458c-1.5.709-3.014,1.414-4.572,2.109-.16-.1-.3-.22-.469-.321-.464.031-.374.245-.01.533-1.114.491-2.249.977-3.419,1.451l-.073-.044m1.958-1.476c.1.475.13.461.064.012-.16-1.081-.321-1.171-.064-.012M365.43,127.028h.038l.015-.018-.053.017M96.046,162.936c-3.467.166-6.675.435-9.656.792a2.234,2.234,0,0,0,.048-.373,7.84,7.84,0,0,0-.521-.587c.518-.455.963-.868,1.236-1.149,1.8-.2,3.689-.367,5.656-.5-.01.09-.022.176-.031.271a3.93,3.93,0,0,1,.278-.29c.584-.039,1.185-.072,1.786-.1a7.41,7.41,0,0,1,1.2,1.944m-5.709-.483c-.445.1.269.044,1.587-.134,3.2-.434-.491-.124-1.587.134m4.453-.227c.127.024.332.03.47.054.287-.218-.019-.175-.47-.054m-48.534-10.17-.19.09a.274.274,0,0,1,.064.084.276.276,0,0,1,.126-.174m39.056,11.229c-.281.236-.564.468-.847.69.439-.06.885-.117,1.333-.173a2.673,2.673,0,0,1-.25-.39c-.073.093-.154.029-.236-.127m68.418-10.844a5.965,5.965,0,0,1,.126-.584c-.4.1-.791.192-1.106.27.321.107.654.209.98.314m-36.143-12.669a4.181,4.181,0,0,0,1.733.956,3.8,3.8,0,0,0-.256.958q-2.236-.346-4.664-.6a11.269,11.269,0,0,0-1.946-.495c-.53-.079-.127.064.9.317.234.058.392.094.55.129a123.839,123.839,0,0,0-16.562-.467q-.07-.994-.153-2.007c.213-.007.417-.011.628-.017a18.852,18.852,0,0,0,1.632,1.041,5.7,5.7,0,0,0-1.323-1.049,121,121,0,0,1,18.5.777c-.343.265-.28.583.533.506.124-.012.277-.029.436-.048m-7.32-.566c-.038.172-.022.267.037.211s.19.437.219.642.32.384.643.4-.787-1.749-.9-1.253M48.981,152.9c.122-.541.377-.842.377-.089l.583-.278,1.71-.814c-.881-.094-1.483-.8-.5-.622a7.127,7.127,0,0,1,1.18.3c1.994-.943,4.031-1.878,6.159-2.784.017-.084.067-.1.134-.058q1.2-.51,2.442-1c-.074-.051-.077-.1.041-.163a1.353,1.353,0,0,1,.583-.089c2.374-.926,4.9-1.8,7.628-2.6-.058-.124-.117-.247-.179-.37l-.006-.012-.01-.019a.831.831,0,0,1-.269-.176,3.207,3.207,0,0,1-.509-.591h-.01a1.97,1.97,0,0,1-.207,1.261c-.181.429-2.131.712-4.719.882.277.194.371.4.121.662-.618.636-2.284.307-3.208-.518l-.415.013c-.194.078-.383.159-.576.238.575.461.1.744-.9.371l-.254.11c.459.624.552,2.234-.187,1.619-.4-.333-.958-.657-.817-1.185-2.806,1.216-5.469,2.476-8.1,3.732q-1.281.612-2.579,1.225a4.745,4.745,0,0,1,2.486.956m-1.428,23.158.024-.008A2.951,2.951,0,0,1,47.623,175c-.013-.017-.026-.029-.039-.047-.358-.112-.732-.222-1.012-.338-1.463.685-2.945,1.366-4.478,2.032a12.345,12.345,0,0,1,1.936,1.35c.484-.216.933-.44,1.409-.657l-1.843-.223c1.043-.05,1.837-.073,2.489-.079.515-.237,1.02-.476,1.53-.714-.018-.093-.027-.182-.038-.271l-.024.007m.978-.594a.251.251,0,0,1-.247.08,3.081,3.081,0,0,0-.157.294c.3-.139.42-.263.4-.374" transform="translate(-10 -0.013)" fill="#262626"/>
        <path id="Path_2780" data-name="Path 2780" d="M300.221,90.462c-.588.193-1.159.383-1.708.567q.207-1.579.459-3.146a6.749,6.749,0,0,0,1.595-1.226l.238.017c-.22,1.255-.409,2.519-.584,3.788M442.881,198.888a101.887,101.887,0,0,1-12.258,4.44c.02.082.042.166.062.248.026-.005.033-.024.063-.027.471-.036.815.413.765,1-.009.094-.05.1-.072.166a103.82,103.82,0,0,0,12.715-4.618,3.094,3.094,0,0,1-1.275-1.2M483.222,41.38c.686.07,1.383.132,2.086.178a105.443,105.443,0,0,0-7.5-8.942c-1.326.034-1.558.028-.024-.027a105.579,105.579,0,0,0-10.364-9.513c-.624.21-1.27.384-1.936.537a104.2,104.2,0,0,1,17.74,17.767M465.46,23.595c.6-.234,1.193-.463,1.781-.667-.312-.249-.6-.523-.919-.769a17.933,17.933,0,0,0-2.3.267c.493.373.951.788,1.438,1.169M325.594,175.473c1.511,1.624,3.092,3.179,4.7,4.707.175-.558.356-1.12.535-1.684-1.135-1.093-2.264-2.193-3.349-3.336a11.814,11.814,0,0,1-1.884.313M396.21,1.784a102.846,102.846,0,0,1,21.1.973c2.161-.079,4.189-.164,5.857-.252.046-.1.1-.2.15-.3A104.137,104.137,0,0,0,412.824.568c-1.351.057-2.664.11-3.87.157a9.923,9.923,0,0,1-1.323.262c-.181.014.089-.085.559-.233-6.141.235-9.317.311-2.521.057.728-.027,1.693-.079,2.81-.147.369-.111.828-.243,1.307-.379A104.8,104.8,0,0,0,396.117.169c-2.583.148-5.13.42-7.656.751.026.562.07,1.1.114,1.6,2.515-.336,5.061-.585,7.635-.733M462.618,21.36a7.962,7.962,0,0,1,1.5-.376,2.144,2.144,0,0,0,.572-.085c-1.971-1.478-4.005-2.869-6.077-4.207-.909.06-1.867.1-2.806.11q3.5,2.149,6.812,4.558M333.32,182.908a104.249,104.249,0,0,0,13.023,9.79,16.7,16.7,0,0,1,1.374-1.019,103.668,103.668,0,0,1-13.449-10.034c-.277.408-.585.826-.948,1.263m-27-115.883c.221-.564.43-1.134.661-1.693-.279.155-.6.328-.956.51.15.1.257.523.295,1.183m93.65,140.562c-.144.127-.218,0-.234-.306-.887-.02-1.763-.088-2.645-.13-.511.365-1.248.869-2.186,1.492,1.84.122,3.689.209,5.551.238-.2-.83-.364-1.4-.486-1.294M423.133,2.6c-1.384.111-2.863.228-4.461.349,2.747.448,5.458,1.016,8.133,1.68a6.353,6.353,0,0,1,.386-1.141c.132-.273.184.325.191,1.275,2.193.558,4.355,1.2,6.492,1.894.416-.33.9-.73,1.437-1.178-3.267-1.1-6.6-2.058-9.99-2.834-1.417,1.246-2.975,1.808-2.188-.044M311.863,93c.028-.21.074-.415.1-.624-.157.081-.311.152-.464.22a1.022,1.022,0,0,1-.006.453l.368-.049m176.254-47.55c-.17-.246-.327-.5-.5-.746q-.745.3-1.51.574c.152.215.3.436.447.652.467-.165.994-.326,1.562-.48M314.7,158.635c-.633-.06-1.311-.132-1.969-.207a105.4,105.4,0,0,0,8.6,12.144,4.042,4.042,0,0,1,.78-1.579,102.529,102.529,0,0,1-7.415-10.359m59.367-146.2c-.289-.286-.58-.633-.87-.967-1.6.5-3.206,1.008-4.775,1.583a.182.182,0,0,1-.069.08,5.083,5.083,0,0,0,.931-.155,16.91,16.91,0,0,1,4.783-.541M304.922,97.162c-.024.3-.054.6-.074.909a28.74,28.74,0,0,1,6.568-.961c.1-1.192.242-2.371.386-3.551a5.347,5.347,0,0,1-.585.131,4.2,4.2,0,0,1-1.578,1.341c-1.981,1.027-2.78.847-1.778-.4a5.692,5.692,0,0,0,.408-.594,13.058,13.058,0,0,1-1.566.008c-.8-.054.353-.3,1.887-.558a9.007,9.007,0,0,1,.5-.824.656.656,0,0,1-.152-.4c-.175.206-.352.207-.511-.124a5.261,5.261,0,0,1,.169-2.052,5.627,5.627,0,0,1-1.872.659c-.632.053-.524-.307-.067-.754l-.916.137c-.04.259-.083.515-.121.774a3.006,3.006,0,0,1,.79.355c.2.138-.216.258-.885.353-.195,1.408-.367,2.821-.5,4.247l3.107.866a7.387,7.387,0,0,1-3.213.443M299.4,110.374a101.337,101.337,0,0,1-.018-10.742c-.6,0-1.141-.019-1.617-.046-.013.286-.015.575-.026.861l.344-.02-.346.065c-.13,3.294-.145,6.615.048,9.975.087,1.509.212,3.006.362,4.5a14.532,14.532,0,0,1,1.589-.509c-.136-1.353-.257-2.709-.336-4.08M464.591,29.842c-1.128-.946-2.284-1.852-3.452-2.745a1.86,1.86,0,0,1-.565-.313c.39,1.683,1.193,4.729,2.174,8.212,3.21-.452,5.183-.846,1.949-1.209,1.914-.046,3.347-.04,4.376.005-1.2-1.137-2.451-2.21-3.707-3.285a13.563,13.563,0,0,0-1.524.622c-2.4-.084-.793-.789.749-1.287M395.5,207.71a7.9,7.9,0,0,1-2.746.746q-2.822-.244-5.606-.633a31.678,31.678,0,0,0-6.353-2.27,26.414,26.414,0,0,0,2.23,1.622c-2.077-.381-4.136-.814-6.171-1.322.311-.533.665-.986.972-1.426a101.869,101.869,0,0,0,18.706,2.7c-.3.171-.632.356-1.033.588m-10.465-1.659c-.092-.042-.229-.038-.327-.078-.126.482.064.369.327.078M380.821,3.835c-1.249-.84-1.92-1.579.518-.1,2.159-.443,4.352-.8,6.559-1.108a13.854,13.854,0,0,1-.054-1.619q-1.1.151-2.194.326c.581.149.762.383-.208.684a3,3,0,0,1-2.219-.3,103.7,103.7,0,0,0-12.28,3.036c-1.026,1.348-3.318,2.711-4.378,1.5l-.012-.012c-.762.276-1.513.571-2.266.864.078,1.186-.493,1.136-1.015.412a103.7,103.7,0,0,0-10.488,4.9c1.319-.053,2.586-.1,3.773-.147a101.849,101.849,0,0,1,24.261-8.437M301.235,126.5c.085-.2.174-.4.278-.6-.122-.568-.234-1.14-.346-1.712a1.444,1.444,0,0,0,.068,2.315m8.309-35.717a15.267,15.267,0,0,1,1.022-1.336l-.751.1c-.074.419-.166.845-.271,1.237M319.571,42.1c.01.37.01.728.014,1.092.313-.421.634-.837.954-1.254-.317.055-.641.11-.968.162m-13.6,46.568.06-.018c-.012-.037-.03-.069-.041-.107-.007.041-.013.083-.019.125m1.08,55.1c-.591.25-1.1.471-1.477.647.128.313.246.632.378.943.734.247,1.45.506,2.117.8-.351-.79-.687-1.587-1.019-2.386m99.384,63.459a14.492,14.492,0,0,1,4.456,1.332A104.437,104.437,0,0,0,424.4,206.5c.065-1.394.473-.912.757-.17q2.546-.574,5.041-1.27c-.026-.525-.049-1.054-.059-1.609a102.693,102.693,0,0,1-22.147,3.731c-.521.03-1.037.027-1.557.05m-1.066.034c-.908.029-1.809.02-2.711.025.119.516.219,1.044.291,1.578,1.067-.009,2.125.032,3.2-.01a1.77,1.77,0,0,1-.778-1.593M474.955,50.051l-.056-.076c-.036.008-.015.035.056.076m1.636,2.126a6.7,6.7,0,0,1,1.644-1.04,10.8,10.8,0,0,1-1.116-.282,1.425,1.425,0,0,1-.908.217c-.619-.042-.8-.355-.643-.749a5.218,5.218,0,0,1-.613-.272c.34.452.681.9,1.012,1.362a3.209,3.209,0,0,1,.624.764M492.576,68.3c-.1.017-.121.066-.086.13-1.524.693-3.966,1.7-5.865,2.333a90.551,90.551,0,0,0-6.18-12.534c.412-.061.5-.713.818-1.193.363-.55.059-.648-.675-.22a1.483,1.483,0,0,0-.606.641q-1.336-2.2-2.79-4.325a15.165,15.165,0,0,0,2.852-2.159.883.883,0,0,0,.215-.3,10.479,10.479,0,0,0,2.315,1.61,14.956,14.956,0,0,0-3.35-2.79,7.993,7.993,0,0,0,.861,1.013,4.983,4.983,0,0,0-1.554.491c-.264-.1-.674-.237-1.123-.374.389-.384.679-.945,1.165-1.429.857-.851.206-.931-1.445-.179a3.4,3.4,0,0,0-1.452,1.115l-.11-.029a2.656,2.656,0,0,0-.669-.128c-.629-.835-1.266-1.664-1.921-2.476l1.813-1.33c-1.022-.28-1.924-.266-2.092,1-.619-.762-1.258-1.506-1.9-2.246.5.006,1-.123.955-.476s-.672-.455-1.4-.208c-.041.014-.067.027-.1.042a91.053,91.053,0,0,0-6.957-7.071,16.856,16.856,0,0,0-.4-1.685l-.035-.126a55.461,55.461,0,0,0,7.026-.789c.7.677,1.372,1.379,2.048,2.08-.421.574-.538.985-.26.914a3.343,3.343,0,0,0,.738-.428q1.506,1.585,2.95,3.227a14.037,14.037,0,0,0,.228,3.2c-.6-.072-.66.391.124.738.058.331.121.67.194,1.028.292,1.439,2.136,1.735,4.558,1.4.666.9,1.3,1.82,1.932,2.749-.229-.036-.444-.066-.635-.09-3.081-.386-.871.672,1.388,1.237.433.66.868,1.318,1.29,1.987-.79.707-1.246,1.385-.96,1.95a3.483,3.483,0,0,0,3.34,2.025c.839,1.479,1.664,2.967,2.442,4.485-.2.189-.232.418.216.6a.687.687,0,0,0,.108.028c.08.162.17.317.248.48-1.13-.039-2.335-.082-3.6-.131-5.517-.215-2.358.548.6.9,1.026.123,1.992.214,2.837.276l-.612.493c.514-.115.963-.228,1.371-.34q1.128,2.416,2.14,4.895m-7.717-8.435c.169-.875.058-1.113-.246-.529-.737,1.418-.165,2.664.246.529m3.77,6.739c-.63-.119-.856.3-1.121.609-.633.738,2.67-.316,1.121-.609M411.68.452c-.414-.038-.824-.092-1.24-.125-.346.1-.69.192-1.015.277.7-.045,1.468-.1,2.254-.152M327.434,175.115c-.158-.166-.307-.34-.463-.507a1,1,0,0,1-1.24.108c-.3-.22-.161-.724.155-1.3q-1.222-1.362-2.4-2.759c-.29.3-.644.423-.752.165-.123.132-.175.246-.115.323.194.249-.1.427-.457.434,1.042,1.24,2.1,2.46,3.2,3.649.12-.009.24-.016.359-.026a15.532,15.532,0,0,1,1.714-.091M307.71,88.174q.817-.226,1.6-.43a2.019,2.019,0,0,1,.271-.446c.243-.276.365-.118.4.275,1.04-.26,2.012-.478,2.868-.636.053-.31.089-.626.152-.932-1.511.169-3.126.313-4.729.435-.2.625-.4,1.213-.564,1.734m150.3-59.07c-1.4.32-1.441.356.037.051q.672-.139,1.166-.247c-.019.364-.064.625-.153.671-.413.213.3,2.587,1.593,5.323a91.75,91.75,0,0,0-9.439-6.969c.413-1.28-.515-1.908-1.208-2.564s-.943.184-.89,1.246a90.5,90.5,0,0,0-8.1-4.342c.082-.278.165-.557.24-.83a23.691,23.691,0,0,0,2.7-.475c1.508-.322,1.556-.389-.039-.121-1.447.243-2.311.429-2.643.527a16.273,16.273,0,0,0,.642-3.313,21.6,21.6,0,0,0,1-2,98.38,98.38,0,0,1,12.428,6.917c.007.4.3.665,1.024.7.867.585,1.734,1.168,2.581,1.779a19.732,19.732,0,0,1,.261,3.375c-.344.074-.743.163-1.206.269m-12.242-8.011c-.937-.12-1.087.839-1.7,1.55s-.131.8,1.067.206,1.568-1.636.632-1.756m2.166-.964c-2.406.182-5.01.195-4.4.335,1.5.343,10.163-.771,4.4-.335m6.5,5.044c-.057-.366-.749.467-1,.722-.61.63.253.535.1.417-.072-.057.414-.283.62-.35s.328-.423.271-.789m1.937,5.536c-.134.041-.336.068-.46.108.46.09.769.106.46-.108M308.208,78.542c.012,0,0,.022-.016.04-.028.1-.058.2-.086.3.03.03.052.059.079.09.654-1.371,1.1-2.019.755-1.1.829-.354,1.165.061,1.207.9.167.1.371.241.577.384-.306-3.868.747-6.73.792-2.558.01.834.014,2.065-.01,3.145.268.213.557.456.851.711.713-.218,1.468-.461,2.245-.72q.478-1.725,1.026-3.42c-.543-.541-.721-1.163.2-1.706a1.3,1.3,0,0,0,.263.246c.027-.079.049-.16.076-.239-.142-.229-.285-.452-.427-.7a2.317,2.317,0,0,1,.9-.566c.208-.569.433-1.131.652-1.695-.767.28-1.588.561-2.431.831-.434.851-1.273,1.723-1.015,1.329-.689.234-.567-.289-.252-.936-1.367.407-2.741.768-3.984,1.025-.511,1.528-.976,3.073-1.414,4.63h.005m88.979,116.812-.051-.016c-1.807-.1-3.6-.268-5.378-.471.262.858.11.646-.24.645-.114,0-.948-.582-1.221-.427s.209.391.495.4a1.347,1.347,0,0,1,.577.129c.011.019,0,.138.022.209l.167-.013a4.74,4.74,0,0,1,.393-.3c.009,0,.014-.009.012-.02a1.3,1.3,0,0,1,.15-.181,4.4,4.4,0,0,1-.146.469c1.862-.149,3.637-.294,5.22-.427M304.409,72.3c-.215-.967-.075-1.5.436-1.261.252-.732.5-1.467.765-2.191a8.907,8.907,0,0,1-1.995.821c-.026.074-.052.149-.079.223.978.476.584,1.4-.78,2.321q-.829,2.531-1.531,5.116c.309.013.49.086.417.246a2.541,2.541,0,0,1-.738.988c-.125.485-.26.965-.378,1.452.584.139,1.128.276,1.567.4q.994-4.123,2.315-8.118m194.419-2.791q.7-.312,1.481-.666c-.721-1.985-1.531-3.923-2.365-5.848a11.838,11.838,0,0,0-1.763-.033c.95,2.147,1.844,4.324,2.647,6.546M307.912,79.559l.053-.113-.018-.008c-.011.04-.023.081-.035.121m196.5,14.7a4.585,4.585,0,0,1,.488.067c.1.022.173.042.26.063a7.528,7.528,0,0,1,.7-1.994c-.072-.61-.16-1.215-.242-1.822a16.652,16.652,0,0,1-1.414,2.069c.062.541.15,1.073.2,1.617m.657,11.2-.118.025c-.012,1.213-.052,2.42-.107,3.625q.7-.67,1.453-1.307a20.956,20.956,0,0,1-1.5,2.231q-.043.792-.1,1.58c.417.038.626.121.452.256a2.488,2.488,0,0,1-.491.277q-.312,4.166-.951,8.244c.08.143.153.281.208.392.238.488-.012.707-.383.714q-.417,2.482-.949,4.927c.538.271,1.05.536,1.485.772a103.827,103.827,0,0,0,2.473-20.975,4.952,4.952,0,0,0-.516.12c-.833.3-1.169-.1-.961-.881M309.83,81.17q.226-.055.468-.12c-.111-.159-.235-.326-.334-.479-.037.191-.088.4-.134.6m4.523-.524c-.507.089-1.007.174-1.5.256.377.342.759.7,1.13,1.079.115-.448.246-.889.366-1.335m-7.2-15.691c.385-.922.8-1.83,1.211-2.737a3.479,3.479,0,0,1-1.6-.381q-.9,1.995-1.716,4.027c.589-.263,1.144-.507,1.564-.686.218-.094.377-.157.54-.223m13.288-13.592c-.076.116-.144.238-.217.356.136-.1.268-.177.4-.257-.06-.035-.121-.063-.182-.1m-1.279,2.629a.913.913,0,0,1-.245-.129q-.222.361-.446.722c-.029.153-.066.322-.119.519a6.845,6.845,0,0,1-.4,1.148c.477-.245,1-.466,1.491-.7-.1-.51-.187-1.033-.277-1.556M301.87,81.423q-.762.283-1.8.659l-.039.176c.643.247.8.382-.05.224-.139.611-.286,1.221-.407,1.838.4.052.945.109,1.615.169.2-1.031.451-2.046.686-3.065m6.881,3.544c1.5.066,3.016.122,4.451.144.035-.158.082-.312.118-.47a23.636,23.636,0,0,1-1.811-1.979c-.561.221-1.2.52-1.069.6.364.214-1.865.542-.233-.825.164-.137.4-.351.669-.583-.146-.192-.28-.376-.414-.563l-.683.1c-.268,1.119-.643,2.365-1.029,3.574M304.82,66.449c-.03.077-.057.155-.087.232a5.887,5.887,0,0,0,1.006-.692q-.441.225-.919.46m153.2,112.075c.012-.833-.029-1.563-.048-2.334-.987.771-1.946,1.576-2.965,2.307,1.09-.014,2.137,0,3.013.027m26.268-12.286c.14.015.461.055.456.062s.012.009.038.008.628.032,1.27.081a1.4,1.4,0,0,0,.16,0c.058-.079.12-.154.177-.233-.146.025-.314.055-.369.059-1.5.112-1.671.415.712-1.6a3.946,3.946,0,0,1,1.135-.573,104.9,104.9,0,0,0,6.676-10.919c-.658.073-1.314.145-1.96.219a103.42,103.42,0,0,1-8.3,12.9M312.065,154.164l-.151.1.124-.15q-1.36-2.447-2.589-4.978c-.362.058-.887.114-1.635.168q1.108,2.323,2.323,4.578c1.045.01,1.093.06.076.133q1.152,2.131,2.394,4.2c.644.065,1.315.135,1.954.2q-1.3-2.1-2.5-4.26m-3.979-7.968c-.168.414-.895.306-1.795-.029.466,1.069,1.02,2.086,1.521,3.135a4.429,4.429,0,0,0,1.431-.606c-.395-.828-.783-1.661-1.157-2.5M464,186.551a103.655,103.655,0,0,0,13.515-12.222c-.007.836,0,1.733.018,2.311a104.581,104.581,0,0,1-31.274,22.472,3.926,3.926,0,0,0-.836-1.358,102.643,102.643,0,0,0,18.022-10.795c1.548-.085,1.382-.241.555-.409m-2.843,3.55c.222.207,1.331-.857,1.494-1.594.266-1.2-2.267.867-1.494,1.594M495.662,59.232c.253-.07.415-.113.5-.131q-1.366-2.789-2.879-5.488a15.4,15.4,0,0,1-1.3,1.016q1.356,2.428,2.6,4.925c.227-.075.578-.182,1.078-.322M477.9,173.89c.1.591.217,1.292.33,2.028.247-.262.474-.541.718-.806.033-.513.09-1.075.193-1.714.186-1.151,1.685-2.152,3.907-3.015.95-1.16,1.9-2.32,2.8-3.522-.84-.328-1.578-.608-1.563-.62-2,2.655-4.139,5.2-6.381,7.649m-170.12-24.579.029,0,0,0-.027.008M363.31,16.757l-.157.007c-.056-.372-.111-.717-.165-1.025-.03-.173-.053-.3-.081-.461.954-.42,1.908-.838,2.877-1.229,1.33-.186,2.174-.291,2.262-.275a54.572,54.572,0,0,0,6.271-1.113,11.79,11.79,0,0,0,3.98,2.556,29.355,29.355,0,0,0-4.611-3.911,95.6,95.6,0,0,1,50.568-1.672c-.192,3.482,1.543,4.934,2.053.652.006-.05,0-.113.007-.165.175.045.353.079.528.125a12.822,12.822,0,0,0,.211,1.272,4.419,4.419,0,0,0,.122-1.087c1.287,1.917,2.423,3.288,1.163,1.076-.165-.289-.382-.659-.616-1.053.6.165,1.2.36,1.8.536a.3.3,0,0,0,.15.208,1.1,1.1,0,0,0,.818.081,95.479,95.479,0,0,1,10.72,4c-2.361,2.2-4.293,3.825-4.423,3.7a4.439,4.439,0,0,0-1.163.961c-.3-.124-.608-.25-.915-.37.187-.318.149-.566-.456-.542a1.5,1.5,0,0,1-.229.289c-.421-.161-.847-.314-1.271-.468.109-.359-.143-.371-.5-.185-.328-.117-.649-.249-.979-.361a4.015,4.015,0,0,0,.56-1.47c.143-1.266-1.031.086-1.256,1.24a90.216,90.216,0,0,0-12.877-3.23c.47-.473.683-1.624.475-3.871l-2.255,3.565-.013,0a5.1,5.1,0,0,0,.165-2c-.4-.833-.916.412-1.245,1.86a90.821,90.821,0,0,0-17.932-.77c-1.982.114-3.938.312-5.882.55,1.182-.919,1.631-1.4.939-1.044a10.276,10.276,0,0,0-1.667,1.142,90.284,90.284,0,0,0-26.5,7.706c-.183-1.865-.4-3.631-.6-5.024a20.81,20.81,0,0,0,4.508-.365c.588-.224-1.984.072-4.379.162m72.771-.972c5.788-.92-5.078.2,0,0m-5.934.639c.278.133.043-.129-.522-.583-1.382-1.109-.154.259.522.583m-7.667-5.652c.526.274.434-.036.152-.487-.065.133-.087.343-.152.487m.077,1.882c-.543-.465-.759,1.016-.823,1.67-.153,1.541,2.159-.524.823-1.67m-10.5-.377c1.386,2.271,5.626-1.659,4.044-2.24-1.093-.4-1.817-.437-1.61-.077s-2.871,1.6-2.434,2.317M400.734,7.388c6.153-.23-3.148-.419-4.694.173-.63.241,2.126-.077,4.694-.173M395.177,8.55c-1.333.6-1.157,1.189-.4,1.76-1.327.462-.775.718,5.616.312l-5.466-.363c-.045.014-.082.028-.124.043l1.6-1.369c.371.111.713.211.974.283,1.55.428.654-.035-.677-.537l1.061-.906a17.49,17.49,0,0,0-2.037.561,6.7,6.7,0,0,0-2.206-.482c-.232.045.637.366,1.661.7m-9.754,5.417c5.807-.426-6.7-.21,0,0m2.194-4.55c6.673-.689,1.832-1.214-5-.093-2.8.458,2.19.384,5,.093M369.1,18.554c.471-.575,8.339-3.973,3.407-3.52,1.812-.872-9.337,3.05-3.407,3.52M500.289,73.848a11.922,11.922,0,0,1,1.312-.277c.065-.063.125-.129.191-.191l.027.021c-.191-.651-.387-1.3-.6-1.941a16.116,16.116,0,0,1-1.359,1.019c.149.454.287.912.429,1.369m-61.425-53.4a3.874,3.874,0,0,0-1.284.317c.337.145.679.278,1.015.425.087-.252.178-.5.269-.742M494.606,59.6c.455.917.9,1.839,1.322,2.775a6.926,6.926,0,0,0,.734-.013c.045-.013.451-.01,1.027.006-.485-1.1-1-2.177-1.523-3.249-.078.029-.243.084-.511.168-.48.151-.825.252-1.049.313m9.409,31.54c.468-.62.935-1.241,1.436-1.829a105.582,105.582,0,0,0-2.145-10.693,17.136,17.136,0,0,0-1.972-1.721c.2-.935.64-1.218,1.165-1.139q-.226-.789-.452-1.578l-1.724-.223a102.856,102.856,0,0,1,3.691,17.181M343,19.763c1.412-.922,2.43-1.357,2.262-.967,0,0,.007.009.007.014a102.58,102.58,0,0,1,11.051-6.419c-1.212.079-2.572.175-4,.281-1.357.738-2.7,1.493-4.022,2.288a3.167,3.167,0,0,1,.1.483c.025.414-.268.342-.7-.1-1.248.765-2.47,1.563-3.682,2.377.2.075.248.251.027.561-.49.686-.9,1.636-2.121,1.3a2.572,2.572,0,0,1-.382-.142c-1.3.931-2.59,1.883-3.848,2.871a13.879,13.879,0,0,0-.111,1.8,1.254,1.254,0,0,1-.08.414q2.6-2.109,5.346-4.042c-.262-.193-.269-.436.159-.715m98.816-10.2a.469.469,0,0,1,.423.253,103.871,103.871,0,0,1,11.908,6.009c.835-.088,1.266-.1,1.063,0a10.747,10.747,0,0,0,2.154.058,103.745,103.745,0,0,0-19.86-9.646c-.278.478-.579.952-.879,1.378q2.617.939,5.172,2.012a.6.6,0,0,0,.02-.061M312.132,70.944c-.007.028-.025.059-.034.088,1.918-.113,3.928-.289,5.652-.538.288-.712.592-1.416.9-2.119-.177.036-.4.077-.707.126.215-.113.309-.226.524-.334l.268.007c.312-.714.638-1.422.968-2.127-.021-.019-.046-.033-.066-.053-.21-.2.014-.483.463-.8q.7-1.459,1.451-2.893c.02-.4.03-.814.076-1.207.105-.895.243-.6.4.281a91.053,91.053,0,0,1,6.754-10.678c-1.9-.259-2.855-.6.961-1.263l.221-.289a2.707,2.707,0,0,1-.8.009c-1.2-.165-1.18-.536-.652-.908-.252-.226-.333-.5-.089-.751.059-.061.107-.1.162-.154-.924-.012-1.9-.021-2.9-.028a2.951,2.951,0,0,1,.249,1.486c-.156.518-.7-.32-1.28-1.491-.473,0-.942-.005-1.424-.006-.057.079-.108.161-.165.239a6.5,6.5,0,0,1-2.508,3.636l-.016.023c.108.038.216.083.323.123,1.676-.88,2.832-.112,2.3.992.459.225.92.458,1.392.709a15.462,15.462,0,0,1-1.538-.458,3.727,3.727,0,0,1-1.154,1.019,4.016,4.016,0,0,1-2.193.51c.025.437.039.857.074,1.311.665-.316,1.28-.658,2-.947a22.2,22.2,0,0,1-1.95,1.426c.126,1.478.3,3.036.588,4.752-.175-1.093-.391-2.209-.612-3.346a.1.1,0,0,1-.056.115c-.278.159-1.04.5-2,.917-.032.25-.132.268-.264.114-.489.211-1.008.432-1.57.67-1.163,2.2-2.223,4.46-3.217,6.753l.209-.012A51.1,51.1,0,0,1,316,61.5c2.264-2.844-1.3,2.926-2.788,4.329.964-.05,2.367-.106,3.723-.206,5.614-.414-1.2.44-3.98.415a.688.688,0,0,1-.141.076c-.047.016-.053-.017-.035-.079-.067,0-.133,0-.194-.006-.312.725-.585,1.469-.88,2.2.468.143.621.229-.049.122q-.549,1.369-1.059,2.758l.449-.02c.568-.506,1.242-.78,1.084-.143M488.967,49.562a14.355,14.355,0,0,0,1.292-.906c-.323-.506-.669-.994-1-1.494a2.222,2.222,0,0,1-1.459.6q.588.894,1.166,1.8m14.042,77.916c-.013-.084.091-.128.252-.151-.256-.116-.522-.243-.795-.379-.31,1.384-.658,2.754-1.023,4.117.363.023.637.25-.188.959.366.125.646.3.611.6a1.3,1.3,0,0,1-1.233,1.314c-.786,2.629-1.682,5.213-2.668,7.753a10.726,10.726,0,0,1,1.53.511,104.044,104.044,0,0,0,4.419-14.34l-.16.031a.588.588,0,0,1-.745-.417m-16.4,25.474a54.961,54.961,0,0,0-6.75,1.519c2.188-.08,4.187-.237,6.132-.42-.5.84-1.028,1.659-1.55,2.482-.009-.152-.152-.393-.527-.763-2.194-2.161-3.151-.543-.415.689.467.21.73.25.864.2a98.413,98.413,0,0,1-18.749,21.677c.027-1.83.043-5.082,0-8.755a91.647,91.647,0,0,0,7.509-8.378,12.282,12.282,0,0,0,2.093-.206c.714-.152-.241-.291-1.606-.4a91.484,91.484,0,0,0,8.75-13.328,3.686,3.686,0,0,0,1.47,1.5c.164.773,2.349,1.7,3.257,1.373.252-.092.707-.237,1.239-.4-.566,1.075-1.114,2.16-1.719,3.212m-13.124,12.915-2.677-.215c.5,1.446,1.566,1.011,2.677.215m24.3-67.409c-.653.6-.186,1.216.726,1.62a1.181,1.181,0,0,0,.165,1.736c-1.174.17-1.095.207.162.108a1.9,1.9,0,0,0,.7.26q.036,1.708.013,3.405c-.356.147-.732.285-.978.361a1.155,1.155,0,0,0-.563.408c-2.821.345-2.781.412-.121.182a1.891,1.891,0,0,0-.227,1.23c.08.517,1-.114,1.855-.8a100.652,100.652,0,0,1-.868,10.491c-1.249-.381-1.866-1.024-3.465-.658-1.658.38-.645,1.084,1.724,1.189.708.031,1.26.031,1.677.009-.378,2.675-.828,5.329-1.418,7.936-.675-.043-1.536-.093-2.651-.152-1.017-.054-2.388-.081-3.924-.082a90.862,90.862,0,0,0,2-11.837c.174.143.392-.022.657-.343a3.321,3.321,0,0,1-.561-.4c.051-.541.075-1.089.117-1.632.45-.023.866-.042,1.2-.049,4.506-.1,3.938-.122-1.2-.054.009-.118.011-.238.02-.357,6.415-.641,5.278-1.066.054-1,.025-.4.031-.813.05-1.219.279-.092.4-.21.222-.419a.806.806,0,0,0-.2-.157c.072-1.755.109-3.516.079-5.293.79-.066.842-.215-.008-.409-.024-1.087,0-2.166-.066-3.258-.118-2.062-.329-4.1-.581-6.115a20.044,20.044,0,0,0,3.631.109c.8-.149-1.618-.367-3.684-.5-.045-.344-.09-.687-.139-1.03.691.209,1.442.406,1.933.611-2.968-1.167,1.819-2.146.959-3.167a28.316,28.316,0,0,0-3.133.779,90.254,90.254,0,0,0-5.151-18.766,36.02,36.02,0,0,0,6.338-1.5l.03.078a3.964,3.964,0,0,0-1.224.942c-.175.218.558-.01,1.448-.347.134.355.273.709.4,1.067-1.362.607-3.635,1.845-3.725,2.551a3.472,3.472,0,0,0-.538.12c.155.027.4.029.568.055l.008-.008a.322.322,0,0,0,.135.171c1.335.74,3.444-.424,3.711-.956a.866.866,0,0,1,.422-.262c.087.255.166.515.25.772a10.379,10.379,0,0,0-1.225,1.253c-.915,1.089-1.786,2.8-.4,1.967.076.019.242-.088.5-.34.6-.434,1.16-.833,1.668-1.185a98,98,0,0,1,3.891,19.45c-1.642.343-2.585.746-1.374.869.547.056,1.032.095,1.466.123.038.431.084.86.129,1.289a9.611,9.611,0,0,0-1.489,1.164m-4.022,19.927a14.727,14.727,0,0,0-1.957,2.156c.282.732,1.389-1.05,1.957-2.156m2.722-24.66c-2.448.838,3.07.7,0,0m1.049,9.562c2.078,2.218,2.643.208.248-.857-.989-.44-1.1-.054-.248.857M362.785,16.962c.05,1.561.029,3.5-.029,5.489q-1.792.862-3.539,1.8c-.111.03-.232.063-.326.087-.34.087-.423.179-.358.271-.446.244-.882.5-1.321.757a4.2,4.2,0,0,0-1.611-.7c-.164.027.525.455,1.286.887-2.509,1.464-4.926,3.061-7.283,4.737-.066-.3-.118-.613-.2-.9a13.1,13.1,0,0,0,1.348-.186c-.138-.011-.716-.006-1.4.007-.653-2.082-1.72-3.547-2.138-2.153a14.8,14.8,0,0,0-.52,2.242,14.546,14.546,0,0,0-3.206.6,13.045,13.045,0,0,0,3.175-.2c0,.325.069.466.229.347s.387.741.652,1.785c-1.437,1.084-2.779,2.274-4.146,3.437-1.2-1.678-2.652-3.648-3.853-5.344a98.879,98.879,0,0,1,8.487-6.452c.944-.046,1.727-.091,1.936-.112.146-.016-.676-.031-1.7-.041q2.593-1.728,5.3-3.29c.45,2.377,1.314,4.85,1.613,4.179.487-1.09.195-3.212-.291-4.951,2.533-1.411,5.147-2.692,7.816-3.877.035.423.063.887.082,1.408-2.161.1-1.483.179,0,.182m-16.037,9.654c-.249-.249-.611,1-.3.775.184-.136.378-.7.3-.775m-45.865,101-.192.055-.423.119c.02.089.043.177.063.266a4.912,4.912,0,0,1,.592.793,2.261,2.261,0,0,1-.04-1.233m19.951-86.046c.832-1.074,1.736-2.088,2.606-3.128a25.875,25.875,0,0,1-2.906.94c-.34.425-.7.828-1.038,1.258.017.343.054.709.065,1.046.4-.032.871-.075,1.273-.115M489.768,146.949c.047-.1.087-.195.134-.291-.177.032-.352.062-.511.087-.238.037-.035.112.377.2M332.654,171.377c-.212-.22-.425-.439-.636-.657a21.692,21.692,0,0,0,1.045-2.365c.829-.084,1.7-.311.138-.391.586-1.731.6-2.875-.985-1.146-.675.735-1.313,1.406-1.887,1.993-.084-.112-.177-.222-.255-.334.087.119.156.237.234.355-.227.233-.441.448-.643.648-.338-.376-.679-.748-1.012-1.129,2.053-1.032,3.647-2.748,2.253-3.023-1.748-.345-2.924-.3-2.613.1.116.149-.526.5-1.34.916-.172-.209-.353-.409-.524-.619,0-.242.025-.472.007-.72-.047-.66-.384-.633-.836-.3-1.174-1.488-2.3-3.017-3.382-4.574a5.009,5.009,0,0,0-2.034-3.012q-2.33-3.619-4.342-7.456a6.582,6.582,0,0,0,2.146-.313c.32,1.553,1.186-1.893.381-1.88-.346.006-.538.739-.425,1.628,0,.033.01.051.014.081l-2.394-.636a2.573,2.573,0,0,0-.151.293q-.934-1.819-1.795-3.68c.877.043,1.652.072,1.6.293-.125.514.777.037,2-1.06,1.1-.986-1.143-2.015-3.2-1.847,1.36-1.183,2.172-2.221.067-.884-.428.272-1,.658-1.548,1.06-.137-.32-.271-.641-.4-.962,2.043-.773,4.2-1.545,6.059-2.128q1.615,3.845,3.564,7.5a4.323,4.323,0,0,1-.974.558c-.078-.05-2.389,1.572-1.789,1.792s1.448-.463,1.538-.719,1.588-.748,1.69-.5c.022.054.081.062.161.041.747,1.353,1.52,2.687,2.331,4-.412.1-.806.169-1.11.234a16.355,16.355,0,0,0-3.982.161c-1.339.289,3.386.543,5.342.6a34.663,34.663,0,0,0,.391,4.254c.2-1.143.379-2.291.558-3.359a91.421,91.421,0,0,0,11.749,14.48c-.926.167-1.849.349-2.56.5.93-.118,1.816-.239,2.7-.36,1.285,1.284,2.616,2.519,3.975,3.724-.259.191-.5.363-.711.515-.569-.753-1.042-.859-1.22.744-.528.349-2.008,1.569-1.517,1.782.556.241,1.306-.386,1.45-.683-.015.564-.012,1.23.017,2.044l1.222-2.638c.21-.034.377-.03.409.052.09.232.651-.2,1.3-.97a91.062,91.062,0,0,0,40,20.007c-1.043.693-1.736,1.557-1.295,2.007.147.149.353.388.584.664-.8.221-1.6.449-2.19.628-1.119.068-2.084.12-2.81.147-6.8.254-3.62.178,2.521-.057-.471.148-.74.247-.56.233a9.933,9.933,0,0,0,1.324-.262l2.21-.088c.207.255.429.535.656.821a.862.862,0,0,0,.036.193c.053.12.123.142.2.109.767.974,1.555,1.984,2.148,2.712a96.234,96.234,0,0,1-14.206-3.586c.151-.15.294-.3.419-.452.576-.7-.447-.4-1.393.109a97.13,97.13,0,0,1-18.165-8.483c.476-.766.6-1.117-.177-.159l-.026.032a98.3,98.3,0,0,1-8.89-6.058,3.3,3.3,0,0,0,.522-.5,2.5,2.5,0,0,0,.444.206c.6.211.672.005.163-.46a3.036,3.036,0,0,0-.392-.3c-.042-.718-1.539-.995-2.251-1.425a1.066,1.066,0,0,1,.457,1.657c-2.247-1.767-4.427-3.618-6.513-5.573a10.363,10.363,0,0,0-2.313-3.488,16.379,16.379,0,0,0-.362-1.986,5.624,5.624,0,0,0-.21,1.375m39.973,19.99c-.259-.568-1.591-1.294-1.811-1.1-.735.633,2.247,2.063,1.811,1.1M366.3,188.8c.936.629.693.265.2-.239a1.672,1.672,0,0,1-.2.239m-10.785-5.706a10.6,10.6,0,0,0-4.158-.056c-5.092.9,6.735.425,4.158.056m-5.471,1.734c1.567.151,3.347.252,5.232.329-1.7-.266-4.867-.652-5.232-.329m-5.307-3.074.809-1.129c-.525-.415-.959-.485-.809,1.129m-15.483-21.9c-.847-.142-.968.809-1.509,1.5s-.106.8.966.23,1.39-1.589.543-1.731M313.092,53.017c-.569-.078-1.166-.164-1.718-.244,1.047-1.831,2.135-3.635,3.287-5.4.635-.014,1.295-.026,1.964-.036-.092.136-.17.281-.261.418-.227-.493-.381-.564-.334.2.007.106.017.2.024.3-1.022,1.564-2.023,3.142-2.962,4.761m1.438-2.667c-.1-.154-.154-.389-.251-.531-.28.549-.35.912.251.531m-3.721,88.07c.277-.05.444-.1.335-.142a3.9,3.9,0,0,0-.43-.119c-.487-1.317-1.022-2.61-1.453-3.954.509-.083,1-.173,1.455-.264.12.11.251.06.373-.075,2.371-.5,3.667-1.031,1.461-1.029-.307,0-.655.014-1.019.034.079-.373.046-.653-.2-.477a1.5,1.5,0,0,0-.373.513c-.635.047-1.321.115-2.023.2-.654-2.13-1.217-4.3-1.73-6.49.007,0,.035-.009.041-.013a19.222,19.222,0,0,1,4.787-.343,3.763,3.763,0,0,0,1.675-.145,90.049,90.049,0,0,0,3.824,11.967c-6.1.317-6.4.713-4.9,1.125l4.918-1.075c.119.3.254.588.376.885-1.923.322-4.22.778-6.39,1.288-.248-.626-.5-1.253-.732-1.886m4.674-4.368c.214.175.156.021-.1-.344a2.266,2.266,0,0,0,.244-.188c-.218-.084-.37-.106-.4-.031-.108-.145-.233-.308-.38-.493-1.65-2.065-.149.414.638,1.056m-3.4,1.915c.649.093-.64-1.54-.935-.943-.087.177.546.887.935.943m15.24-102.35a2.544,2.544,0,0,1,.3.053c.853-.9,1.726-1.777,2.608-2.645-.154-.578.469-1.388,2.643-2.634.666-.938.492-1.494-.212-1.83q-2.984,2.689-5.772,5.579a4.087,4.087,0,0,1,.153,1.175,1.114,1.114,0,0,1,.279.3m80.362,168.179a97.181,97.181,0,0,1-20.484-1.062c1.014-1.375,2.456-4.276,2.676-3.642.3.865,1,2.262,1.243,1.348.139-.529.461-1.5.7-2.218,2.272-.113,4.439-.233,6.286-.353.116.317-.373.724-1.759,1.272,4.214-.512,6.376-1.121,6.991-1.676,1.321-.018,2.643-.05,3.975-.126,1.223-.071,2.414-.241,3.623-.359-1.61,1.048-.937,2.235-.183,2.825a2.818,2.818,0,0,0-1.8,1.765c-.533,1.679,2.143-.2,4.73-.47,4.278-.442,1.023-2.011-1.837-1.588a4.483,4.483,0,0,0-.54-2.568q4.392-.445,8.649-1.295a4.652,4.652,0,0,0-1.337,1.4c-.5.855,5.413-2.066,5.168-2.137a2.229,2.229,0,0,0-.481-.006q2.686-.64,5.308-1.434c.382.643-1.255,1.4-2.717,2.285.143-.2.067-.416-.466-.566-.795-.224-1.06.4-1.378.849-.538.759,1.349.295,1.808-.237,3.643-.43,5.792-2.3,4.094-2.758a90.112,90.112,0,0,0,23.677-11.641,7.15,7.15,0,0,1,1.714.055c-.315.139.821.049,2.663-.193-.014.5-.008.962-.035,1.486.023-.491.063-.995.1-1.495.5-.066,1.045-.141,1.637-.229,1.578-.234.48-.425-1.589-.5.064-.848.134-1.727.2-2.6.515-.406,1.047-.791,1.553-1.208a4.023,4.023,0,0,0,1.537.434c1.13.173,1.331.037.447-.3a4.917,4.917,0,0,0-1.678-.371c1.706-1.42,3.348-2.907,4.944-4.444.252,2.59.419,4.847.416,6.226,0,.92,0,1.585,0,2.139a96.882,96.882,0,0,1-57.853,23.4m41.044-15.375a1.849,1.849,0,0,1,.16-.294c-.607-.476-1.011-.679-.16.294M315.286,46.439c-.092.138-.194.268-.286.406.349-.036.709-.07,1.064-.1q-.37-.159-.778-.3m67.1,150.057c-.081-.1-.154-.186-.229-.277-.475.137-.951.269-1.4.385q.777-.049,1.625-.108m-78.918-57.6c.07.2.146.4.218.6.356-.247.808-.578,1.344-.986a12.71,12.71,0,0,0-1.562.389m29.8-103.3c-.524.525-1.009,1.087-1.521,1.623a11.068,11.068,0,0,0,1.713,3.629,2.362,2.362,0,0,1,.712-1.289c-.3-.641-.564-1.187-.732-1.488-.338-.607.138-1.72.87-2.618-.383.056-.707.1-1.042.143M305.952,141a1.011,1.011,0,0,1-.094-.069c-.361.28-.621.366-.694.169-.066-.177-.454-.163-.91-.055.117.312.222.629.342.94.585.015.509.094.081.2.033.086.069.17.1.256a10.31,10.31,0,0,1,1.483-.648c-.1-.265-.21-.529-.311-.795m191.909,2.272a.654.654,0,0,0-.452-.148q-1.89,4.653-4.217,9.079c.623-.037,1.242-.069,1.854-.091q2.1-4.084,3.839-8.366a1.734,1.734,0,0,1-1.024-.474m-3.37-14.063a4.149,4.149,0,0,0,1.495,1.4c-.637,2.279-1.377,4.516-2.171,6.727a27.638,27.638,0,0,0-4.484-.139c-.9.157,2.11.369,4.352.483-.375,1.03-.788,2.042-1.2,3.055q-.5-.118-1.02-.248c-2.683-.671-1.283,1.055.247,2.13-.507,1.184-1.024,2.363-1.576,3.525-1.162-.084-2.7-.216-2.661-.2s.185.053.2.052.023,0,.022,0a3.658,3.658,0,0,0,.346.152c.19.075-.213.064-.253.073a.389.389,0,0,0-.17.233c-.026.112-.313.312-.477.211s.529-.453.535-.5c.014-.117.189-.183-.339-.118a11.38,11.38,0,0,1,.984-1.31c-1.817,2.066-3.263.958-4.677-.022a90.78,90.78,0,0,0,3.871-9.024c2.05.246,4.374-.447,4.229-.592a25.96,25.96,0,0,0-4.075.188,90.292,90.292,0,0,0,2.761-8.87,42.242,42.242,0,0,1,5.4-.4c.508.016.936.029,1.31.038-.2.894-.4,1.789-.633,2.673-1.138-.332-2.528-.263-2.015.484m-.005-2.162c.712.194.6-.043.226-.382-.094.1-.132.268-.226.382M318.558,56.635a3.037,3.037,0,0,1,1.2.6c-.077-.394-.151-.79-.228-1.191-.329.208-.668.443-.97.593M305,138.385c-.426-1.219-.838-2.445-1.219-3.686a8.178,8.178,0,0,1-1.46-.13c-.463-.1.134-.322,1.253-.578q-.616-2.058-1.147-4.153a1.894,1.894,0,0,1-1.284-.619c.483.867.4,1.17-.238.654-.065-.053-.121-.108-.18-.162.1.4.194.8.3,1.2.115-.022.23-.045.373-.071.644-.119.626-.1.019.035-.144.032-.263.056-.38.08q1.018,3.875,2.318,7.623c.431-.064.818-.113,1.139-.145l.506-.049m13.72-96.771c-.046.06-.1.117-.141.178.04-.007.069-.018.111-.024.007-.05.023-.1.03-.154m16.857,1.01-.187-.413a1.085,1.085,0,0,1-.975.123c.192.315.375.633.538.96.211-.221.416-.447.624-.67m-.209-8.126c.026-.319.059-.631.092-.944-.47.442-.983.836-1.443,1.287.291.018.59.034.818.057a4.024,4.024,0,0,1,.533-.4m-16.722,7.741c-.183.024-.281.024-.424.036-.191.257-.364.526-.553.785.319.008.6.055.9.091.028-.306.036-.6.075-.912m11.877,3.405c-.9-.453-1.6-1.014-1.31-1.291a3.933,3.933,0,0,1-1.288-2.908c-1.066,1.252-2.13,2.505-3.13,3.811.115.231.227.464.334.695,1.943-.14,3.773-.247,5.394-.307m-3.5-11.6c0,.085-.009.171-.015.26.089-.091.176-.183.263-.275-.073.006-.169.009-.248.015m-26.139,93.54a4.856,4.856,0,0,1,.136-.518q-.5,0-.936-.028c.053.24.116.475.171.713l.445-.119.184-.048m50.963,66.566c-.295.194-.6.388-.957.582-.106.057-.22.107-.331.16a1.623,1.623,0,0,1-.158.326c1.128.645,2.3,1.218,3.451,1.821.256-.1.579.039.969.512,2.744,1.4,5.531,2.723,8.4,3.88.009-.024.02-.046.03-.069-.057-.023-.133-.04-.187-.064-.168-.076-.033-.126.286-.16.35-.535.985-.609,1.6-.051.578,0,1.23.008,1.915.025a102.114,102.114,0,0,1-15.017-6.961M300.139,91.079c-.589.114-1.152.228-1.677.342-.291,2.294-.517,4.607-.657,6.94.465-.074,1.021-.149,1.638-.223.15-2.374.389-4.727.7-7.059m36.384-67.84c-.413.335-.814.684-1.222,1.026a5.19,5.19,0,0,1,.869.207c.081-.373.213-.809.353-1.233M506.175,95.593c-.557.038-.971-.074-1.049-.409-.193.036-.4.073-.624.109.1,1.1.235,2.188.3,3.3.033.566.04,1.128.046,1.69l.188.085c.462-.153.938-.315,1.424-.485-.009-.46-.016-.919-.043-1.383-.056-.976-.157-1.939-.24-2.906M300.461,122.1c.1-.045.2-.089.3-.133-.318-1.814-.593-3.642-.811-5.491-.4.138-.849.27-1.365.395-.067.06-.126.12-.187.179q.18,1.494.4,2.971c.06.036.1.071.171.106l-.153.009c.074.489.149.978.23,1.465a1.9,1.9,0,0,1,1.4.465c.013.01.011.023.017.034m74.388,81.687-.13-.192c-1.933-.535-3.851-1.1-5.739-1.75-.618.068-1.2.126-1.6.155a9.694,9.694,0,0,1-1.843-.093,3.493,3.493,0,0,1,.212.373c.008.022.011.048.019.07a103.491,103.491,0,0,0,9.878,3.152,15.948,15.948,0,0,1,.108-1.627v0c-.277-.074-.553-.147-.828-.222-.028.045-.051.089-.081.135M306.4,113.048c1.061-.337,1.021-.356.01-.073-.587.165-1.038.3-1.354.4-.064-.688-.118-1.379-.168-2.072.643-.725,1.1-1.524.369-1.733,1.207-3.091,1.761-5.041.109-1.706-.175.354-.383.783-.6,1.245q-.226-4.9.031-9.7c.513-.042,1.034-.087,1.573-.142-.518-.027-1.045-.05-1.566-.072.015-.268.012-.541.029-.809a26.6,26.6,0,0,0,5.914.213c-2.63-.3-1.627-.627.617-.985a90.548,90.548,0,0,0-.113,12.081c.1,1.785.273,3.548.476,5.3-2.848-.06-4.808-.018-4.378.1a11.17,11.17,0,0,1-2.089.277c-.071-.638-.133-1.279-.192-1.921.31-.086.749-.217,1.337-.4m.377-10.175c.158,0,.272.017.409.025.719-.2,1.037-.325-.409-.025m-.025,21.611a5.11,5.11,0,0,0,.8-3.357,8.75,8.75,0,0,0-.8-2.814c.545.114.954-.091.9-1.219l-1.1.943a.589.589,0,0,0-.947-.043c-.085-.6-.2-1.2-.272-1.808a64.57,64.57,0,0,0,6.437-.772c.1.8.236,1.593.354,2.39-.735-.383-.883.629.456,3.994a3.578,3.578,0,0,0,.35.641c.167.83.315,1.666.5,2.486-2.887.5-4.971.833-5.107.8-.05-.011-.579.069-1.275.192-.108-.476-.2-.956-.3-1.435m2.826-8.708c1.869.112,1.451.028.514-.078-.172.026-.314.054-.514.078" transform="translate(-0.069 0)" fill="#262626"/>
      </g>
    </g>
    <circle id="layer2" cx="91.5" cy="91.5" r="91.5" transform="translate(1606 6837)" fill="#f5f3ef"/>
    <g id="Group_806" data-name="Group 806" transform="translate(1635.663 6889.067)" opacity="0.8" clip-path="url(#clip-path-2)" style="isolation: isolate">
      <path id="Path_1904" data-name="Path 1904" d="M69.509,0c3.345.7,6.722,1.285,10.03,2.135A72.664,72.664,0,0,1,99.375,10.67a8.771,8.771,0,0,0,4.206,1.219c6.479.127,12.961.056,20.093.056l-9.957,10.885c14.536,14.385,11,33.6,1.73,43.6-9.165,9.884-27.843,15.216-43.865,2l-9.75,10.433L52.067,68.411C36.207,81.523,17.21,76.666,7.715,65.856-1.821,55-3.605,36.421,9.941,22.848L0,11.945c4.552,0,8.487-.2,12.393.046A27.413,27.413,0,0,0,29.351,8.033C36.54,3.583,44.738,1.391,53.207.461A4.385,4.385,0,0,0,54.328,0ZM31.057,25.021a20.645,20.645,0,0,0-20.79,20.523,20.771,20.771,0,1,0,20.79-20.523m61.624,0A20.546,20.546,0,0,0,71.923,45.533,20.737,20.737,0,1,0,92.681,25.021M39.2,14.561C51.043,19.974,58.989,27.884,61.812,41.1c2.806-13.176,10.849-21.206,22.646-26.556C69.141,8.718,54.493,8.7,39.2,14.561" fill="#262626"/>
      <path id="Path_1905" data-name="Path 1905" d="M50.554,68.3a10.95,10.95,0,1,1-11.2,10.754A10.892,10.892,0,0,1,50.554,68.3" transform="translate(-19.42 -33.706)" fill="#262626"/>
      <path id="Path_1906" data-name="Path 1906" d="M161.231,79.147A10.785,10.785,0,0,1,172.337,68.3a10.95,10.95,0,1,1-11.107,10.847" transform="translate(-79.568 -33.706)" fill="#262626"/>
    </g>
  </g>
</svg>
