<svg xmlns="http://www.w3.org/2000/svg" width="536" height="311.037" viewBox="0 0 536 311.037">
  <g id="six-south-logos-_2_-logo-with-identifier-full-color-rgb" data-name="six-south-logos-(2)-logo-with-identifier-full-color-rgb" transform="translate(0)">
    <path id="logoMark" d="M48.725,116.311s2.672,21.283,1.365,24.982c0,0-5.123-2.261-6.972-4.257s-14.854-5.328-14.854-5.328-1.365-.954-1.571-1.439-4.242-2.055-5.959-1.644-1.981,5.269-1.981,5.269a28.2,28.2,0,0,0,1.717,9.643c1.835,4.858,4.242,13.137,1.439,15.192,0,0-5.592-.793-7.618-1.967s-8.4-1.938-9.937-.44,9.173,17.732,11.375,20.2A76.628,76.628,0,0,1,21.5,184.8s-4.536,5.636-7.28,6.018-5.68.661-6.179,2.789.6,4.814,5.255,6.62,17.951,8.161,27.683,6.018c9.746-2.128,12.095-3.875,13.577-4.1s4.917.7,6.077.1,2.73-3.772,4.051-4.051a11.792,11.792,0,0,0,1.85-.484s-1.424-4.932-.7-5.857,3.67-2.246,8.807,5.578c0,0,0,2.466.543,2.95.558.5,5.035,3.405,5.636,5.093a25.824,25.824,0,0,1,.939,3.728l14.722,15.1s1.629.044,2.026.484.7,1.2,1.145,1.644,3.449,2.51,3.449,2.51a2.373,2.373,0,0,0,1.145,1.7c1.042.6,16.909,10.994,16.909,10.994s4.433,2.8,3.772,5.211a19.8,19.8,0,0,1-3.611,6.238c-.059-.279-3.89,4.036-8.866,2.231s-4.653-3.493-4.976-3.493a24.6,24.6,0,0,1-3.611-1.321c-.22-.161-5.357-5.2-5.313-7.1s-12.52-4.389-12.52-4.389-3.508-.044-4.389-.646a9.563,9.563,0,0,0-5.9-2.906c-3.787-.44-17.129-.983-17.129-.983s-14.781.543-17.291.983,4.213,10.994,4.213,10.994,5.137,7.721,4.154,10.568S32.667,261.3,32.667,261.3s-7.779,1.526-10.891,3.493a39.53,39.53,0,0,0-5.7,4.492s-2.128-.763-2.95,0-2.026,1.967-2.026,1.967-2.906.719-3.288,2.466-2.51,7.559,11.111,7.339a30.756,30.756,0,0,0,11.214,3.391c6.238.543,12.256,3.669,12.7,4.594s-2.026,5.7-3.17,7.442a41.265,41.265,0,0,0-2.466,4.756A7.834,7.834,0,0,0,45.143,303c5.035-1.483,32.013-15.486,32.013-15.486a34.547,34.547,0,0,1-.822,5.959c-.6,1.967-3.449,9.57-3.449,11.654s-.059,4.712-.059,4.712,13.841.7,19.757-3.289,8.322-6.9,9.188-7.222,2.569,0,2.569-1.321,9.144-15.324,9.144-15.324,1.967-2.73,1.527-7.926,3.068-7.178,3.068-7.178c2.084-.6,14.4-7.383,15.984-7.163s2.892,3.171,4.873,3.068a6.275,6.275,0,0,0,4.814-2.348c1.527-1.7,2.848-3.009,3.009-1.806s.044,5.2.983,5.24,10.671-3.831,12.256-3.655a3.2,3.2,0,0,0,2.349-.5s1.321-2.246,2.466-2.246,6.15-2.789,10.04.22-7.221,2.084-9.188,3.948-11.009,9.893-12.476,11.434-4.33,4.535-5.915,5.255-1.306,4.433,1.262,5.9,11.875,4.271,13.24,5.915,2.348,4.756,1.527,11.757-.484,7.941.719,8.381,7.6-2.026,10.51-5.578,10.994-7.721,13.122-9.467a58.161,58.161,0,0,1,10.187-5.857c.7-.059,2.407-3.229,3.669-5.2a15.548,15.548,0,0,0,2.246-12.755c-1.6-6.517-1.1-13.4,1.629-16.146s21.621,3.89,21.621,3.89,7.882,2.686,2.084,6.943c0,0-13.959-.044-15.6.66s2.246,10.612,9.79,14.223,12.652,6.458,12.652,6.458,16.528-1.468,18.656-3.993c0,0,8.807,9.908,18.054,10.348s7.75-2.672,6.106-5.607-6.165-7.956-5.108-10.51,15.485-22.766,15.691-23.69,4.374-11.067.91-22.046c0,0,1.732-6.708-.4-7.427s-9.658,4.374-12.3,8.748a64.419,64.419,0,0,1-5.7,7.926c-1.321,1.732-4.271,11.889-10.671,9.966,0,0-.206-13.827-3.156-14.34s-9.247,8.132-6.4,20.432c0,0,1.292,7.471-6.825,2.334,0,0-2.774-2.319-5.812-1.615,0,0-.088-2-5.49-4.506s-18.759-8.132-19.243-8.264-3.846-2.364.176-5.313,9.555-11.434,10.216-11.434,2.2-2.715,6.12,1.16c3.934,3.89,6.12,5.592,13.4,5.27s8.22-1.2,8.22-1.2-.264-6.913-5.857-9.335c0,0-3.171-2.5-2.848-3.963s12.139-2.055,13.034-1.923,2.627-2.686,6.473-3.89,10.8-4.33,12.109-4.55.9-1.365-5.945-6.517-5.578-4.756-5.093-6.15,9.834-9.952,8.264-13.665-12.77-2.231-15.72-2.055-8.044,3.758-9.027,3.3-1.953.763-1.028-6.517-.617-10.906,4.433-11.214,15.544,3.332,23.309,8.748,10.113,5.857,10.113,6.223.117,1.7,2.334,1.688a2.2,2.2,0,0,1,1.13,1.512c.073.969,6.9,4.08,8.234,5.49s3.229,6.414,5.035,7.222,4.08,2.1,4.8-1.365-.44-12.227-1.453-15.779-.822-7.662-.1-8.22,2.261-.572,1.791-3.89c0,0,7.941-5.959,8.851-7.735s13.959-13.4,14.443-14.076,6.179-2.745,7.339-2.936,4.653-1.717,3.3-3.185-7.148-3.787-21.225-2.877-31.029,1.85-36.035-.91-5.5-5.563-5.5-5.563,4.7-5.079,7.823-6.179,3.361-5.446,3.361-5.446a41.788,41.788,0,0,0-13.577.367s-6.12-1.776-9.365-3.185-5.387-3.67-5.387-5.079,0-9.849,1.042-12.843-.059-8.69,3.3-7.412,11.757,5.446,15.618,6.356,14.81-1.35,17-1.35,7.647-4.58,9.262-4.961,9.717-2.759,11.449-3.156c1.747-.382,11.522-4.183,11.522-4.183s2.833-4.242-4.829-8.161-10.935-8.249-10.935-8.249-10.745-.059-13-2.055-20.389-.248-20.389-.248-3.024-1.16-3.024-2.583,17.54-21.078,25.276-22.9,10.26-2.128,10.26-11.229a24.789,24.789,0,0,0-11.023,1.5c-6.356,2.231-9.908,2.51-10.113,1.82s-.5-9.908-1.189-10.187-1.38-1.659-5.387.763-6.341,3.978-7.5,3.068-.484-8.939-1.615-9.761-2.8-2.216-5.328.5-1.585,7.545-5.519,7.589-2.759-10.73-11.42-10.848c0,0-.6,10.113,1.85,13.563,0,0-.323,1.747-.323,2.055s1.453.4,1.85,2.011,2.539,17.32,1.835,18.392-2.084,0-2.73-1.16-7.045-10.143-11.038-12.007a1.962,1.962,0,0,1-.161-1.953c.572-.9-2.422-1.644-2.422-1.644s-7.985-6.708-9.071-8.5S223.453,14.621,219.9,16.338s-2.393,23.294.631,27.433,7.236,9.394,6.238,11.566-10.686-1.982-10.686-1.982-8.22-2.965-12.785-1.673,5.989,13.724,6.238,16.439.308,4.33,2.466,6.253,15.823,10.319,17.115,11.244,5.079,4.756,24.542,3.082c0,0,2.1,8.5-5.445,18.362,0,0-19.948-9.056-21.562-10.231s-4.022.5-4.506-.5.617-2.348-4.08-2.892S193.1,77.678,176.91,78.353c-13.548.572-15.074.661-15.206.69,0,0-7.853,3.332-8.836.793s-2.04-7.3-1.732-9.453S145.88,63.7,146.32,60.49s16.19-16.5,23.1-14.326,12.432,2.466,13.357,1.908.675-3.948-3.273-5.622a6.812,6.812,0,0,1-4.315-5.181s21.444,1.953,22.883,0,1.306-7.456-17.658-13.21c0,0-13.592-8.367-15.163-8.367s.925-3.787-5.754-5.754a6.439,6.439,0,0,1-.881-1.879c0-.514-1.659.264-1.967-.22a15.891,15.891,0,0,1-.851-1.7c-.47-1.042-11.287-5.078-14.942-5.4S127.415-1.994,117.7,4.185s-14.693,9.247-15.162,9.615S90.5,35.406,88.972,39.383s-6.12,18.553-6.12,25.378c0,0-4.99,4.183-6.37,4.183-1.365,0-1.468,1.673-2.6,2.5s-3.009,2.51-4.389,1.233,4.374-25.3,6.708-32.013.836-30-4.565-28.431S61.23,17.616,60.129,17.91s-3.875,6.165-5.563,8.058-4.286,8.557-4.887,9.35S47.8,41.395,46.6,46.473c-1.189,5.064-6.062,3.171-9.056,1.879s-17.7-9.746-17.7-9.746-2.187,4.271,1.894,18.8S26,72.512,26,72.512s-6.913.9-11.082-1.982S7.67,66.567.889,67.316c0,0-2.73,9.379,1.38,15.808s21.21,23.955,21.21,23.955,4.447,3.684,6.84,4.168S48.725,116.311,48.725,116.311ZM270.143,73.628a5.755,5.755,0,0,1,3.581-1.439c4.345-.191,14.6-.572,16.88.1,2.906.866,4.4,1.644,8.645,1.571s9.57,3.112,11.757,3.185,5.181.851,5.24,2.407-.837,2.481-7.721,1.5-5.446,2.906-5.446,2.906-.293,2.5-5.24.822-5.534.866-5.534.866.925,2.481-.073,2.627-5.446-.851-8.645,0-11.831,2.407-15.016-.279C265.579,85.355,262.261,80.541,270.143,73.628Zm-8.983-39.9s2.451-.293,2.8,1.732,1.233,6.781,4.917,3.317,1.013-6.708,2.745-7.647,3.1.793,3.391,2.451.573,4.624.573,4.624,2.965.352,3.112,1.805,4.139-5.2,8.293-3.611c0,0,.44,3.317-1.805,4.756s-4.33,2.745-5.269,4.55-4.829,6.576-4.9,7.515-5.269,3.611-6.649,3.244-4.11-4.55-4.11-6.062-3.1-16.674-3.1-16.674Zm3.64,121.784c4.315-2.76,8.058-8.279,9.687-8.557s10.451-2.407,10.451-2.407.822,2.158,6.326,1.732a75.159,75.159,0,0,1,14,.675c-2.877,2.29-12.843,2.011-12.652,2.965s7.28,3.831,5.945,4.7-3.068.778-5.372.382-4.506-.572-4.609.514a5.365,5.365,0,0,0,2.5,4.1c1.629,1.057,1.35,3.171.191,3.068s-3.831-1.248-7.853-1.717-4.139,1.717-4.139,1.717l.866,2.789a13.37,13.37,0,0,1-4.125-.778c-2.113-.763-4.7-2.5-6.429-3.068s-7.853-1.908-7.853-1.908-1.247-1.439,3.068-4.2ZM227.533,61.459c2.642.675,9.306,5.709,9.908,5.768.617.073.822,1.835.822,1.835,2.642-.543,2.3.338,2.3,1.292s.822,3.126,2.1,3.185,2.51,1.086,4.492,2.246a4.153,4.153,0,0,0,2.172.807,8.311,8.311,0,0,0,1.482,4.55,4.978,4.978,0,0,1,1.16,3.537s-20.564-3.332-21.048-5.636-9.086-7.677-9.086-7.677-3.537-3.391-5.372-5.431-1.629-5.768-1.629-5.768C223.32,59.287,224.891,60.784,227.533,61.459Zm25.056,11.61s-2.657-5.5-4.624-7.266-4.756-7.735-6.312-9.306a45.211,45.211,0,0,0-6.649-4.4c-6.106-7.6-5.5-18.67-5.5-18.67h2.847c.484,2.657,9.512,9.232,11.4,10.935a22.324,22.324,0,0,1,3.405,4.007c4.536,1.086,2.715,2.642,2.715,2.642l1.894,2.583a9.246,9.246,0,0,1,4.418,8.352,23.932,23.932,0,0,0,2.172,9.629c2.231,4.624,0,7.06,0,7.06C255.3,78.574,252.589,73.07,252.589,73.07ZM232.861,271.547c3.831-1.394,9.732-.807,10.686,0s8.543,1.923,8.1,7.589c0,0-9.2.969-15.471-.367s-10.539-3.831-10.392-5.666S229.03,272.956,232.861,271.547ZM57.253,283s4.007-9.893,8.455-10.524,3.479.778,3.479.778-1.248,3.934-3.625,4.77-3.581,4.345-5.709,4.609S57.253,283,57.253,283Zm-3.67-15.808c-.044.822-1.864,4.007-5.005,3.141s-6.429,1.732-9.467,2.143-5.152.822-5.7-.455,2.5-2.407,2.5-2.407.191-.235,7.794-2.422S53.583,267.187,53.583,267.187Zm8.792-17.144c.4,0,7.779,2.716,11.449,3.053s4.081,0,4.081,0a61.847,61.847,0,0,0,5.842,2.481c6.253,2.539,6.091,5.754,6.091,5.754-1.967,1.409-8.733.22-11.9-.514s-8.954-.22-8.954-.5-5.475-3.89-8.073-5.783a11.8,11.8,0,0,1-3.655-4.492Zm33.774,4.169s-3.009,1.38-7.75-1.629c-2.7-1.717-4.213-1.38-5.02-1.2a1.472,1.472,0,0,1-1.277-.264,5.571,5.571,0,0,0-3.948-1.38c-4.389,0-10.334-3.7-10.334-3.7s-8.865-.088-9.13-1.805,4.227-3.611,4.477-3.7,3.2,1.629,5.093,1.542,15.4,1.292,18.421,3.963,3.523,3.185,3.523,3.185,8.793,1.467,5.945,4.99ZM32.3,85.693c10.48,5.108,8.66,11.772,8.66,11.772C29.379,99.931,18.987,85.517,18.8,85.15s1.556-3.376,1.556-3.376S21.805,80.585,32.3,85.693ZM68.892,42.7c-1.424,7.647-3.772,17.555-3.772,17.555l-5.005,9.056s-3.493-15.574-.661-22.458,7.735-14.634,6.987-16.7,2.451.749,2.451.749S70.3,35.053,68.892,42.7ZM65.105,99.945a.327.327,0,0,1,.1-.1c1.629-1.16,1.057-5.768,1.057-5.768,4.7-1.85,1.321-2.011,5.123-6.135s7.192-2.965,7.192-2.965C80.077,92.21,65.59,99.945,65.105,99.945ZM243.9,147.987c-2.994.059-3.86,1-3.523,2.128s4.2,3.743,4.125,5.4-4.2.264-5.93,2.128-3.8.264-4.462,1.13-.734,1.468,0,3.332-.132,3.259-4.594,2.2a23.792,23.792,0,0,1-7.06-2.8s-1.277-2.672-.807-4.066-4.2-.161-4.257-1.115-2.2-.484-2.73.455,1.527,4.066,3.86,5.592,1.527,3.934-2.671,2.3-11.052-6.9-14.384-5.842,5.519,7.53,5.2,9.262-8.528-1.791-13.665-6.194-7.06-.66-2.862,2.334,3.728,6.194,3.728,6.194-11.053-3.655-14.59-6.723-6.664-4.873-6.531-3.669,4.932,4.007,4.932,4.536a4.784,4.784,0,0,0,2.261,3.992A5.952,5.952,0,0,1,183.4,174.1s-3.6-.47-4.594-2.862-3.655-1.2-6.4-3.669-10.921-9.6-14.326-9.321c0,0-2,2.657,0,4.257s10.6,9,9.13,10.656-5.93-1.659-6.062-2.921-1.145.132-1.879-.411a5.837,5.837,0,0,1-1.321-2,1.114,1.114,0,0,1-1.923,0c-1.071-1.262-8-8.851-9.467-10s-4.462-1.659-1.659,2.671,4.991,2.8,4.991,4.33a8.046,8.046,0,0,0,1.6,4.33,24.935,24.935,0,0,1,1.981,4.257c-.308-.161-5.24-2.774-6.913-4.594-1.732-1.864-7.456-8.117-9.13-9.923s-3.8-1.072-1.6,1.6,8.264,9.189,8.264,12.653-5.534-1.262-6.531-3.6-7.324-10.392-9.056-11.258-2.994,1.13-2.128,3.537,8.058,8.836,8.117,12.785-6.326-4.99-7.192-6.12a14.586,14.586,0,0,0-5.666-3.537c-1.321-.206-1.659,2-1.659,2l1.982,5.519a17.336,17.336,0,0,1-8.91-8.91s-1.453-1.732-3.6,1.394-3.67-.866-3.67-.866-4.2-7.06-8.792-7.53a10.577,10.577,0,0,0-3.405-7.926c-3.655-3.2-4.2-10.73-4.2-12.667s1.835-14.282,12.124-3.993c0,0,3.141,2.936,4.139,2.8s.866-4.638-3.068-6.855.793-3.684,1.262-4.007,1.688-3.435-3.038-5.4a9.555,9.555,0,0,1-5.578-6.546s5.534-.191,2.5-3.9-2.231-2.833-4.653-3.978,1.527-1.864,1.306-2.789,4.565,4.2,5.681,4.2,2.98-.631,1.086-2.98a91.294,91.294,0,0,0-6.106-7.544c-2.407-2.422-.44-3.42,1.747-3.449s-1.6-6.033-1.6-6.033c-.661-.015-5.651-15.427-1.879-24.38,0,0,6.458-23.573,8.352-26.332s8.44-7.251,8.44-7.251,3.948-9.615,7.09-9.379c0,0,.793,1.409,1.585,3.068s6.312-3.86,6.312-3.86,4.4-6.077,6.781-3.626,1.805,1.732,4.638,1.028,3.479-3.714,6.546-.631,4.066,1.791,6.282.308,3.42-1.218,3.919.617a85.22,85.22,0,0,0,3.508,7.926s13.489,1.688,19.287,4.712c0,0-2.07,2.011-8.572.925s-5.842,3.626-5.842,3.626,7.559,5.607,10.73,5.93a20.912,20.912,0,0,1-13.563.94c-6.928-2.158-9.086,3.758-9.086,3.758s-6,7.148-14.8,6.576-9.145.455-9.145.455-4.58,4.271-5.783,5.563.264,3.537.264,3.537l5.915,2.5c.382,1.424.455,3.024-2.055,3.684-2.5.66-3.112,4.359-3.112,4.359a9.022,9.022,0,0,0,6.444,1.116c3.362-.866-2.979,6.444-2.979,6.444s-4.58,5.768-5.02,10.084.044,5.2.044,5.2,4.418.118,6.312-2.8,3.024-2.789,3.024-2.789,1.938,1.981-.338,4.961-3.787,5.46-2.539,8.19c0,0,4.477-.44,5.358-3.42s3.875-5.812,5.02-5.108-2.672,8.146-2.672,8.146a6.219,6.219,0,0,0,0,7.207c2.583,3.963,4.668-2.393,4.668-2.393s2.128,2.539,2.98,3.523,2.877.851,2.877-.088,1.394-4.976,3.479-3.391-.044,4.521-.044,4.521,1.585,1.1,3.772-2.128,4.624-8.293,7.941-9.335,11.229-3.038,12.52-5.123,25.833-1.145,26.729,4.022c0,0-7.148-1.439-9.732-1.189a34.787,34.787,0,0,0-4.58.749s-1.086,3.772,3.185,6.062c0,0,9.086.793,11.728,2.525,2.627,1.747,5.636-.822,8.792.939s.954,2.481-1.086,2.745-5.225-1.35-9.746-.367a14.714,14.714,0,0,1-8.161-.6s-2.671-.573-4.139.9-1.248,1.879-1.248,1.879,5.578,3.317,8.778,3.611a36.3,36.3,0,0,1,8.19,2.451s.455,3.156-11.8.073-19.419-.866-19.419-.866a5.266,5.266,0,0,0,5.123,5.049c5.108.558,10.421.338,13.768,1.38s7.413,3.508,9.1,3.508,6.135-.484,7.97.969c1.85,1.468,11.185,1.439,11.185,1.439a9.553,9.553,0,0,1,5.372.411,25.1,25.1,0,0,0,6.18,1.321s9.585-1.277,9.966,4.242c0,0-2.818,1.7-7.031-.749s-17.731-1.571-17.731-1.571L205,130.446s-6.473-.793-9.746,1.879,3.992,3.273,2.334,5.387c0,0-15.118-1.805-16.777-2.862s-2.525-3.391-5.269-3.611a67.645,67.645,0,0,1-9.365-2.29s-1.542,2.7,1.542,7.486c0,0,9.291,4.315,11.728,5.709s9.409,5.005,11.111,4.976,2.1-.866,2.1-.866l16.146.484s17.188.22,18.891.793c0,0,4.051-2.789,11.654-2.98a81.64,81.64,0,0,0,11.185-.822,7.29,7.29,0,0,1,.161,6.913s-3.787-2.729-6.8-2.656Zm-12.975,65.8c1.5-4.242,5.739-.587,6.238-3.831s2-2.906,2-2.906c6.473-4.726,23.588-.573,23.588-.573,0,2.158-8.146,5.725-10.143,6.385a3.849,3.849,0,0,0-1.585.91,1.835,1.835,0,0,1-1.409.543,17.629,17.629,0,0,0-2.319.132c-3.067.338-17.863,3.567-16.366-.66ZM177.363,234.7s-.9-6.546.367-8.279c1.512-2.055,4.55-14.752,4.55-14.752a9.926,9.926,0,0,1,3.273-8.733c2-2.011,2.906-10.289,2.906-10.289s1.013-1.365,6.737-4.2,9.834,0,17.217-5.372,10.466-3.816,10.466-3.816c3.552-3.728,15.383-6.106,15.383-6.106l.822,4.829c.822,4.829-1.908,4.007-1.908,4.007l-1.453,1.908a5.993,5.993,0,0,1-1.1,5.284c-6.282.734-7.1-5.651-12.564-5.2s-3.919,18.127-7.1,18.671-10.465-7.559-13.107-8.014a22.523,22.523,0,0,0-5.636-.088c-3.831,2.906-3.185,9.467-3.185,9.467s2.363,18.392,8.733,19.023,8.1,3.1,8.1,3.1c-5.548,20.945-32.5,8.557-32.5,8.557Zm31.749-12.227c-2.994-.661-5.974-4.1-6.811-6.855s-4.7-10.363-4.785-11.64a2.764,2.764,0,0,1,.881-2.114s6.752,7.031,10.319,11.067.4,9.541.4,9.541ZM195.447,264s1.571,12.785-6.12,21.181a7.934,7.934,0,0,1-1.306,3.288c-1.042,1.306-3.435,1.453-4.477,2.348s-2.261,4.946-8.322,7.016-5.357-5.989-5.357-5.989,1.38-4.814,3.713-6.605.338-4.33,1.306-5.709S187.976,261.3,195.447,264Zm-18-19.228c1.585,5.49-4.169,4.888-4.169,4.888-.7-5.372,4.169-4.888,4.169-4.888Zm-18.157,7.574c-.294-2.642,2.055-6,2.877-6.855a32.963,32.963,0,0,0,2.04-2.613c3.611.294,2.084,4.887,1.16,7.266a8.513,8.513,0,0,1-3.948,4.169c-.631.22-1.82.676-2.128-1.967Zm-2.95-17.951c-1.409-5.358,8.22-21.43,9.394-24.938a14.964,14.964,0,0,1,2.73-5.167c-.969-7.985,3.611-11.889,3.611-11.889h3.787c3.508,3.992-.279,17.731-.4,19.008s-2.231,3.112-1.542,4.77,0,5.064-.7,6.3-2.216,9.291-2.216,9.291-13.253,7.985-14.662,2.628Zm-7.589,10.715c1.189-3.537,6.326-3.875,6.326-3.875a6.3,6.3,0,0,0,.646,1.835c.558,1.115,1.292,5.093-.646,5.768a1.9,1.9,0,0,0-1.482,2.275,4.5,4.5,0,0,1-3.684,3.581s-2.348-6.048-1.159-9.585Zm-12.931.939c0-1.805,1.629-4.125,2.026-4.609s2.759.881,2.759.881.044,3.684-1.057,5.651-3.728,1.365-3.728,1.365Zm-34.845-46.808h2.539a40.827,40.827,0,0,1,7.574,25.452s-9.717-12.829-10.113-18.274a30.655,30.655,0,0,1,0-7.178Zm-38.53-52.122c.235-4.492-2.6-2.364-2.6-6.855,0-4.506-.939-15.97,1.071-18.45s14.9-1.893,18.553-3.082,2.6,2.73.954,5.211-2.847,7.677-2.246,13.709,3.89,17.027,3.89,17.027a14.049,14.049,0,0,1,5.915,8.513c1.306,5.8,9.937,8.983,10.289,8.983s3.068-.7,3.9.367,12.652,9.57,21.283,10.51c0,0,4.271,2.818,6.752,3.258s23.984,3.449,29.048,3.376c0,0-3.523,18.2-4.242,20.681s-5.3,18.92-6.605,19.625-10.744,1.659-12.594-1.292-3.963-23.764-6.693-28.138-3.772-8.044-7.207-6.62-3.9,6.737-8.279,4.257c-4.374-2.5-6.987-11.478-12.829-11.713s-7.985,11.346-7.985,11.346-4.726-.118-11.7-12.887-11.346-15.485-13-19.625S62.214,151.612,62.449,147.121ZM35.764,173.38c1.938.176,2.906,4.066,6,5.123a3.369,3.369,0,0,1,2.3,4.066,14.945,14.945,0,0,1-8.836-3.625c-16-1.585-18.289-11.654-18.289-11.654a4.751,4.751,0,0,1,5.387,1.673c2.466,2.921,7.956.969,8.836,2.833S33.812,173.2,35.764,173.38Zm16.249-23.147c.881,0,6.634,11.669,9.8,16.528,3.186,4.858,1.424,7.06,1.424,7.06-7.691.264-4.77-4.506-4.77-4.506a18.368,18.368,0,0,0-2.657-5.739,8.122,8.122,0,0,0-4.418-2.833c-.44-2.466-6.444-7.589-6.444-7.589s-10.069-7.339-8.308-9.541,9.188.793,9.188.793-1.233,2.026,2.657,2.818c3.875.807,2.642,3.009,3.522,3.009ZM45.158,85.15c.455-2.275-.734-2.73-.734-2.73C41.973,80.233,34.4,66.186,34.4,66.186s-5.3-9.5-1.556-11.229,11.038,4.2,11.038,4.2a62.491,62.491,0,0,0,5.93,13.68,14.623,14.623,0,0,1,1,12.858s-6.106,1.732-5.651-.543ZM122.13,26.937c-1.086,1.6-2.055,4.125.294,4.8,2.334.69,4.389.176,6.341,2.745s2.686,3.993,5.93,3.993,5.034-2.158,6.8-1.7-.059-5.651-.059-5.651a32.262,32.262,0,0,1-6.326-4.066s5.416-.4,7.471.514,3.376-2.789.4-3.141-2.965-1.938-10.554-1.145C124.816,24.089,123.216,25.351,122.13,26.937Z" transform="translate(0 0)" fill="#d3dccf" opacity="0.5"/>
    <g id="type" transform="translate(210.305 60.826)">
      <path id="type_CompoundPathItem_" data-name="type &lt;CompoundPathItem&gt;" d="M209.313,79.565V69.773c0-5.783-2.788-8.046-7.736-8.046s-7.736,2.263-7.736,8.046v4.948c0,4.328,1.549,5.877,5.671,8.252l9.388,5.154c6.187,3.5,10.1,7.013,10.1,13.923v10c0,10.834-6.29,15.059-17.218,15.059h-.207c-10.937,0-17.227-4.13-17.227-15.059V99.778h9.491V110.4c0,5.679,2.779,8.252,7.839,8.252s7.839-2.573,7.839-8.252v-5.671c0-4.328-1.549-6.187-5.783-8.553l-9.276-5.163c-6.6-3.812-10.111-6.91-10.111-13.819v-9.07c0-10.42,7.22-14.852,17.124-14.852h.207c9.9,0,17.115,4.432,17.115,14.852V79.565Z" transform="translate(-184.152 -53.269)" fill="#2b4335"/>
      <path id="type_CompoundPathItem_2" data-name="type &lt;CompoundPathItem&gt;" d="M259.433,127.107V53.269h9.92v73.839Z" transform="translate(-173.5 -53.269)" fill="#2b4335"/>
      <path id="type_CompoundPathItem_3" data-name="type &lt;CompoundPathItem&gt;" d="M337.756,89.347l14.875,37.76H342.289L331.639,98.1,321.4,127.107H311.175l15.086-37.866L312.336,53.269h10.439l9.286,26.9,8.855-26.9h10.131Z" transform="translate(-166.16 -53.269)" fill="#2b4335"/>
      <path id="type_CompoundPathItem_4" data-name="type &lt;CompoundPathItem&gt;" d="M209.425,172.713v-9.9c0-5.849-2.82-8.138-7.824-8.138s-7.824,2.289-7.824,8.138v5c0,4.378,1.567,5.944,5.736,8.347l9.5,5.213c6.257,3.542,10.218,7.093,10.218,14.082v10.113c0,10.958-6.362,15.231-17.415,15.231H201.6c-11.062,0-17.424-4.178-17.424-15.231V193.157h9.6V203.9c0,5.744,2.811,8.347,7.929,8.347s7.929-2.6,7.929-8.347v-5.736c0-4.378-1.567-6.257-5.849-8.651l-9.382-5.222c-6.675-3.856-10.226-6.988-10.226-13.978v-9.173c0-10.539,7.3-15.022,17.32-15.022h.209c10.009,0,17.311,4.482,17.311,15.022v11.575Z" transform="translate(-184.177 -40.097)" fill="#2b4335"/>
      <path id="type_CompoundPathItem_5" data-name="type &lt;CompoundPathItem&gt;" d="M264.727,146.115h.827c11.062,0,17.738,4.691,17.738,15.44v43.8c0,10.749-6.676,15.44-17.738,15.44h-.827c-11.062,0-17.737-4.691-17.737-15.44v-43.8C246.99,150.7,253.665,146.115,264.727,146.115Zm.409,66.024c5.431,0,8.347-2.185,8.347-8.66V163.426c0-6.467-2.916-8.651-8.347-8.651s-8.338,2.185-8.338,8.651v40.053C256.8,209.954,259.714,212.139,265.136,212.139Z" transform="translate(-175.265 -40.097)" fill="#2b4335"/>
      <path id="type_CompoundPathItem_6" data-name="type &lt;CompoundPathItem&gt;" d="M349.49,205.184c0,11.081-6.54,15.614-17.727,15.614h-.414c-11.187,0-17.727-4.427-17.727-15.614V146.116h9.92v57.168c0,6.549,2.526,8.758,8.01,8.758s8.018-2.209,8.018-8.758V146.115h9.92Z" transform="translate(-165.813 -40.097)" fill="#2b4335"/>
      <path id="type_CompoundPathItem_7" data-name="type &lt;CompoundPathItem&gt;" d="M410.868,154.873H397.99V220.8h-9.911V154.873H375.21v-8.758h35.656Z" transform="translate(-157.075 -40.097)" fill="#2b4335"/>
      <path id="type_CompoundPathItem_8" data-name="type &lt;CompoundPathItem&gt;" d="M446.712,146.115v31.854h17.4V146.115h9.92V220.8h-9.92V186.832h-17.4V220.8h-9.92V146.115Z" transform="translate(-148.339 -40.097)" fill="#2b4335"/>
    </g>
    <g id="tagline" transform="translate(309.634 262.618)">
      <path id="tagline_CompoundPathItem_" data-name="tagline &lt;CompoundPathItem&gt;" d="M280.7,253.143l-3.776-9.889h-3.984v9.889h-1.776V230.214h5.408c3.472,0,5.232,1.648,5.232,4.848v3.344c0,2.48-1.04,4.032-3.136,4.576l3.92,10.161Zm-.656-15.3v-2.192c0-2.72-1.024-3.792-3.6-3.792h-3.5v9.793h3.5C279.021,241.655,280.045,240.535,280.045,237.846Z" transform="translate(-271.165 -229.958)" fill="#6e8e80"/>
      <path id="tagline_CompoundPathItem_2" data-name="tagline &lt;CompoundPathItem&gt;" d="M296.52,229.99h.272c3.472,0,5.232,1.632,5.232,4.848v13.745c0,3.216-1.76,4.848-5.232,4.848h-.272c-3.472,0-5.232-1.632-5.232-4.848V234.838C291.287,231.59,293.047,229.99,296.52,229.99Zm.144,21.81c2.576,0,3.6-1.088,3.6-3.792V235.43c0-2.72-1.024-3.808-3.6-3.808-2.592,0-3.616,1.088-3.616,3.808v12.577c0,2.7,1.024,3.793,3.616,3.793Z" transform="translate(-268.31 -229.99)" fill="#6e8e80"/>
      <path id="tagline_CompoundPathItem_3" data-name="tagline &lt;CompoundPathItem&gt;" d="M316.951,229.99h.272c3.472,0,5.232,1.632,5.232,4.848v13.745c0,3.216-1.76,4.848-5.232,4.848h-.272c-3.472,0-5.232-1.632-5.232-4.848V234.838C311.718,231.59,313.479,229.99,316.951,229.99Zm.144,21.81c2.576,0,3.6-1.088,3.6-3.792V235.43c0-2.72-1.024-3.808-3.6-3.808-2.592,0-3.616,1.088-3.616,3.808v12.577c0,2.7,1.024,3.793,3.616,3.793Z" transform="translate(-265.411 -229.99)" fill="#6e8e80"/>
      <path id="tagline_CompoundPathItem_4" data-name="tagline &lt;CompoundPathItem&gt;" d="M332.261,230.214h8.881v1.648h-7.1v8.993h6.08V242.5h-6.08v10.641h-1.776Z" transform="translate(-262.497 -229.958)" fill="#6e8e80"/>
      <path id="tagline_CompoundPathItem_5" data-name="tagline &lt;CompoundPathItem&gt;" d="M359.129,231.862h-4.32v21.281h-1.776V231.862h-4.32v-1.648h10.417Z" transform="translate(-260.163 -229.958)" fill="#6e8e80"/>
      <path id="tagline_CompoundPathItem_6" data-name="tagline &lt;CompoundPathItem&gt;" d="M372.708,229.99h.272c3.472,0,5.232,1.632,5.232,4.848v13.745c0,3.216-1.76,4.848-5.232,4.848h-.272c-3.472,0-5.232-1.632-5.232-4.848V234.838C367.476,231.59,369.236,229.99,372.708,229.99Zm.144,21.81c2.576,0,3.6-1.088,3.6-3.792V235.43c0-2.72-1.024-3.808-3.6-3.808-2.592,0-3.616,1.088-3.616,3.808v12.577c0,2.7,1.024,3.793,3.616,3.793Z" transform="translate(-257.501 -229.99)" fill="#6e8e80"/>
      <path id="tagline_CompoundPathItem_7" data-name="tagline &lt;CompoundPathItem&gt;" d="M398.66,235.062v3.6c0,3.216-1.76,4.848-5.232,4.848H389.8v9.633h-1.776v-22.93h5.408C396.9,230.214,398.66,231.862,398.66,235.062Zm-1.76.592c0-2.72-1.024-3.792-3.6-3.792h-3.5v10.017h3.5c2.576,0,3.6-1.088,3.6-3.808Z" transform="translate(-254.587 -229.958)" fill="#6e8e80"/>
      <path id="tagline_CompoundPathItem_8" data-name="tagline &lt;CompoundPathItem&gt;" d="M427.8,241.223c2.16.32,2.688,2.128,2.688,3.632v3.776c0,2.608-1.7,4.512-5.168,4.512h-5.408V230.214h5.472c3.472,0,4.976,1.9,4.976,4.528v2.88C430.361,239.095,429.833,241.031,427.8,241.223Zm-6.112-.752h3.632c2.16,0,3.28-.816,3.28-2.56v-2.656c0-2.288-.864-3.44-3.28-3.44h-3.632Zm3.76,1.632h-3.76v9.441h3.76c2.416,0,3.28-1.152,3.28-3.44v-3.44c0-1.744-1.12-2.56-3.28-2.56Z" transform="translate(-250.062 -229.958)" fill="#6e8e80"/>
      <path id="tagline_CompoundPathItem_9" data-name="tagline &lt;CompoundPathItem&gt;" d="M447.765,247.255H441.6l-1.264,5.888h-1.776l5.1-22.929H445.7l5.184,22.929h-1.84Zm-.352-1.616L444.692,233l-2.72,12.641Z" transform="translate(-247.416 -229.958)" fill="#6e8e80"/>
      <path id="tagline_CompoundPathItem_10" data-name="tagline &lt;CompoundPathItem&gt;" d="M468.938,253.143l-3.776-9.889h-3.984v9.889H459.4V230.214h5.408c3.472,0,5.232,1.648,5.232,4.848v3.344c0,2.48-1.04,4.032-3.136,4.576l3.92,10.161Zm-.656-15.3v-2.192c0-2.72-1.024-3.792-3.6-3.792h-3.5v9.793h3.5c2.576,0,3.6-1.12,3.6-3.808Z" transform="translate(-244.46 -229.958)" fill="#6e8e80"/>
    </g>
  </g>
</svg>
