<svg xmlns="http://www.w3.org/2000/svg" xmlns:xlink="http://www.w3.org/1999/xlink" width="196.402" height="60.828" viewBox="0 0 196.402 60.828">
  <defs>
    <clipPath id="clip-path">
      <rect id="Rectangle_695" data-name="Rectangle 695" width="196.402" height="60.828" fill="#fff"/>
    </clipPath>
  </defs>
  <g id="HP_FLORAL_DESIGN_ELEMENT" data-name="HP/ FLORAL DESIGN ELEMENT" clip-path="url(#clip-path)">
    <path id="Path_970" data-name="Path 970" d="M183.1,38.522l-.326-.326.505.473a19.741,19.741,0,0,0,13.118,4.96s-7.7-12.775-16.186-8l-5.287-5.286c-2.3-2.3-6.151-4.34-10.736-5.89.767-.473,1.518-.962,2.2-1.452l.865-.18a22.45,22.45,0,0,0,3.459-.946,2.427,2.427,0,0,0,0,.489c.147,3.622.376,3.9.522,4.063l.408.473.522-.343c.261-.18,1.208-.816,2.317-1.729.212.93.31,1.6.31,1.6l.277,1.8,1.012-1.5a24.957,24.957,0,0,0,1.778-3.116c.115.114.229.245.343.359,2.676,2.448,3.034,2.464,3.247,2.5l.62.032.13-.6a25.875,25.875,0,0,0,.408-2.871c.8.522,1.354.914,1.37.93l1.469,1.077-.359-1.794a26.266,26.266,0,0,0-.963-3.46c.163.016.343.016.506.016,2.839-.114,3.606-.293,3.9-.44a.725.725,0,0,0,.162-.1l.473-.392-.343-.539a26.265,26.265,0,0,0-1.729-2.316c.93-.2,1.6-.311,1.615-.311l1.794-.277-1.518-1.028a26.509,26.509,0,0,0-3.1-1.763l.343-.343c2.431-2.659,2.48-3.035,2.48-3.23l.065-.637-.62-.131a27.031,27.031,0,0,0-2.856-.408,14.341,14.341,0,0,1,.913-1.354l1.061-1.485-1.778.343a28.682,28.682,0,0,0-3.443.962,4.854,4.854,0,0,0,0-.489c-.164-3.622-.392-3.884-.538-4.046l-.408-.489-.523.359c-.244.163-1.191.8-2.317,1.713-.212-.93-.31-1.583-.31-1.6L177.671,0l-1.012,1.5A27.39,27.39,0,0,0,174.9,4.617c-.114-.13-.228-.228-.342-.359-2.659-2.447-3.019-2.464-3.248-2.5l-.619-.033-.131.621a25.272,25.272,0,0,0-.408,2.855c-.8-.505-1.354-.913-1.371-.913L167.31,3.214l.359,1.778a24.009,24.009,0,0,0,.947,3.459,4.716,4.716,0,0,0-.49-.016c-3.606.164-3.9.408-4.046.539l-.489.408.342.538c.163.228.8,1.192,1.713,2.3-.913.2-1.566.31-1.582.31l-1.8.294,1.5,1.012a24.374,24.374,0,0,0,5.695,2.79,19.982,19.982,0,0,1-1.811,3.459,59.861,59.861,0,0,1-5.532,3.737A57.561,57.561,0,0,0,144.075,21.5a27.981,27.981,0,0,0-10.7,2.3c.6-2.35,1-6.4.767-13.4,0,0-10.736,10.181-4.8,16.4l-.033.032a30.066,30.066,0,0,1-4.5,4.275c-10.9.457-14.815,2.529-16.153,3.655-.179,0-.359,0-.554-.016a34,34,0,0,0,2.741-3.687l1.892-2.97-3,1.844a10.206,10.206,0,0,1-2.692.946,26.352,26.352,0,0,0,1.028-3.084l.652-2.5-1.681,1.925a9.033,9.033,0,0,1-3.883,2.186c-.032.016-.065.016-.1.033a34.828,34.828,0,0,0-.734-5.711l-.751-3.426-.832,3.41a12.613,12.613,0,0,1-3.312,5.123,6.343,6.343,0,0,0-.457.506,32.372,32.372,0,0,0-5.842-4.781L88.158,22.7l1.827,2.986a10.975,10.975,0,0,1,1.175,4.177,8.7,8.7,0,0,1-3.981-1.028l-2.154-1.4,1.322,2.219a22.859,22.859,0,0,0,1.892,2.791,33.735,33.735,0,0,0-4.454.652l-.1.016a50.46,50.46,0,0,0-12.107-1.7,30.108,30.108,0,0,1-4.5-4.275l-.032-.032c5.939-6.217-4.8-16.4-4.8-16.4-.228,7,.163,11.046.767,13.4a27.974,27.974,0,0,0-10.7-2.3,57.575,57.575,0,0,0-18.046,2.317,59.652,59.652,0,0,1-5.531-3.737,19.924,19.924,0,0,1-1.811-3.459,24.332,24.332,0,0,0,5.694-2.791l1.5-1.011-1.795-.294c-.016,0-.669-.114-1.583-.311.914-1.109,1.55-2.072,1.713-2.3l.343-.539-.489-.407c-.147-.131-.44-.376-4.047-.538-.179,0-.327,0-.489.016a24.089,24.089,0,0,0,.946-3.459l.359-1.778L27.608,4.584c-.016,0-.571.408-1.37.913a25.507,25.507,0,0,0-.408-2.855l-.131-.62-.62.033c-.228.032-.587.049-3.247,2.5-.114.13-.228.229-.343.359a27.3,27.3,0,0,0-1.762-3.116L18.715.293l-.294,1.794c0,.017-.1.669-.31,1.6-1.126-.914-2.072-1.55-2.317-1.713l-.522-.358-.408.489c-.147.163-.376.424-.539,4.046,0,.18-.016.326,0,.489a28.762,28.762,0,0,0-3.442-.963L9.1,5.335,10.165,6.82a14.224,14.224,0,0,1,.914,1.354,26.686,26.686,0,0,0-2.856.408l-.62.131.065.636c0,.2.049.571,2.48,3.231l.343.343a26.528,26.528,0,0,0-3.1,1.762L5.874,15.712l1.795.278c.016,0,.685.114,1.616.31a26.064,26.064,0,0,0-1.73,2.317l-.342.538.473.391a.694.694,0,0,0,.163.1c.294.147,1.06.326,3.9.44.163,0,.343,0,.506-.016a26.46,26.46,0,0,0-.963,3.459l-.359,1.795L12.4,24.245c.016-.016.571-.408,1.37-.93a26.156,26.156,0,0,0,.408,2.872l.131.6.619-.032c.213-.033.572-.049,3.248-2.5.114-.114.228-.245.343-.359A25.1,25.1,0,0,0,20.3,27.019l1.012,1.5.277-1.795s.1-.669.31-1.6c1.11.913,2.056,1.55,2.317,1.729l.522.343.408-.473c.147-.163.375-.44.522-4.062a2.437,2.437,0,0,0,0-.49,22.531,22.531,0,0,0,3.459.947l.865.179c.686.489,1.436.979,2.2,1.452-4.585,1.551-8.436,3.59-10.736,5.89L16.17,35.928c-8.484-4.78-16.17,8-16.17,8a19.724,19.724,0,0,0,13.1-4.96l.506-.473-.327.326-.065.212c-.114.44-2.709,10.7,1.648,17.018a11.009,11.009,0,0,0,8.3,4.618,24.53,24.53,0,0,0,2.79.163c5.776,0,8.795-2.235,10.361-4.275a11.3,11.3,0,0,0,1.5-10.361,8.263,8.263,0,0,0-6.38-4.96,4.009,4.009,0,0,0-3.426-1.942,3.969,3.969,0,0,0-3.639,2.35c-.016,0-.016.016-.032.032A7.47,7.47,0,0,1,17.59,43.32l-1.877-.44.979,1.648A7.951,7.951,0,0,0,21.342,48a6.058,6.058,0,0,0,1.208.131,1.962,1.962,0,0,0,.31-.016,17.007,17.007,0,0,0-.294,7.49l.212,1.387,1.11-.881a16.9,16.9,0,0,0,5.042-7.049,9.119,9.119,0,0,1,1.811,5.3l.065,1.975,1.338-1.452c.049-.049,4.895-5.417-.212-10.7a3.788,3.788,0,0,0,.1-.865,1.391,1.391,0,0,0-.016-.261A6.326,6.326,0,0,1,36.3,46.795a9.546,9.546,0,0,1-1.289,8.762c-2.2,2.872-6.233,4.079-11.666,3.492A9.54,9.54,0,0,1,16.2,55.116c-3.606-5.237-1.794-14-1.452-15.468L22.6,31.8c2.333-2.333,6.527-4.405,11.47-5.907,1.469.848,3.035,1.681,4.748,2.464h.016c.016,0,.033.016.049.016-7.636.506-11.992,7.734-11.992,7.734,6.722.228,11.894-.848,14.114-1.795,1.485-.653,1.4-3.035,1.191-4.536a49.147,49.147,0,0,0,10.622,2.791c-6,4.862-5.123,8.4-5.123,10.508,0,2.219-2.627,5.825-2.627,5.825,11.748-5.744,10.051-13.543,9.072-16.154a44.727,44.727,0,0,0,7.31.31c3.672-.146,6.82-.146,9.529-.049a44.7,44.7,0,0,0,6.412,4.03.924.924,0,0,0-.212-.016c-3.018,0-12.613,7.065-12.613,7.065a73.209,73.209,0,0,0,12.351-.375c3.671-.587,3.59-3.8,3.361-5.287,1.305.587,2.529,1.077,3.606,1.469-.44.457-.751.783-.9.946l-2.35,2.594,3.28-1.289a10.661,10.661,0,0,1,4.308-.457,2.918,2.918,0,0,1,.359.033,23.429,23.429,0,0,0-1.7,2.513L85.58,46.452l2.137-1.4A8.876,8.876,0,0,1,92.042,44a2.623,2.623,0,0,1,.359-.016V44.1a32.153,32.153,0,0,0,.751,7.522l.751,3.426.832-3.41A12.489,12.489,0,0,1,98.046,46.5,6.416,6.416,0,0,0,98.5,46a32.714,32.714,0,0,0,5.841,4.8l2.97,1.877-1.828-3a11.042,11.042,0,0,1-1.175-4.161,7.451,7.451,0,0,1,2.448,1.632l1.681,1.925-.653-2.5a23.178,23.178,0,0,0-1.224-3.573,34.779,34.779,0,0,0,5.123-.718l3.426-.767-3.426-.832a5.549,5.549,0,0,1-1.06-.408,56.569,56.569,0,0,0,5.482-2.137c-.229,1.485-.31,4.7,3.361,5.287a73.214,73.214,0,0,0,12.352.375S121.738,36.368,119,36.744a44.735,44.735,0,0,0,6.412-4.03c2.708-.1,5.858-.1,9.529.049a44.768,44.768,0,0,0,7.309-.31c-.979,2.61-2.659,10.41,9.072,16.153,0,0-2.626-3.606-2.626-5.825,0-2.1.881-5.646-5.123-10.508a49.147,49.147,0,0,0,10.622-2.79,11.121,11.121,0,0,0-.114,1.533c0,1.256.277,2.545,1.305,3,2.219.946,7.408,2.023,14.13,1.795,0,0-4.373-7.228-12.009-7.734.016,0,.032-.016.049-.016h.017c1.713-.784,3.28-1.616,4.748-2.464,4.944,1.5,9.137,3.573,11.47,5.907l7.848,7.848c.343,1.469,2.154,10.231-1.452,15.468a9.541,9.541,0,0,1-7.146,3.932c-5.434.587-9.464-.62-11.667-3.492a9.546,9.546,0,0,1-1.289-8.762,6.326,6.326,0,0,1,4.291-3.737,1.358,1.358,0,0,0-.017.261,3.789,3.789,0,0,0,.1.865c-5.107,5.287-.262,10.655-.212,10.7l1.338,1.452.065-1.975a9.125,9.125,0,0,1,1.811-5.3,16.916,16.916,0,0,0,5.042,7.049l1.11.881.212-1.387a17.011,17.011,0,0,0-.294-7.489,1.965,1.965,0,0,0,.311.016,6.058,6.058,0,0,0,1.207-.131,7.954,7.954,0,0,0,4.65-3.475l.979-1.648-1.876.44a7.472,7.472,0,0,1-6.756-1.648c-.016-.016-.016-.033-.032-.033a3.993,3.993,0,0,0-7.065-.408,8.262,8.262,0,0,0-6.38,4.96,11.3,11.3,0,0,0,1.5,10.361c1.566,2.04,4.584,4.275,10.36,4.275a24.517,24.517,0,0,0,2.79-.163,11.01,11.01,0,0,0,8.306-4.618c4.356-6.315,1.762-16.577,1.648-17.018ZM172.3,24.735c-.065-.506-.114-1.273-.163-2.415a3.689,3.689,0,0,1,.081-1.045,3.993,3.993,0,0,0,.392-.163c.212-.1.441-.212.653-.326a14.943,14.943,0,0,1,.848,2.5c-.653.554-1.273,1.06-1.811,1.452m5.352-4.552c-.017.016-.017.032-.033.065a16.445,16.445,0,0,1-.7,1.958c-.1.212-.2.44-.293.652-.261.539-.522,1.061-.783,1.518-.033-.213-.081-.408-.131-.621-.13-.506-.261-1.044-.424-1.6a13.618,13.618,0,0,0-.767-2.04c0-.032-.016-.049-.016-.081a1.879,1.879,0,0,1,.946-2.317h.016a1.519,1.519,0,0,0,.376.065,1.446,1.446,0,0,0,.587.033,1.256,1.256,0,0,0,.343,0,2.7,2.7,0,0,0,.506-.082c.1-.032.212-.065.326-.1.065-.032.131-.049.2-.081a5.1,5.1,0,0,1-.146,2.627m3.589,2.007c-.048.848-.147,1.664-.245,2.333-.392-.327-.962-.832-1.827-1.615a3.807,3.807,0,0,1-.653-.784c.131-.359.262-.718.376-1.077.131-.473.261-.963.343-1.42a6.714,6.714,0,0,0,.049-1.974,10.984,10.984,0,0,0,1.925,1.273c.049.522.1,1.092.1,1.664,0,.522-.032,1.077-.065,1.6m1.5-.783c0-.424,0-.848-.016-1.289.2.555.392,1.11.522,1.616-.163-.114-.343-.212-.506-.326m1.828-3.034a4.294,4.294,0,0,1-1.028-.082,7.757,7.757,0,0,1-1.044-.326,7.568,7.568,0,0,1-.815-.391c-.05-.033-.1-.049-.147-.082-.277-.162-.555-.343-.784-.505a11.329,11.329,0,0,1-1.191-.947,2.591,2.591,0,0,0,.163-.294,2.11,2.11,0,0,1,.1-.2c.049-.163.114-.327.179-.506h-.016c.032-.131.049-.261.081-.392.179-.016.359-.032.538-.032a2.2,2.2,0,0,1,.327-.033,13.406,13.406,0,0,0,2.284-.489,15.122,15.122,0,0,1,1.208,1.11c.392.375.767.783,1.11,1.174.571.653,1.076,1.29,1.468,1.828-.506.049-1.273.1-2.431.164m2.056-3.737c-.2.049-.392.1-.6.146-.294-.31-.587-.6-.9-.9.539.245,1.044.506,1.5.751M184,7.244c-.115.163-.213.343-.327.522-.424-.016-.865-.016-1.305,0,.571-.212,1.126-.375,1.632-.522m-3.524-3.753c.049.522.114,1.272.147,2.431a4.336,4.336,0,0,1-.081,1.028,7.811,7.811,0,0,1-.31,1.044c-.163.016-.343.065-.506.1a2.762,2.762,0,0,0-.2-.587L179.5,7.44a13.025,13.025,0,0,1-.833-2.48c.621-.554,1.257-1.06,1.812-1.468m-1.24,6.266a4.96,4.96,0,0,1,.522-.18A6.4,6.4,0,0,1,181.2,9.3a13.422,13.422,0,0,1,1.647-.1c.539,0,1.094.016,1.616.066.848.032,1.648.147,2.333.228-.343.391-.832.978-1.6,1.827a3.866,3.866,0,0,1-.783.669,5.1,5.1,0,0,1-.979.505,4.842,4.842,0,0,1-.849.311c-.032.016-.1.032-.131.048a9.353,9.353,0,0,1-.93.2,11.145,11.145,0,0,1-1.534.162,1.283,1.283,0,0,0-.1-.326.92.92,0,0,1-.065-.2l-.081-.164a2.921,2.921,0,0,0-.163-.31,2.256,2.256,0,0,0-.212-.326,2.71,2.71,0,0,0-.212-.245,1.815,1.815,0,0,0-.179-.2,3.091,3.091,0,0,0-.261-.229c-.131-.114-.278-.212-.408-.31a1.661,1.661,0,0,1-.294-.146,1.616,1.616,0,0,1,.457-.555,3.143,3.143,0,0,1,.767-.457m-4.112-1.713c0-.016.016-.032.016-.065a16.643,16.643,0,0,1,.7-1.958c.1-.213.2-.44.294-.636a16.425,16.425,0,0,1,.767-1.518c.049.18.1.392.147.6.131.506.261,1.044.424,1.6a15.955,15.955,0,0,0,.751,2.056l.049.065a1.361,1.361,0,0,1,.1.392,5.068,5.068,0,0,0-.816.538c-.065.065-.146.13-.212.2l-.473.571a2.113,2.113,0,0,0-.261.506,1.309,1.309,0,0,0-.262.016.874.874,0,0,0-.359.016c-.163.016-.326.032-.506.065a2.322,2.322,0,0,1-.326.1.948.948,0,0,1-.2.081,5.113,5.113,0,0,1,.163-2.626m.359,4.063a2.2,2.2,0,0,1,1.877,3.981,2.2,2.2,0,0,1-1.877-3.981m-3.72-8.387c.392.31.978.816,1.827,1.6a3.327,3.327,0,0,1,.653.783c-.131.359-.261.718-.376,1.093a13.633,13.633,0,0,1-2.349-1.159c.049-.848.147-1.664.245-2.317m-1.73,3.1c.441.261.93.555,1.436.832a13.492,13.492,0,0,0,1.991.914.122.122,0,0,1,.065.033,6.121,6.121,0,0,0-.049,1.958,3.8,3.8,0,0,0,.245.962,2.073,2.073,0,0,0-.245.278,3.394,3.394,0,0,0-.277.391,2.417,2.417,0,0,0-.147.294.981.981,0,0,0-.115.228,5.385,5.385,0,0,1-1.729-1.974.087.087,0,0,0-.049-.066,17.4,17.4,0,0,1-.881-1.909c-.081-.2-.163-.408-.245-.62-.2-.571-.375-1.126-.538-1.648a6,6,0,0,0,.538.327m-1.844,3.051a4.359,4.359,0,0,1,1.028.082c.163.359.327.717.506,1.061a18.432,18.432,0,0,1-2.48.832,20.581,20.581,0,0,1-1.468-1.827c.489-.032,1.273-.1,2.415-.147m-2.056,3.721a4.786,4.786,0,0,0,.6-.147c.278.294.555.6.865.881q-.784-.366-1.468-.734m2.2-.555a15.853,15.853,0,0,0,2.056-.767l.081-.049a4.86,4.86,0,0,0,2.186,1.909,1.4,1.4,0,0,0,.033.376,3.929,3.929,0,0,0,.164.848,1.655,1.655,0,0,1-.7.049,3.579,3.579,0,0,1-1.37-.457,11.1,11.1,0,0,1-2.448-1.909m2.219,4.65a3.509,3.509,0,0,0,.261-.637.4.4,0,0,1,.049-.081c.163.017.31.049.457.065a6.56,6.56,0,0,0,1.5-.016,4.249,4.249,0,0,0,.946-.245l.081.081a1.654,1.654,0,0,1,.2.164,3.178,3.178,0,0,0-1.126,2.333,17.7,17.7,0,0,1-1.876.865c-.555.212-1.11.408-1.632.571-.228.066-.456.13-.669.2a20.968,20.968,0,0,0,1.811-3.3M25.6,15.239a3.567,3.567,0,0,1-1.37.457,1.668,1.668,0,0,1-.7-.049,3.886,3.886,0,0,0,.163-.849,1.4,1.4,0,0,0,.032-.375,4.86,4.86,0,0,0,2.186-1.909l.082.049a15.916,15.916,0,0,0,2.056.767A11.094,11.094,0,0,1,25.6,15.239m3.182-.62c.31-.278.587-.587.865-.881a4.646,4.646,0,0,0,.6.146q-.685.367-1.468.735M28.2,10.164c1.142.049,1.926.114,2.415.147a20.5,20.5,0,0,1-1.468,1.827,18.549,18.549,0,0,1-2.48-.832c.18-.343.343-.7.506-1.061a4.382,4.382,0,0,1,1.028-.081M26.351,7.113a5.949,5.949,0,0,0,.539-.326c-.163.522-.343,1.077-.539,1.647-.081.212-.163.424-.245.621a17.177,17.177,0,0,1-.881,1.909.088.088,0,0,0-.049.065A5.377,5.377,0,0,1,23.447,13a.973.973,0,0,0-.115-.228,2.381,2.381,0,0,0-.146-.294,3.39,3.39,0,0,0-.277-.392,2.211,2.211,0,0,0-.245-.278,3.807,3.807,0,0,0,.245-.962,6.124,6.124,0,0,0-.049-1.959.125.125,0,0,1,.065-.032,13.554,13.554,0,0,0,1.991-.913c.506-.277,1-.571,1.436-.832m-3.557-1.5c.848-.783,1.436-1.289,1.827-1.6.1.653.2,1.469.245,2.318a13.647,13.647,0,0,1-2.349,1.159c-.114-.376-.245-.735-.376-1.094a3.347,3.347,0,0,1,.653-.784M18.111,8.484l.049-.065a15.85,15.85,0,0,0,.751-2.056c.163-.555.294-1.093.424-1.6.049-.212.1-.424.146-.6a16.363,16.363,0,0,1,.767,1.517c.1.2.2.424.294.637a16.539,16.539,0,0,1,.7,1.958c0,.032.016.049.016.065a5.122,5.122,0,0,1,.163,2.628,1.055,1.055,0,0,1-.2-.082,2.458,2.458,0,0,1-.326-.1c-.179-.032-.343-.049-.506-.065a.876.876,0,0,0-.359-.016,1.3,1.3,0,0,0-.261-.016,2.131,2.131,0,0,0-.261-.505l-.473-.571c-.065-.066-.147-.131-.212-.2a5.046,5.046,0,0,0-.816-.539,1.366,1.366,0,0,1,.1-.392m-2.2-4.7c.555.408,1.192.914,1.811,1.469a13,13,0,0,1-.832,2.479l-.033.066a2.8,2.8,0,0,0-.2.587c-.163-.032-.343-.082-.505-.1a7.6,7.6,0,0,1-.31-1.044,4.29,4.29,0,0,1-.081-1.028c.032-1.158.1-1.909.146-2.431M14.016,8.06c-.441-.016-.881-.016-1.305,0-.114-.18-.212-.359-.327-.523.506.148,1.061.31,1.632.523M9.594,9.789c.685-.081,1.485-.2,2.333-.228C12.45,9.512,13,9.5,13.543,9.5a13.7,13.7,0,0,1,1.648.1,6.451,6.451,0,0,1,1.436.278,4.829,4.829,0,0,1,.522.18,3.164,3.164,0,0,1,.767.457,1.628,1.628,0,0,1,.457.554,1.66,1.66,0,0,1-.294.147c-.131.1-.278.2-.408.309-.081.065-.179.148-.261.229a1.987,1.987,0,0,0-.179.2,2.8,2.8,0,0,0-.212.245,2.241,2.241,0,0,0-.212.326,2.783,2.783,0,0,0-.163.311l-.082.163a.9.9,0,0,1-.065.2,1.241,1.241,0,0,0-.1.326,11.073,11.073,0,0,1-1.534-.163,9.479,9.479,0,0,1-.93-.2c-.032-.016-.1-.033-.13-.049a4.771,4.771,0,0,1-.848-.31,5.028,5.028,0,0,1-.979-.506,3.854,3.854,0,0,1-.784-.669c-.767-.848-1.256-1.435-1.6-1.827m1.664,4.39c-.31.293-.6.587-.9.9-.212-.049-.408-.1-.6-.147.457-.245.963-.506,1.5-.75M13.641,21.7c-.163.114-.343.212-.506.326.131-.506.327-1.06.522-1.615-.016.44-.016.864-.016,1.289m1.208-3.916c-.049.033-.1.049-.147.081a7.433,7.433,0,0,1-.816.392,7.738,7.738,0,0,1-1.044.326,4.311,4.311,0,0,1-1.028.081c-1.159-.065-1.925-.114-2.431-.163.392-.539.9-1.175,1.468-1.827.343-.392.718-.8,1.11-1.175a15.053,15.053,0,0,1,1.208-1.109,13.47,13.47,0,0,0,2.284.489,2.191,2.191,0,0,1,.326.032c.179,0,.359.016.538.033.033.13.049.261.082.391h-.016c.065.18.13.343.179.506a2.114,2.114,0,0,1,.1.2,2.624,2.624,0,0,0,.163.294,11.3,11.3,0,0,1-1.191.946c-.228.163-.506.343-.783.506M17.214,23.2c-.865.784-1.436,1.289-1.827,1.616-.1-.669-.2-1.485-.245-2.333-.032-.522-.065-1.077-.065-1.6,0-.571.049-1.142.1-1.664A10.934,10.934,0,0,0,17.1,17.947a6.728,6.728,0,0,0,.049,1.974c.082.457.212.946.343,1.42.114.359.245.718.375,1.077a3.778,3.778,0,0,1-.653.783m4.666-2.872c0,.032-.016.049-.016.082a13.562,13.562,0,0,0-.767,2.039c-.164.555-.294,1.093-.424,1.6-.049.213-.1.408-.131.62-.261-.457-.522-.978-.783-1.518-.1-.212-.2-.44-.294-.653a16.633,16.633,0,0,1-.7-1.958c-.016-.032-.016-.049-.032-.065a5.1,5.1,0,0,1-.147-2.627c.065.032.13.049.2.082.114.032.228.065.326.1a2.769,2.769,0,0,0,.506.081,1.194,1.194,0,0,0,.343,0,1.42,1.42,0,0,0,.587-.033,1.517,1.517,0,0,0,.376-.065h.016a1.877,1.877,0,0,1,.947,2.316m.065-5.009a2.19,2.19,0,1,1-3.965-1.86,2.19,2.19,0,1,1,3.965,1.86m2.137,9.708c-.538-.392-1.159-.9-1.811-1.452a14.857,14.857,0,0,1,.848-2.5c.211.114.44.228.652.326a4.094,4.094,0,0,0,.392.163,3.717,3.717,0,0,1,.082,1.044c-.049,1.142-.1,1.909-.163,2.415m2.888-3.948c-.522-.164-1.077-.359-1.632-.571a18.044,18.044,0,0,1-1.877-.865,3.176,3.176,0,0,0-1.126-2.333,1.835,1.835,0,0,1,.2-.163l.082-.081a4.229,4.229,0,0,0,.946.245,6.535,6.535,0,0,0,1.5.017c.147-.017.294-.049.457-.066a.342.342,0,0,1,.049.082,3.474,3.474,0,0,0,.261.636,21.037,21.037,0,0,0,1.811,3.3c-.212-.065-.44-.13-.669-.2m-3.41,25.274a4,4,0,0,1-1.86.049,5.088,5.088,0,0,1-2.317-1.224,8.631,8.631,0,0,0,4.65-1.256,4.3,4.3,0,0,0,.343,1.126,4.408,4.408,0,0,0,.506.8,4.886,4.886,0,0,1-1.322.506M24,53.778a13.146,13.146,0,0,1,.734-6.07,8.307,8.307,0,0,1,.685-1.321,4.616,4.616,0,0,0,.832.555,3.778,3.778,0,0,0,.816.294,4.254,4.254,0,0,1,.522.408A12.893,12.893,0,0,1,24,53.778m4.014-8.06a1.009,1.009,0,0,1-.31-.032.05.05,0,0,0-.032-.016v.016a1.262,1.262,0,0,1-.424-.114,2.035,2.035,0,0,1-.783-.424,2.418,2.418,0,0,1-.816-1.452,2.887,2.887,0,0,1-.033-.375,1.73,1.73,0,0,1,.131-.7l.016-.032a1.664,1.664,0,0,1,.261-.6v-.016a2.421,2.421,0,0,1,1.991-1.044,2.4,2.4,0,0,1,1.273,4.422,2.285,2.285,0,0,1-1.273.375m4.063,6.3A10.368,10.368,0,0,0,29.386,47.1a3.922,3.922,0,0,0,1.795-1.321,5.615,5.615,0,0,1,.9,6.233m29.3-20.591A48.7,48.7,0,0,1,36.3,25.257,56.554,56.554,0,0,1,52.246,23.43c3.834.147,8.729.881,11.992,3.28l.049.049a.366.366,0,0,1,.082.065c.049.033.081.065.114.082a1.724,1.724,0,0,1,.18.147h.016a8.524,8.524,0,0,1,1.159,1.142,31.131,31.131,0,0,0,3.084,3.133c-2.252-.032-4.732-.016-7.538.1m46.42,7.032a14.2,14.2,0,0,1-1.24-1.093,6.343,6.343,0,0,0-.505-.457c.228-.212.44-.424.652-.637a18.03,18.03,0,0,0,3.557.1,26.385,26.385,0,0,1-2.3,1.958c-.049.049-.115.081-.163.13m-4.715-7.717a2.728,2.728,0,0,1,.44-.18,12.426,12.426,0,0,0,2.806-1.256c-.211.6-.456,1.224-.717,1.811a16.108,16.108,0,0,1-1.86.1c-.228,0-.457.016-.685.033Zm-.163,2.186a4.538,4.538,0,0,1,.848-.082c.326,0,.636-.016.946-.032.522-.032,1.012-.081,1.452-.146a14.719,14.719,0,0,0,1.795-.343c-.571.767-1.208,1.517-1.844,2.218-.506.538-1.012,1.044-1.518,1.485a5.155,5.155,0,0,0-1.175-.375,5.351,5.351,0,0,0-1.11-.114c-.081,0-.179.016-.261.016-.114,0-.228.016-.343.016l-.245.049a4.43,4.43,0,0,0-.751-1c-.1-.1-.212-.2-.326-.294a4.094,4.094,0,0,1,.718-.669,1.148,1.148,0,0,1,.18-.114,3.806,3.806,0,0,1,1.632-.62m-4.34-2.921a17.5,17.5,0,0,0,2.611-3.345,25.52,25.52,0,0,1,.277,3.687c0,.44,0,.881-.032,1.289a5.2,5.2,0,0,0-1.159.619,4.754,4.754,0,0,0-1,.881,7.853,7.853,0,0,0-1.24-2.48,4.761,4.761,0,0,1,.538-.652m-2.5.816a9.251,9.251,0,0,1,1.191,1.648,3.309,3.309,0,0,1,.408.93c-.147,0-.294.016-.44.016a5.279,5.279,0,0,0-1.126.31,2.693,2.693,0,0,0-.44.212,4.44,4.44,0,0,0-1,.75,2.72,2.72,0,0,0-.294.343,3.56,3.56,0,0,1-.669-.718,3.916,3.916,0,0,1-.734-1.811,4.533,4.533,0,0,1-.082-.848,1.09,1.09,0,0,0-.016-.228,11.568,11.568,0,0,0-.065-1.322,14.747,14.747,0,0,0-.44-2.659,26.456,26.456,0,0,1,3.7,3.377m-4.83.262c.016.179.016.375.016.571,0,.244.016.473.033.7a12.761,12.761,0,0,0-1.567,0A19.378,19.378,0,0,1,88.4,30.642a12.367,12.367,0,0,0,2.856.441M89.594,33.97c.62-.016,1.224-.032,1.795,0,.114,0,.212.016.31.016a2.644,2.644,0,0,0,.147.31,5.088,5.088,0,0,0,1.175,1.681c.049.049.114.1.163.147.147.131.294.245.44.376a4.641,4.641,0,0,0-.163,1.175v.245a1.227,1.227,0,0,1,.016.245,2.8,2.8,0,0,1-.9-.032h-.065A4.091,4.091,0,0,1,90.7,37.38a4.912,4.912,0,0,1-.653-.555,17.111,17.111,0,0,0-3.329-2.594,27.606,27.606,0,0,1,2.872-.261m-15.5-.783a40.544,40.544,0,0,1,6.4.637,24.2,24.2,0,0,1,3.084.8l.212.049a10.762,10.762,0,0,1,3.3,1.778c.016,0,.032.016.049.032a2.257,2.257,0,0,1,.343.245c-.114.1-.245.163-.343.245-.131.114-.261.212-.376.31-.571.457-1.093.914-1.566,1.354a52.83,52.83,0,0,1-11.1-5.45m14.228,6.869a17.152,17.152,0,0,0-2.268.016,11.326,11.326,0,0,1,.93-.832c.44-.408.9-.767,1.37-1.126.049-.049.114-.081.163-.13.065-.049.147-.1.212-.147a1.615,1.615,0,0,1,.18.163,6.416,6.416,0,0,0,.506.457,6.239,6.239,0,0,0,1.37.848c-.2.163-.375.327-.555.506l-.392.392c-.081-.016-.163-.016-.228-.032-.457-.049-.881-.1-1.289-.114m4.291,2.66a.209.209,0,0,1-.1.016,2.676,2.676,0,0,1-.522.049,12.7,12.7,0,0,0-3.051.457c.327-.457.685-.913,1.044-1.354a16.215,16.215,0,0,1,1.305-1.436.806.806,0,0,1,.13-.114,6.073,6.073,0,0,1,.751-.6,3.466,3.466,0,0,1,.31-.212,2.8,2.8,0,0,1,.685-.31,1.316,1.316,0,0,1,.489-.1.147.147,0,0,1,.082.016.514.514,0,0,0,.049.147,1.078,1.078,0,0,0,.049.131A2.03,2.03,0,0,0,94,39.73a4.1,4.1,0,0,0,.75,1l.016.016.081.081a3.012,3.012,0,0,1-.424.816c-.016.016-.032.049-.065.065v.016a2.35,2.35,0,0,1-.457.44,2.843,2.843,0,0,1-1.289.555m4.275,2.643a17.471,17.471,0,0,0-2.61,3.345,25.96,25.96,0,0,1-.245-4.977c0-.081.016-.163.016-.228a3.626,3.626,0,0,0,1.191-1,2.635,2.635,0,0,0,.278-.326,3.136,3.136,0,0,0,.343-.653c.065.032.147.065.212.1.032.2.065.408.114.6a7.353,7.353,0,0,0,1.256,2.464,5.005,5.005,0,0,1-.555.669m.832-5.042a2.959,2.959,0,0,1-.376-.032,2.2,2.2,0,0,1-1.011-.392.851.851,0,0,1-.278-.212.419.419,0,0,1-.179-.131l-.016-.016a1.953,1.953,0,0,1-.245-.294,2.52,2.52,0,0,1-.392-.784.928.928,0,0,1-.065-.2,1.275,1.275,0,0,1-.049-.359,1.1,1.1,0,0,1-.016-.229v-.016a2.885,2.885,0,0,1,.033-.376,2.2,2.2,0,0,1,.392-1.012.9.9,0,0,1,.212-.294.568.568,0,0,1,.163-.179.8.8,0,0,1,.294-.228,2.219,2.219,0,0,1,.962-.473,1.487,1.487,0,0,1,.376-.049.943.943,0,0,1,.212-.016h.016a3.141,3.141,0,0,1,.392.032,2.4,2.4,0,0,1,1,.392.9.9,0,0,1,.294.212.564.564,0,0,1,.18.163,1.079,1.079,0,0,1,.245.294,2.394,2.394,0,0,1,.457.963,1.486,1.486,0,0,1,.049.376v.049a.553.553,0,0,1,.016.163v.016a2.718,2.718,0,0,1-.032.375,2.332,2.332,0,0,1-.392,1.028.84.84,0,0,1-.212.277.85.85,0,0,1-.163.2,1.023,1.023,0,0,1-.294.229,2.384,2.384,0,0,1-.962.457,1.471,1.471,0,0,1-.376.049.924.924,0,0,1-.212.016Zm1.664,4.226A10.572,10.572,0,0,1,98.193,42.9a3.614,3.614,0,0,1-.408-.946c.147,0,.294-.016.44-.016a4.435,4.435,0,0,0,1.126-.294,2.851,2.851,0,0,0,.44-.229c.016-.016.049-.032.065-.049a5.661,5.661,0,0,0,.522-.326,4.412,4.412,0,0,0,.408-.376c.1-.1.2-.212.294-.326a3.317,3.317,0,0,1,.6.653l.62,1.142a3.06,3.06,0,0,1,.18.718c.032.2.065.424.081.653v.212c0,.392.016.783.049,1.142a17.169,17.169,0,0,0,.473,3.067,27.479,27.479,0,0,1-3.7-3.377m4.83-.408a3.943,3.943,0,0,1-.016-.44c0-.228-.016-.457-.032-.685h1.061c0,.016.016.016.016.032.31.653.587,1.338.832,2.023a11.582,11.582,0,0,0-1.86-.93m4.536-3c-.832.13-1.713.2-2.562.245h-.065c-.131,0-.245.016-.376.016-.44.016-.848.016-1.256,0h-.163c-.212,0-.408-.016-.555-.016a4.739,4.739,0,0,0-.31-.653l-.065-.147a4.369,4.369,0,0,0-.44-.636,6.821,6.821,0,0,0-.669-.7,2.561,2.561,0,0,1-.212-.2,2.9,2.9,0,0,1-.228-.2,1.394,1.394,0,0,0,.065-.359,1.631,1.631,0,0,0,.065-.408,1.662,1.662,0,0,0,.032-.408v-.163a2.408,2.408,0,0,0-.032-.342c.114,0,.228-.016.359-.016h.016a3.93,3.93,0,0,1,2.415.816,4.912,4.912,0,0,1,.653.555,17.328,17.328,0,0,0,2.921,2.35l.081.049a3.766,3.766,0,0,0,.327.212m1.338-2.415a36.052,36.052,0,0,0,3.248-3.116l1.5-1.648a46.469,46.469,0,0,1,7.457-1.06,52.6,52.6,0,0,1-12.2,5.824M135,31.131c-2.807-.114-5.287-.131-7.539-.1a31.043,31.043,0,0,0,3.084-3.132,8.473,8.473,0,0,1,1.158-1.142h.017a1.676,1.676,0,0,1,.179-.147c.032-.016.065-.049.114-.081.033-.016.049-.049.081-.065l.049-.049c3.263-2.4,8.158-3.133,11.993-3.28a56.508,56.508,0,0,1,15.941,1.827A48.692,48.692,0,0,1,135,31.131m37.006,13.624a4.285,4.285,0,0,0,.342-1.126A8.632,8.632,0,0,0,177,44.886a5.09,5.09,0,0,1-2.317,1.224,4,4,0,0,1-1.86-.049,4.888,4.888,0,0,1-1.321-.505,4.453,4.453,0,0,0,.506-.8m-.359,2.659a13.144,13.144,0,0,1,.735,6.07,12.889,12.889,0,0,1-3.59-6.135,4.193,4.193,0,0,1,.521-.408,3.773,3.773,0,0,0,.816-.294,4.63,4.63,0,0,0,.832-.555,8.222,8.222,0,0,1,.685,1.321m-3.28-6.787a2.42,2.42,0,0,1,1.991,1.044v.016a1.663,1.663,0,0,1,.262.6l.016.033a1.736,1.736,0,0,1,.13.7,2.963,2.963,0,0,1-.032.375,2.418,2.418,0,0,1-.816,1.452,2.034,2.034,0,0,1-.784.424,1.255,1.255,0,0,1-.424.114v-.016a.052.052,0,0,0-.033.016,1.008,1.008,0,0,1-.31.032,2.283,2.283,0,0,1-1.272-.375,2.4,2.4,0,0,1,1.272-4.422M165.2,45.49A3.921,3.921,0,0,0,167,46.811a10.364,10.364,0,0,0-2.692,4.912,5.614,5.614,0,0,1,.9-6.233" transform="translate(0 0.001)" fill="#fff"/>
  </g>
</svg>
