<svg xmlns="http://www.w3.org/2000/svg" xmlns:xlink="http://www.w3.org/1999/xlink" width="65.483" height="41.758" viewBox="0 0 65.483 41.758">
  <defs>
    <clipPath id="clip-path">
      <rect id="Rectangle_32" data-name="Rectangle 32" width="65.483" height="41.758" fill="#eeede0"/>
    </clipPath>
  </defs>
  <g id="Group_10" data-name="Group 10" clip-path="url(#clip-path)">
    <path id="Path_118" data-name="Path 118" d="M36.8,0c1.771.372,3.559.68,5.31,1.131a38.474,38.474,0,0,1,10.5,4.519,4.644,4.644,0,0,0,2.227.646c3.43.067,6.863.029,10.639.029l-5.272,5.763a16.49,16.49,0,0,1,.916,23.086A16.77,16.77,0,0,1,37.9,36.234l-5.162,5.524-5.171-5.536c-8.4,6.942-18.456,4.37-23.483-1.353A16.514,16.514,0,0,1,5.264,12.1L0,6.324c2.41,0,4.494-.1,6.562.024a14.514,14.514,0,0,0,8.978-2.1A29.913,29.913,0,0,1,28.172.244,2.322,2.322,0,0,0,28.766,0ZM16.444,13.248A10.931,10.931,0,0,0,5.436,24.115,11,11,0,1,0,16.444,13.248m32.628,0a10.879,10.879,0,0,0-10.991,10.86,10.98,10.98,0,1,0,10.991-10.86M20.753,7.71c6.272,2.866,10.48,7.054,11.974,14.052,1.486-6.976,5.744-11.228,11.99-14.061a32.1,32.1,0,0,0-23.965.009" fill="#eeede0"/>
    <path id="Path_119" data-name="Path 119" d="M45.283,68.3a5.8,5.8,0,1,1-5.931,5.694A5.767,5.767,0,0,1,45.283,68.3" transform="translate(-28.799 -49.982)" fill="#eeede0"/>
    <path id="Path_120" data-name="Path 120" d="M161.231,74.043a5.71,5.71,0,0,1,5.881-5.743,5.8,5.8,0,1,1-5.881,5.743" transform="translate(-117.992 -49.983)" fill="#eeede0"/>
  </g>
</svg>
