<svg xmlns="http://www.w3.org/2000/svg" width="42.419" height="42.409" viewBox="0 0 42.419 42.409">
  <path id="Icon_awesome-instagram" data-name="Icon awesome-instagram" d="M21.209,12.569A10.873,10.873,0,1,0,32.082,23.442,10.856,10.856,0,0,0,21.209,12.569Zm0,17.942a7.069,7.069,0,1,1,7.069-7.069,7.082,7.082,0,0,1-7.069,7.069ZM35.063,12.124a2.536,2.536,0,1,1-2.536-2.536A2.53,2.53,0,0,1,35.063,12.124Zm7.2,2.574c-.161-3.4-.937-6.407-3.426-8.886S33.35,2.557,29.953,2.387c-3.5-.2-14-.2-17.5,0-3.388.161-6.4.937-8.886,3.416S.314,11.292.144,14.689c-.2,3.5-.2,14,0,17.5.161,3.4.937,6.407,3.426,8.886s5.489,3.255,8.886,3.426c3.5.2,14,.2,17.5,0,3.4-.161,6.407-.937,8.886-3.426s3.255-5.489,3.426-8.886c.2-3.5.2-13.987,0-17.488ZM37.741,35.943a7.157,7.157,0,0,1-4.031,4.031c-2.792,1.107-9.416.852-12.5.852s-9.719.246-12.5-.852a7.157,7.157,0,0,1-4.031-4.031c-1.107-2.792-.852-9.416-.852-12.5s-.246-9.719.852-12.5A7.157,7.157,0,0,1,8.708,6.91c2.792-1.107,9.416-.852,12.5-.852s9.719-.246,12.5.852a7.157,7.157,0,0,1,4.031,4.031c1.107,2.792.852,9.416.852,12.5S38.848,33.161,37.741,35.943Z" transform="translate(0.005 -2.238)" fill="#eeede0"/>
</svg>
