<svg xmlns="http://www.w3.org/2000/svg" xmlns:xlink="http://www.w3.org/1999/xlink" width="1762" height="849" viewBox="0 0 1762 849">
  <defs>
    <clipPath id="clip-path">
      <rect id="Rectangle_729" data-name="Rectangle 729" width="1762" height="849" transform="translate(0 -0.447)" fill="none" stroke="#b68e4b" stroke-width="1"/>
    </clipPath>
  </defs>
  <g id="Group_834" data-name="Group 834" transform="translate(0 0.447)" clip-path="url(#clip-path)">
    <path id="Path_2770" data-name="Path 2770" d="M46.938.5H1720.111c0,22.244,18.542,40.276,41.415,40.276v766.75c-22.873,0-41.415,18.032-41.415,40.276H41.915c0-22.244-18.542-40.276-41.415-40.276V45.661C26.146,45.661,46.938,25.441,46.938.5Z" transform="translate(-0.013 -0.098)" fill="none" stroke="#b68e4b" stroke-miterlimit="10" stroke-width="1"/>
    <path id="Path_2771" data-name="Path 2771" d="M10.2,9.7H1752.791V839.084a.491.491,0,0,1-.5.477H10.2a.49.49,0,0,1-.5-.477V10.18A.491.491,0,0,1,10.2,9.7Z" transform="translate(-0.247 -0.579)" fill="none" stroke="#b68e4b" stroke-miterlimit="10" stroke-width="1"/>
  </g>
</svg>
