<svg id="_8595-tan-horizontal-logos-logo-full-color-rgb" data-name="8595-tan-horizontal-logos-logo-full-color-rgb" xmlns="http://www.w3.org/2000/svg" width="492.33" height="19.78" viewBox="0 0 492.33 19.78">
  <path id="fullLogo" d="M20.14,185.027h2.916v-11.7H35.3a6.761,6.761,0,0,1,7.019,7.053,6.909,6.909,0,0,1-3.289,6.036l3.661,5.833H39.366L36.247,187.3a13.209,13.209,0,0,1-2.068.136H26.007v4.816h-2.95v-4.815H20.14Zm5.866-9.293v9.293h8.681a4.386,4.386,0,0,0,4.543-4.611,4.443,4.443,0,0,0-4.543-4.681Z" transform="translate(-20.14 -172.978)" fill="#b68e4b"/>
  <path id="fullLogo-2" data-name="fullLogo" d="M50.021,183.873h2.916V173.328H71.961v2.407H55.887v8.139H69.282v2.374H55.888v3.629H71.961v2.373H52.938v-6H50.021Z" transform="translate(-15.739 -172.977)" fill="#b68e4b"/>
  <path id="fullLogo-3" data-name="fullLogo" d="M98.816,176.458a27.615,27.615,0,0,0-8.647-1.085c-2.543,0-7.155.134-7.155,2.78,0,5.392,17.192,0,17.192,8.749,0,4.883-5.6,5.73-10.342,5.73a42.526,42.526,0,0,1-10.14-1.152l.1-2.476A38.823,38.823,0,0,0,89.9,190.259c3.493,0,7.528-.509,7.528-3.221,0-5.833-17.192-.272-17.192-8.681,0-4.815,5.935-5.324,9.868-5.324a29.892,29.892,0,0,1,8.85,1.086Z" transform="translate(-11.364 -173.022)" fill="#b68e4b"/>
  <path id="fullLogo-4" data-name="fullLogo" d="M115.882,192.249V175.8h-9.054v-2.475h21.058V175.8h-9.054v16.446Z" transform="translate(-7.372 -172.977)" fill="#b68e4b"/>
  <path id="fullLogo-5" data-name="fullLogo" d="M130.947,186.731h3.763l8.749-13.7,12.275,19.261h-3.391l-1.966-3.256h-13.8l-1.967,3.256h-3.425l2.069-3.256h-2.306Zm7.019,0h10.987l-5.493-9.053Z" transform="translate(-3.82 -173.02)" fill="#b68e4b"/>
  <path id="fullLogo-6" data-name="fullLogo" d="M179.983,173.328h2.95v9.561c0,7.088-4.951,9.868-10.613,9.868s-10.546-2.781-10.546-9.868v-9.561h2.95v9.561c0,5.562,3.8,7.359,7.6,7.359,3.832,0,7.664-1.8,7.664-7.359Z" transform="translate(0.72 -172.977)" fill="#b68e4b"/>
  <path id="fullLogo-7" data-name="fullLogo" d="M191.448,185.027h2.916v-11.7h12.241a6.761,6.761,0,0,1,7.019,7.053,6.909,6.909,0,0,1-3.289,6.036L214,192.249h-3.323l-3.119-4.951a13.208,13.208,0,0,1-2.068.136h-8.172v4.816h-2.95v-4.815h-2.916Zm5.866-9.293v9.293H206a4.386,4.386,0,0,0,4.543-4.611A4.443,4.443,0,0,0,206,175.735Z" transform="translate(5.091 -172.978)" fill="#b68e4b"/>
  <path id="fullLogo-8" data-name="fullLogo" d="M220.177,186.731h3.763l8.749-13.7,12.275,19.261h-3.392l-1.966-3.256h-13.8l-1.967,3.256h-3.425l2.069-3.256h-2.306Zm7.019,0h10.987l-5.493-9.053Z" transform="translate(9.322 -173.02)" fill="#b68e4b"/>
  <path id="fullLogo-9" data-name="fullLogo" d="M271.942,192.293v-4.544l-16.683-9.528v14.072h-2.985V173.032l19.667,11.427V173.372h2.95v18.921Z" transform="translate(14.05 -173.02)" fill="#b68e4b"/>
  <path id="fullLogo-10" data-name="fullLogo" d="M292.037,192.249V175.8h-9.054v-2.475h21.058V175.8h-9.054v16.446Z" transform="translate(18.573 -172.977)" fill="#b68e4b"/>
  <path id="fullLogo-11" data-name="fullLogo" d="M346.683,181.239v2.406h-3.7v7.629a20.768,20.768,0,0,1-7.359,1.356c-4.645,0-9.257-1.085-9.257-5.763a5.058,5.058,0,0,1,4.747-4.68,4.34,4.34,0,0,1-3.865-4.036c0-3.967,4.1-5.12,8.375-5.12a17.419,17.419,0,0,1,6.443,1.186v2.476a15.341,15.341,0,0,0-6.444-1.255c-3.594,0-5.425,1.017-5.425,2.679,0,1.866,2,3.121,4.781,3.121Zm-6.613,8.443v-6.037h-5.087c-4.17,0-5.629,1.595-5.629,3.222,0,2.135,1.73,3.357,6.273,3.357A17.561,17.561,0,0,0,340.071,189.682Z" transform="translate(24.963 -173.02)" fill="#b68e4b"/>
  <path id="fullLogo-12" data-name="fullLogo" d="M369.731,183.5h2.882V173.328h14c4.069,0,7.222,2.17,7.222,6.2a5.28,5.28,0,0,1-3.8,5.223,3.434,3.434,0,0,1,1.7,2.983c0,3.052-2.679,4.511-5.866,4.511H372.613v-6.68h-2.882Zm17.022,0a3.79,3.79,0,0,0,3.967-3.968,3.853,3.853,0,0,0-4.069-3.966H375.563V183.5Zm-.678,6.51a2.321,2.321,0,0,0,2.611-2.272c0-1.051-.678-2.169-2.645-2.169H375.563v4.441Z" transform="translate(31.349 -172.977)" fill="#b68e4b"/>
  <path id="fullLogo-13" data-name="fullLogo" d="M399.228,186.731h3.763l8.749-13.7,12.275,19.261h-3.392l-1.966-3.256h-13.8l-1.967,3.256h-3.425l2.069-3.256h-2.306Zm7.019,0h10.987l-5.493-9.053Z" transform="translate(35.694 -173.02)" fill="#b68e4b"/>
  <path id="fullLogo-14" data-name="fullLogo" d="M429.612,185.027h2.916v-11.7H444.77a6.761,6.761,0,0,1,7.019,7.053,6.909,6.909,0,0,1-3.289,6.036l3.661,5.833h-3.323l-3.119-4.951a13.216,13.216,0,0,1-2.068.136h-8.172v4.816h-2.95v-4.815h-2.916Zm5.866-9.293v9.293h8.681a4.386,4.386,0,0,0,4.543-4.611,4.443,4.443,0,0,0-4.543-4.681Z" transform="translate(40.169 -172.978)" fill="#b68e4b"/>
</svg>
