<svg xmlns="http://www.w3.org/2000/svg" width="31.732" height="21.884" viewBox="0 0 31.732 21.884">
  <g id="menu" transform="translate(-3 -12)">
    <path id="Path_122" data-name="Path 122" d="M34.185,32.188H3.547A.547.547,0,0,1,3,31.641V30.547A.547.547,0,0,1,3.547,30H34.185a.547.547,0,0,1,.547.547v1.094A.547.547,0,0,1,34.185,32.188Z" transform="translate(0 -8.152)" fill="#fff"/>
    <path id="Path_123" data-name="Path 123" d="M46.413,14.188H30.547A.547.547,0,0,1,30,13.641V12.547A.547.547,0,0,1,30.547,12H46.413a.547.547,0,0,1,.547.547v1.094A.547.547,0,0,1,46.413,14.188Z" transform="translate(-12.228)" fill="#fff"/>
    <path id="Path_124" data-name="Path 124" d="M19.413,50.188H3.547A.547.547,0,0,1,3,49.641V48.547A.547.547,0,0,1,3.547,48H19.413a.547.547,0,0,1,.547.547v1.094A.547.547,0,0,1,19.413,50.188Z" transform="translate(0 -16.304)" fill="#fff"/>
  </g>
</svg>
